# MagicaVoxel @ Ephtracy

# group
g CRS

# material
mtllib CRS.mtl
usemtl palette

# normals
vn -1 0 0
vn 1 0 0
vn 0 0 1
vn 0 0 -1
vn 0 -1 0
vn 0 1 0

# texcoords
vt 0.974609 0.5
vt 0.978516 0.5
vt 0.982422 0.5
vt 0.986328 0.5

# verts
v -4 8 1
v -4 8 -1
v -4 10 1
v -4 10 -1
v -4 11 1
v -4 11 -1
v -4 13 1
v -4 13 -1
v -4 14 1
v -4 14 -1
v -4 16 1
v -4 16 -1
v -2 0 2
v -2 0 -1
v -2 2 2
v -2 2 1
v -2 2 -1
v -2 5 1
v -2 5 -0
v -2 7 1
v -2 7 -0
v -2 8 1
v -2 8 -1
v -2 10 2
v -2 10 1
v -2 10 -1
v -2 10 -2
v -2 15 2
v -2 15 1
v -2 15 -1
v -2 15 -2
v -2 16 2
v -2 16 1
v -2 16 -0
v -2 16 -1
v -2 16 -2
v -2 18 2
v -2 18 1
v -2 18 -0
v -2 18 -2
v -2 19 2
v -2 19 -2
v -2 20 2
v -2 20 -2
v 2 0 2
v 2 0 -1
v 2 2 2
v 2 2 1
v 2 2 -1
v 2 5 1
v 2 5 -0
v 2 7 1
v 2 7 -0
v 2 8 1
v 2 8 -1
v 2 10 2
v 2 10 1
v 2 10 -1
v 2 10 -2
v 2 15 2
v 2 15 1
v 2 15 -1
v 2 15 -2
v 2 16 2
v 2 16 1
v 2 16 -0
v 2 16 -1
v 2 16 -2
v 2 18 2
v 2 18 1
v 2 18 -0
v 2 18 -2
v 2 19 2
v 2 19 -2
v 2 20 2
v 2 20 -2
v 4 8 1
v 4 8 -1
v 4 10 1
v 4 10 -1
v 4 11 1
v 4 11 -1
v 4 13 1
v 4 13 -1
v 4 14 1
v 4 14 -1
v 4 16 1
v 4 16 -1
v -2 0 2
v -2 2 2
v -2 10 2
v -2 15 2
v -2 16 2
v -2 18 2
v -2 19 2
v -2 20 2
v 2 0 2
v 2 2 2
v 2 10 2
v 2 15 2
v 2 16 2
v 2 18 2
v 2 19 2
v 2 20 2
v -4 8 1
v -4 10 1
v -4 11 1
v -4 13 1
v -4 14 1
v -4 16 1
v -3 11 1
v -3 13 1
v -3 14 1
v -3 16 1
v -2 2 1
v -2 5 1
v -2 7 1
v -2 8 1
v -2 9 1
v -2 10 1
v -2 15 1
v -2 16 1
v 2 2 1
v 2 5 1
v 2 7 1
v 2 8 1
v 2 9 1
v 2 10 1
v 2 15 1
v 2 16 1
v 3 11 1
v 3 13 1
v 3 14 1
v 3 16 1
v 4 8 1
v 4 10 1
v 4 11 1
v 4 13 1
v 4 14 1
v 4 16 1
v -4 8 -1
v -4 10 -1
v -4 11 -1
v -4 13 -1
v -4 14 -1
v -4 16 -1
v -3 11 -1
v -3 13 -1
v -3 14 -1
v -3 16 -1
v -2 0 -1
v -2 2 -1
v -2 8 -1
v -2 9 -1
v -2 10 -1
v -2 15 -1
v -2 16 -1
v 2 0 -1
v 2 2 -1
v 2 8 -1
v 2 9 -1
v 2 10 -1
v 2 15 -1
v 2 16 -1
v 3 11 -1
v 3 13 -1
v 3 14 -1
v 3 16 -1
v 4 8 -1
v 4 10 -1
v 4 11 -1
v 4 13 -1
v 4 14 -1
v 4 16 -1
v -2 10 -2
v -2 15 -2
v -2 16 -2
v -2 18 -2
v -2 19 -2
v -2 20 -2
v 2 10 -2
v 2 15 -2
v 2 16 -2
v 2 18 -2
v 2 19 -2
v 2 20 -2
v -2 0 2
v 2 0 2
v -2 0 -1
v 2 0 -1
v -4 8 1
v -2 8 1
v 2 8 1
v 4 8 1
v -4 8 -1
v -2 8 -1
v 2 8 -1
v 4 8 -1
v -2 10 2
v 2 10 2
v -2 10 1
v 2 10 1
v -2 10 -1
v 2 10 -1
v -2 10 -2
v 2 10 -2
v -2 16 2
v 2 16 2
v -2 16 1
v 2 16 1
v -2 16 -1
v 2 16 -1
v -2 16 -2
v 2 16 -2
v -2 2 2
v 2 2 2
v -2 2 1
v 2 2 1
v -2 15 2
v 2 15 2
v -2 15 1
v 2 15 1
v -2 15 -1
v 2 15 -1
v -2 15 -2
v 2 15 -2
v -4 16 1
v -3 16 1
v -2 16 1
v 2 16 1
v 3 16 1
v 4 16 1
v -2 16 -0
v 2 16 -0
v -4 16 -1
v -3 16 -1
v -2 16 -1
v 2 16 -1
v 3 16 -1
v 4 16 -1
v -2 20 2
v 2 20 2
v -2 20 -2
v 2 20 -2

# faces
f 3/3/1 2/3/1 1/3/1
f 4/3/1 2/3/1 3/3/1
f 5/1/1 4/1/1 3/1/1
f 6/1/1 4/1/1 5/1/1
f 7/2/1 6/2/1 5/2/1
f 8/2/1 6/2/1 7/2/1
f 9/1/1 8/1/1 7/1/1
f 10/1/1 8/1/1 9/1/1
f 11/2/1 10/2/1 9/2/1
f 12/2/1 10/2/1 11/2/1
f 15/2/1 14/2/1 13/2/1
f 16/2/1 14/2/1 15/2/1
f 17/2/1 14/2/1 16/2/1
f 18/1/1 17/1/1 16/1/1
f 19/1/1 17/1/1 18/1/1
f 20/2/1 19/2/1 18/2/1
f 21/1/1 17/1/1 19/1/1
f 21/2/1 19/2/1 20/2/1
f 22/1/1 21/1/1 20/1/1
f 23/1/1 17/1/1 21/1/1
f 23/1/1 21/1/1 22/1/1
f 28/2/1 25/2/1 24/2/1
f 29/2/1 25/2/1 28/2/1
f 30/2/1 27/2/1 26/2/1
f 31/2/1 27/2/1 30/2/1
f 37/3/1 33/3/1 32/3/1
f 38/2/1 34/2/1 33/2/1
f 38/3/1 33/3/1 37/3/1
f 39/1/1 36/1/1 35/1/1
f 39/2/1 34/2/1 38/2/1
f 39/1/1 35/1/1 34/1/1
f 40/1/1 36/1/1 39/1/1
f 41/4/1 38/4/1 37/4/1
f 41/4/1 39/4/1 38/4/1
f 41/4/1 40/4/1 39/4/1
f 42/4/1 40/4/1 41/4/1
f 43/1/1 42/1/1 41/1/1
f 44/1/1 42/1/1 43/1/1
f 45/2/2 46/2/2 47/2/2
f 47/2/2 46/2/2 48/2/2
f 48/2/2 46/2/2 49/2/2
f 48/1/2 49/1/2 50/1/2
f 50/1/2 49/1/2 51/1/2
f 50/2/2 51/2/2 52/2/2
f 51/1/2 49/1/2 53/1/2
f 52/2/2 51/2/2 53/2/2
f 52/1/2 53/1/2 54/1/2
f 53/1/2 49/1/2 55/1/2
f 54/1/2 53/1/2 55/1/2
f 56/2/2 57/2/2 60/2/2
f 60/2/2 57/2/2 61/2/2
f 58/2/2 59/2/2 62/2/2
f 62/2/2 59/2/2 63/2/2
f 64/3/2 65/3/2 69/3/2
f 65/2/2 66/2/2 70/2/2
f 69/3/2 65/3/2 70/3/2
f 67/1/2 68/1/2 71/1/2
f 70/2/2 66/2/2 71/2/2
f 66/1/2 67/1/2 71/1/2
f 71/1/2 68/1/2 72/1/2
f 69/4/2 70/4/2 73/4/2
f 70/4/2 71/4/2 73/4/2
f 71/4/2 72/4/2 73/4/2
f 73/4/2 72/4/2 74/4/2
f 73/1/2 74/1/2 75/1/2
f 75/1/2 74/1/2 76/1/2
f 77/3/2 78/3/2 79/3/2
f 79/3/2 78/3/2 80/3/2
f 79/1/2 80/1/2 81/1/2
f 81/1/2 80/1/2 82/1/2
f 81/2/2 82/2/2 83/2/2
f 83/2/2 82/2/2 84/2/2
f 83/1/2 84/1/2 85/1/2
f 85/1/2 84/1/2 86/1/2
f 85/2/2 86/2/2 87/2/2
f 87/2/2 86/2/2 88/2/2
f 97/2/3 90/2/3 89/2/3
f 98/2/3 90/2/3 97/2/3
f 99/2/3 92/2/3 91/2/3
f 100/2/3 92/2/3 99/2/3
f 101/3/3 94/3/3 93/3/3
f 102/4/3 95/4/3 94/4/3
f 102/3/3 94/3/3 101/3/3
f 103/1/3 96/1/3 95/1/3
f 103/4/3 95/4/3 102/4/3
f 104/1/3 96/1/3 103/1/3
f 111/1/3 107/1/3 106/1/3
f 111/2/3 108/2/3 107/2/3
f 112/1/3 109/1/3 108/1/3
f 112/2/3 108/2/3 111/2/3
f 113/2/3 110/2/3 109/2/3
f 113/1/3 109/1/3 112/1/3
f 114/2/3 110/2/3 113/2/3
f 118/3/3 106/3/3 105/3/3
f 119/3/3 106/3/3 118/3/3
f 120/1/3 112/1/3 111/1/3
f 120/3/3 106/3/3 119/3/3
f 120/1/3 111/1/3 106/1/3
f 120/1/3 113/1/3 112/1/3
f 120/1/3 114/1/3 113/1/3
f 121/1/3 114/1/3 120/1/3
f 122/1/3 114/1/3 121/1/3
f 123/1/3 116/1/3 115/1/3
f 124/2/3 117/2/3 116/2/3
f 124/1/3 116/1/3 123/1/3
f 125/1/3 119/1/3 118/1/3
f 125/2/3 117/2/3 124/2/3
f 125/1/3 118/1/3 117/1/3
f 126/1/3 119/1/3 125/1/3
f 127/2/3 120/2/3 119/2/3
f 127/1/3 119/1/3 126/1/3
f 128/2/3 120/2/3 127/2/3
f 129/1/3 122/1/3 121/1/3
f 130/1/3 122/1/3 129/1/3
f 131/1/3 130/1/3 129/1/3
f 131/1/3 129/1/3 128/1/3
f 132/1/3 130/1/3 131/1/3
f 133/1/3 130/1/3 132/1/3
f 134/1/3 130/1/3 133/1/3
f 135/3/3 128/3/3 127/3/3
f 135/3/3 127/3/3 126/3/3
f 136/1/3 131/1/3 128/1/3
f 136/3/3 128/3/3 135/3/3
f 137/2/3 132/2/3 131/2/3
f 137/1/3 131/1/3 136/1/3
f 138/1/3 133/1/3 132/1/3
f 138/2/3 132/2/3 137/2/3
f 139/2/3 134/2/3 133/2/3
f 139/1/3 133/1/3 138/1/3
f 140/2/3 134/2/3 139/2/3
f 142/1/4 143/1/4 147/1/4
f 143/2/4 144/2/4 147/2/4
f 144/1/4 145/1/4 148/1/4
f 147/2/4 144/2/4 148/2/4
f 145/2/4 146/2/4 149/2/4
f 148/1/4 145/1/4 149/1/4
f 149/2/4 146/2/4 150/2/4
f 141/3/4 142/3/4 153/3/4
f 153/3/4 142/3/4 154/3/4
f 147/1/4 148/1/4 155/1/4
f 154/3/4 142/3/4 155/3/4
f 142/1/4 147/1/4 155/1/4
f 148/1/4 149/1/4 155/1/4
f 149/1/4 150/1/4 155/1/4
f 155/1/4 150/1/4 156/1/4
f 156/1/4 150/1/4 157/1/4
f 151/2/4 152/2/4 158/2/4
f 153/1/4 154/1/4 159/1/4
f 158/2/4 152/2/4 159/2/4
f 152/1/4 153/1/4 159/1/4
f 159/1/4 154/1/4 160/1/4
f 154/2/4 155/2/4 161/2/4
f 160/1/4 154/1/4 161/1/4
f 161/2/4 155/2/4 162/2/4
f 156/1/4 157/1/4 163/1/4
f 163/1/4 157/1/4 164/1/4
f 163/1/4 164/1/4 165/1/4
f 162/1/4 163/1/4 165/1/4
f 165/1/4 164/1/4 166/1/4
f 166/1/4 164/1/4 167/1/4
f 167/1/4 164/1/4 168/1/4
f 161/3/4 162/3/4 169/3/4
f 160/3/4 161/3/4 169/3/4
f 162/1/4 165/1/4 170/1/4
f 169/3/4 162/3/4 170/3/4
f 165/2/4 166/2/4 171/2/4
f 170/1/4 165/1/4 171/1/4
f 166/1/4 167/1/4 172/1/4
f 171/2/4 166/2/4 172/2/4
f 167/2/4 168/2/4 173/2/4
f 172/1/4 167/1/4 173/1/4
f 173/2/4 168/2/4 174/2/4
f 175/2/4 176/2/4 181/2/4
f 181/2/4 176/2/4 182/2/4
f 177/1/4 178/1/4 183/1/4
f 178/4/4 179/4/4 184/4/4
f 183/1/4 178/1/4 184/1/4
f 179/1/4 180/1/4 185/1/4
f 184/4/4 179/4/4 185/4/4
f 185/1/4 180/1/4 186/1/4
f 189/2/5 188/2/5 187/2/5
f 190/2/5 188/2/5 189/2/5
f 195/3/5 192/3/5 191/3/5
f 196/3/5 192/3/5 195/3/5
f 197/3/5 194/3/5 193/3/5
f 198/3/5 194/3/5 197/3/5
f 201/2/5 200/2/5 199/2/5
f 202/2/5 200/2/5 201/2/5
f 205/2/5 204/2/5 203/2/5
f 206/2/5 204/2/5 205/2/5
f 209/3/5 208/3/5 207/3/5
f 210/3/5 208/3/5 209/3/5
f 213/1/5 212/1/5 211/1/5
f 214/1/5 212/1/5 213/1/5
f 215/2/6 216/2/6 217/2/6
f 217/2/6 216/2/6 218/2/6
f 219/2/6 220/2/6 221/2/6
f 221/2/6 220/2/6 222/2/6
f 223/2/6 224/2/6 225/2/6
f 225/2/6 224/2/6 226/2/6
f 228/1/6 229/1/6 233/1/6
f 230/1/6 231/1/6 234/1/6
f 227/2/6 228/2/6 235/2/6
f 228/1/6 233/1/6 236/1/6
f 235/2/6 228/2/6 236/2/6
f 236/1/6 233/1/6 237/1/6
f 234/1/6 231/1/6 238/1/6
f 231/2/6 232/2/6 239/2/6
f 238/1/6 231/1/6 239/1/6
f 239/2/6 232/2/6 240/2/6
f 241/1/6 242/1/6 243/1/6
f 243/1/6 242/1/6 244/1/6
