# MagicaVoxel @ Ephtracy

# group
g PROT

# material
mtllib PROT.mtl
usemtl palette

# normals
vn -1 0 0
vn 1 0 0
vn 0 0 1
vn 0 0 -1
vn 0 -1 0
vn 0 1 0

# texcoords
vt 0.974609 0.5
vt 0.978516 0.5
vt 0.982422 0.5
vt 0.986328 0.5
vt 0.990234 0.5
vt 0.994141 0.5

# verts
v -4 8 1
v -4 8 -1
v -4 10 1
v -4 10 -1
v -4 16 1
v -4 16 -1
v -2 0 2
v -2 0 -1
v -2 2 2
v -2 2 1
v -2 2 -1
v -2 8 1
v -2 8 -1
v -2 10 2
v -2 10 1
v -2 10 -1
v -2 10 -2
v -2 14 1
v -2 14 -1
v -2 15 2
v -2 15 1
v -2 15 -1
v -2 15 -2
v -2 16 2
v -2 16 1
v -2 16 -0
v -2 16 -1
v -2 16 -2
v -2 18 -0
v -2 18 -2
v -2 19 2
v -2 19 -0
v -2 19 -2
v -2 20 2
v -2 20 -2
v 2 0 2
v 2 0 -1
v 2 2 2
v 2 2 1
v 2 2 -1
v 2 8 1
v 2 8 -1
v 2 10 2
v 2 10 1
v 2 10 -1
v 2 10 -2
v 2 14 1
v 2 14 -1
v 2 15 2
v 2 15 1
v 2 15 -1
v 2 15 -2
v 2 16 2
v 2 16 1
v 2 16 -0
v 2 16 -1
v 2 16 -2
v 2 18 -0
v 2 18 -2
v 2 19 2
v 2 19 -0
v 2 19 -2
v 2 20 2
v 2 20 -2
v 4 8 1
v 4 8 -1
v 4 10 1
v 4 10 -1
v 4 16 1
v 4 16 -1
v -2 0 2
v -2 2 2
v -2 10 2
v -2 15 2
v -2 16 2
v -2 19 2
v -2 20 2
v 2 0 2
v 2 2 2
v 2 10 2
v 2 15 2
v 2 16 2
v 2 19 2
v 2 20 2
v -4 8 1
v -4 10 1
v -4 16 1
v -3 14 1
v -3 16 1
v -2 2 1
v -2 8 1
v -2 9 1
v -2 10 1
v -2 14 1
v -2 15 1
v -2 16 1
v 2 2 1
v 2 8 1
v 2 9 1
v 2 10 1
v 2 14 1
v 2 15 1
v 2 16 1
v 3 14 1
v 3 16 1
v 4 8 1
v 4 10 1
v 4 16 1
v -4 8 -1
v -4 10 -1
v -4 16 -1
v -3 14 -1
v -3 16 -1
v -2 0 -1
v -2 2 -1
v -2 8 -1
v -2 9 -1
v -2 10 -1
v -2 14 -1
v -2 15 -1
v -2 16 -1
v 2 0 -1
v 2 2 -1
v 2 8 -1
v 2 9 -1
v 2 10 -1
v 2 14 -1
v 2 15 -1
v 2 16 -1
v 3 14 -1
v 3 16 -1
v 4 8 -1
v 4 10 -1
v 4 16 -1
v -2 10 -2
v -2 15 -2
v -2 16 -2
v -2 18 -2
v -2 19 -2
v -2 20 -2
v 2 10 -2
v 2 15 -2
v 2 16 -2
v 2 18 -2
v 2 19 -2
v 2 20 -2
v -2 0 2
v 2 0 2
v -2 0 -1
v 2 0 -1
v -4 8 1
v -2 8 1
v 2 8 1
v 4 8 1
v -4 8 -1
v -2 8 -1
v 2 8 -1
v 4 8 -1
v -2 10 2
v 2 10 2
v -2 10 1
v 2 10 1
v -2 10 -1
v 2 10 -1
v -2 10 -2
v 2 10 -2
v -2 16 2
v 2 16 2
v -2 16 1
v 2 16 1
v -2 16 -1
v 2 16 -1
v -2 16 -2
v 2 16 -2
v -2 2 2
v 2 2 2
v -2 2 1
v 2 2 1
v -2 15 2
v 2 15 2
v -2 15 1
v 2 15 1
v -2 15 -1
v 2 15 -1
v -2 15 -2
v 2 15 -2
v -4 16 1
v -3 16 1
v -2 16 1
v 2 16 1
v 3 16 1
v 4 16 1
v -2 16 -0
v 2 16 -0
v -4 16 -1
v -3 16 -1
v -2 16 -1
v 2 16 -1
v 3 16 -1
v 4 16 -1
v -2 20 2
v 2 20 2
v -2 20 -2
v 2 20 -2

# faces
f 3/3/1 2/3/1 1/3/1
f 4/3/1 2/3/1 3/3/1
f 5/1/1 4/1/1 3/1/1
f 6/1/1 4/1/1 5/1/1
f 9/5/1 8/5/1 7/5/1
f 10/5/1 8/5/1 9/5/1
f 11/5/1 8/5/1 10/5/1
f 12/6/1 11/6/1 10/6/1
f 13/6/1 11/6/1 12/6/1
f 18/2/1 15/2/1 14/2/1
f 19/2/1 17/2/1 16/2/1
f 20/2/1 18/2/1 14/2/1
f 21/2/1 18/2/1 20/2/1
f 22/2/1 17/2/1 19/2/1
f 23/2/1 17/2/1 22/2/1
f 29/3/1 25/3/1 24/3/1
f 29/1/1 28/1/1 27/1/1
f 29/1/1 27/1/1 26/1/1
f 29/3/1 26/3/1 25/3/1
f 30/1/1 28/1/1 29/1/1
f 31/3/1 29/3/1 24/3/1
f 32/4/1 30/4/1 29/4/1
f 32/3/1 29/3/1 31/3/1
f 33/4/1 30/4/1 32/4/1
f 34/1/1 32/1/1 31/1/1
f 34/1/1 33/1/1 32/1/1
f 35/1/1 33/1/1 34/1/1
f 36/5/2 37/5/2 38/5/2
f 38/5/2 37/5/2 39/5/2
f 39/5/2 37/5/2 40/5/2
f 39/6/2 40/6/2 41/6/2
f 41/6/2 40/6/2 42/6/2
f 43/2/2 44/2/2 47/2/2
f 45/2/2 46/2/2 48/2/2
f 43/2/2 47/2/2 49/2/2
f 49/2/2 47/2/2 50/2/2
f 48/2/2 46/2/2 51/2/2
f 51/2/2 46/2/2 52/2/2
f 53/3/2 54/3/2 58/3/2
f 56/1/2 57/1/2 58/1/2
f 55/1/2 56/1/2 58/1/2
f 54/3/2 55/3/2 58/3/2
f 58/1/2 57/1/2 59/1/2
f 53/3/2 58/3/2 60/3/2
f 58/4/2 59/4/2 61/4/2
f 60/3/2 58/3/2 61/3/2
f 61/4/2 59/4/2 62/4/2
f 60/1/2 61/1/2 63/1/2
f 61/1/2 62/1/2 63/1/2
f 63/1/2 62/1/2 64/1/2
f 65/3/2 66/3/2 67/3/2
f 67/3/2 66/3/2 68/3/2
f 67/1/2 68/1/2 69/1/2
f 69/1/2 68/1/2 70/1/2
f 78/5/3 72/5/3 71/5/3
f 79/5/3 72/5/3 78/5/3
f 80/2/3 74/2/3 73/2/3
f 81/2/3 74/2/3 80/2/3
f 82/3/3 76/3/3 75/3/3
f 83/1/3 77/1/3 76/1/3
f 83/3/3 76/3/3 82/3/3
f 84/1/3 77/1/3 83/1/3
f 88/1/3 87/1/3 86/1/3
f 89/1/3 87/1/3 88/1/3
f 91/3/3 86/3/3 85/3/3
f 92/3/3 86/3/3 91/3/3
f 93/1/3 88/1/3 86/1/3
f 93/3/3 86/3/3 92/3/3
f 94/2/3 89/2/3 88/2/3
f 94/1/3 88/1/3 93/1/3
f 95/2/3 89/2/3 94/2/3
f 96/2/3 89/2/3 95/2/3
f 97/6/3 92/6/3 91/6/3
f 97/6/3 91/6/3 90/6/3
f 98/6/3 92/6/3 97/6/3
f 99/5/3 93/5/3 92/5/3
f 99/6/3 92/6/3 98/6/3
f 100/5/3 93/5/3 99/5/3
f 102/1/3 96/1/3 95/1/3
f 103/1/3 96/1/3 102/1/3
f 104/1/3 101/1/3 100/1/3
f 104/2/3 103/2/3 102/2/3
f 104/2/3 102/2/3 101/2/3
f 105/2/3 103/2/3 104/2/3
f 106/3/3 99/3/3 98/3/3
f 106/3/3 100/3/3 99/3/3
f 107/1/3 105/1/3 104/1/3
f 107/3/3 100/3/3 106/3/3
f 107/1/3 104/1/3 100/1/3
f 108/1/3 105/1/3 107/1/3
f 110/1/4 111/1/4 112/1/4
f 112/1/4 111/1/4 113/1/4
f 109/3/4 110/3/4 116/3/4
f 116/3/4 110/3/4 117/3/4
f 110/1/4 112/1/4 118/1/4
f 117/3/4 110/3/4 118/3/4
f 112/2/4 113/2/4 119/2/4
f 118/1/4 112/1/4 119/1/4
f 119/2/4 113/2/4 120/2/4
f 120/2/4 113/2/4 121/2/4
f 114/5/4 115/5/4 122/5/4
f 116/6/4 117/6/4 123/6/4
f 122/5/4 115/5/4 123/5/4
f 115/6/4 116/6/4 123/6/4
f 123/6/4 117/6/4 124/6/4
f 117/5/4 118/5/4 125/5/4
f 124/6/4 117/6/4 125/6/4
f 125/5/4 118/5/4 126/5/4
f 120/1/4 121/1/4 128/1/4
f 128/1/4 121/1/4 129/1/4
f 126/1/4 127/1/4 130/1/4
f 128/2/4 129/2/4 130/2/4
f 127/2/4 128/2/4 130/2/4
f 130/2/4 129/2/4 131/2/4
f 125/3/4 126/3/4 132/3/4
f 124/3/4 125/3/4 132/3/4
f 130/1/4 131/1/4 133/1/4
f 132/3/4 126/3/4 133/3/4
f 126/1/4 130/1/4 133/1/4
f 133/1/4 131/1/4 134/1/4
f 135/2/4 136/2/4 141/2/4
f 141/2/4 136/2/4 142/2/4
f 137/1/4 138/1/4 143/1/4
f 138/4/4 139/4/4 144/4/4
f 143/1/4 138/1/4 144/1/4
f 139/1/4 140/1/4 145/1/4
f 144/4/4 139/4/4 145/4/4
f 145/1/4 140/1/4 146/1/4
f 149/5/5 148/5/5 147/5/5
f 150/5/5 148/5/5 149/5/5
f 155/3/5 152/3/5 151/3/5
f 156/3/5 152/3/5 155/3/5
f 157/3/5 154/3/5 153/3/5
f 158/3/5 154/3/5 157/3/5
f 161/2/5 160/2/5 159/2/5
f 162/2/5 160/2/5 161/2/5
f 165/2/5 164/2/5 163/2/5
f 166/2/5 164/2/5 165/2/5
f 169/3/5 168/3/5 167/3/5
f 170/3/5 168/3/5 169/3/5
f 173/1/5 172/1/5 171/1/5
f 174/1/5 172/1/5 173/1/5
f 175/5/6 176/5/6 177/5/6
f 177/5/6 176/5/6 178/5/6
f 179/2/6 180/2/6 181/2/6
f 181/2/6 180/2/6 182/2/6
f 183/2/6 184/2/6 185/2/6
f 185/2/6 184/2/6 186/2/6
f 188/2/6 189/2/6 193/2/6
f 190/2/6 191/2/6 194/2/6
f 187/1/6 188/1/6 195/1/6
f 188/2/6 193/2/6 196/2/6
f 195/1/6 188/1/6 196/1/6
f 196/2/6 193/2/6 197/2/6
f 194/2/6 191/2/6 198/2/6
f 191/1/6 192/1/6 199/1/6
f 198/2/6 191/2/6 199/2/6
f 199/1/6 192/1/6 200/1/6
f 201/1/6 202/1/6 203/1/6
f 203/1/6 202/1/6 204/1/6
