# MagicaVoxel @ Ephtracy

# group
o 

# material
mtllib Rue_modele_marquage_sol.mtl
usemtl palette

# normals
vn -1 0 0
vn 1 0 0
vn 0 0 1
vn 0 0 -1
vn 0 -1 0
vn 0 1 0

# texcoords
vt 0.927734 0.5
vt 0.935547 0.5
vt 0.958984 0.5

# verts
v 0 2 0
v 0 2 -5
v 0 2.1 0
v 0 2.1 -0.7
v 0 2.1 -1.1
v 0 2.1 -3.9
v 0 2.1 -4.3
v 0 2.1 -5
v 0 2.2 -1
v 0 2.2 -1.1
v 0 2.2 -3.9
v 0 2.2 -4
v 0 2.3 0
v 0 2.3 -0.7
v 0 2.3 -1
v 0 2.3 -4
v 0 2.3 -4.3
v 0 2.3 -5
v 10 2 0
v 10 2 -5
v 10 2.1 0
v 10 2.1 -0.7
v 10 2.1 -1.1
v 10 2.1 -3.9
v 10 2.1 -4.3
v 10 2.1 -5
v 10 2.2 -1
v 10 2.2 -1.1
v 10 2.2 -3.9
v 10 2.2 -4
v 10 2.3 0
v 10 2.3 -0.7
v 10 2.3 -1
v 10 2.3 -4
v 10 2.3 -4.3
v 10 2.3 -5
v 0 2 0
v 0 2.1 0
v 0 2.3 0
v 10 2 0
v 10 2.1 0
v 10 2.3 0
v 0 2.1 -3.9
v 0 2.2 -3.9
v 7.5 2.1 -3.9
v 9.4 2.1 -3.9
v 10 2.1 -3.9
v 10 2.2 -3.9
v 0 2.2 -4
v 0 2.3 -4
v 10 2.2 -4
v 10 2.3 -4
v 0 2.2 -1
v 0 2.3 -1
v 10 2.2 -1
v 10 2.3 -1
v 0 2.1 -1.1
v 0 2.2 -1.1
v 7.5 2.1 -1.1
v 9.4 2.1 -1.1
v 10 2.1 -1.1
v 10 2.2 -1.1
v 0 2 -5
v 0 2.1 -5
v 0 2.3 -5
v 10 2 -5
v 10 2.1 -5
v 10 2.3 -5
v 0 2 0
v 10 2 0
v 7.5 2 -1.1
v 9.4 2 -1.1
v 7.5 2 -1.4
v 9.4 2 -1.4
v 7.5 2 -1.6
v 9.4 2 -1.6
v 7.5 2 -1.9
v 9.4 2 -1.9
v 7.5 2 -2.1
v 9.4 2 -2.1
v 7.5 2 -2.4
v 9.4 2 -2.4
v 7.5 2 -2.6
v 9.4 2 -2.6
v 7.5 2 -2.9
v 9.4 2 -2.9
v 7.5 2 -3.1
v 9.4 2 -3.1
v 7.5 2 -3.4
v 9.4 2 -3.4
v 7.5 2 -3.6
v 9.4 2 -3.6
v 7.5 2 -3.9
v 9.4 2 -3.9
v 0 2 -5
v 10 2 -5
v 0 2.1 -1.1
v 7.5 2.1 -1.1
v 9.4 2.1 -1.1
v 10 2.1 -1.1
v 7.5 2.1 -1.4
v 9.4 2.1 -1.4
v 7.5 2.1 -1.6
v 9.4 2.1 -1.6
v 7.5 2.1 -1.9
v 9.4 2.1 -1.9
v 7.5 2.1 -2.1
v 9.4 2.1 -2.1
v 7.5 2.1 -2.4
v 9.4 2.1 -2.4
v 7.5 2.1 -2.6
v 9.4 2.1 -2.6
v 7.5 2.1 -2.9
v 9.4 2.1 -2.9
v 7.5 2.1 -3.1
v 9.4 2.1 -3.1
v 7.5 2.1 -3.4
v 9.4 2.1 -3.4
v 7.5 2.1 -3.6
v 9.4 2.1 -3.6
v 0 2.1 -3.9
v 7.5 2.1 -3.9
v 9.4 2.1 -3.9
v 10 2.1 -3.9
v 0 2.2 -1
v 10 2.2 -1
v 0 2.2 -1.1
v 10 2.2 -1.1
v 0 2.2 -3.9
v 10 2.2 -3.9
v 0 2.2 -4
v 10 2.2 -4
v 0 2.3 0
v 10 2.3 0
v 0 2.3 -0.7
v 10 2.3 -0.7
v 0 2.3 -1
v 10 2.3 -1
v 0 2.3 -4
v 10 2.3 -4
v 0 2.3 -4.3
v 10 2.3 -4.3
v 0 2.3 -5
v 10 2.3 -5

# faces
f 3/2/1 2/2/1 1/2/1
f 4/2/1 2/2/1 3/2/1
f 5/2/1 2/2/1 4/2/1
f 6/2/1 2/2/1 5/2/1
f 7/2/1 2/2/1 6/2/1
f 8/2/1 2/2/1 7/2/1
f 9/2/1 5/2/1 4/2/1
f 10/2/1 5/2/1 9/2/1
f 11/2/1 7/2/1 6/2/1
f 12/2/1 7/2/1 11/2/1
f 13/1/1 4/1/1 3/1/1
f 14/2/1 9/2/1 4/2/1
f 14/1/1 4/1/1 13/1/1
f 15/2/1 9/2/1 14/2/1
f 16/2/1 7/2/1 12/2/1
f 17/1/1 8/1/1 7/1/1
f 17/2/1 7/2/1 16/2/1
f 18/1/1 8/1/1 17/1/1
f 19/2/2 20/2/2 21/2/2
f 21/2/2 20/2/2 22/2/2
f 22/2/2 20/2/2 23/2/2
f 23/2/2 20/2/2 24/2/2
f 24/2/2 20/2/2 25/2/2
f 25/2/2 20/2/2 26/2/2
f 22/2/2 23/2/2 27/2/2
f 27/2/2 23/2/2 28/2/2
f 24/2/2 25/2/2 29/2/2
f 29/2/2 25/2/2 30/2/2
f 21/1/2 22/1/2 31/1/2
f 22/2/2 27/2/2 32/2/2
f 31/1/2 22/1/2 32/1/2
f 32/2/2 27/2/2 33/2/2
f 30/2/2 25/2/2 34/2/2
f 25/1/2 26/1/2 35/1/2
f 34/2/2 25/2/2 35/2/2
f 35/1/2 26/1/2 36/1/2
f 40/2/3 38/2/3 37/2/3
f 41/1/3 39/1/3 38/1/3
f 41/2/3 38/2/3 40/2/3
f 42/1/3 39/1/3 41/1/3
f 45/2/3 44/2/3 43/2/3
f 46/2/3 44/2/3 45/2/3
f 47/2/3 44/2/3 46/2/3
f 48/2/3 44/2/3 47/2/3
f 51/2/3 50/2/3 49/2/3
f 52/2/3 50/2/3 51/2/3
f 53/2/4 54/2/4 55/2/4
f 55/2/4 54/2/4 56/2/4
f 57/2/4 58/2/4 59/2/4
f 59/2/4 58/2/4 60/2/4
f 60/2/4 58/2/4 61/2/4
f 61/2/4 58/2/4 62/2/4
f 63/2/4 64/2/4 66/2/4
f 64/1/4 65/1/4 67/1/4
f 66/2/4 64/2/4 67/2/4
f 67/1/4 65/1/4 68/1/4
f 71/2/5 70/2/5 69/2/5
f 72/2/5 70/2/5 71/2/5
f 73/2/5 71/2/5 69/2/5
f 73/3/5 72/3/5 71/3/5
f 74/2/5 70/2/5 72/2/5
f 74/3/5 72/3/5 73/3/5
f 75/2/5 73/2/5 69/2/5
f 75/2/5 74/2/5 73/2/5
f 76/2/5 70/2/5 74/2/5
f 76/2/5 74/2/5 75/2/5
f 77/2/5 75/2/5 69/2/5
f 77/3/5 76/3/5 75/3/5
f 78/2/5 70/2/5 76/2/5
f 78/3/5 76/3/5 77/3/5
f 79/2/5 77/2/5 69/2/5
f 79/2/5 78/2/5 77/2/5
f 80/2/5 70/2/5 78/2/5
f 80/2/5 78/2/5 79/2/5
f 81/2/5 79/2/5 69/2/5
f 81/3/5 80/3/5 79/3/5
f 82/2/5 70/2/5 80/2/5
f 82/3/5 80/3/5 81/3/5
f 83/2/5 81/2/5 69/2/5
f 83/2/5 82/2/5 81/2/5
f 84/2/5 70/2/5 82/2/5
f 84/2/5 82/2/5 83/2/5
f 85/2/5 83/2/5 69/2/5
f 85/3/5 84/3/5 83/3/5
f 86/2/5 70/2/5 84/2/5
f 86/3/5 84/3/5 85/3/5
f 87/2/5 85/2/5 69/2/5
f 87/2/5 86/2/5 85/2/5
f 88/2/5 70/2/5 86/2/5
f 88/2/5 86/2/5 87/2/5
f 89/2/5 87/2/5 69/2/5
f 89/3/5 88/3/5 87/3/5
f 90/2/5 70/2/5 88/2/5
f 90/3/5 88/3/5 89/3/5
f 91/2/5 89/2/5 69/2/5
f 91/2/5 90/2/5 89/2/5
f 92/2/5 70/2/5 90/2/5
f 92/2/5 90/2/5 91/2/5
f 93/2/5 91/2/5 69/2/5
f 93/3/5 92/3/5 91/3/5
f 94/2/5 70/2/5 92/2/5
f 94/3/5 92/3/5 93/3/5
f 95/2/5 93/2/5 69/2/5
f 95/2/5 94/2/5 93/2/5
f 96/2/5 70/2/5 94/2/5
f 96/2/5 94/2/5 95/2/5
f 97/2/6 98/2/6 101/2/6
f 98/3/6 99/3/6 101/3/6
f 99/2/6 100/2/6 102/2/6
f 101/3/6 99/3/6 102/3/6
f 97/2/6 101/2/6 103/2/6
f 101/2/6 102/2/6 103/2/6
f 102/2/6 100/2/6 104/2/6
f 103/2/6 102/2/6 104/2/6
f 97/2/6 103/2/6 105/2/6
f 103/3/6 104/3/6 105/3/6
f 104/2/6 100/2/6 106/2/6
f 105/3/6 104/3/6 106/3/6
f 97/2/6 105/2/6 107/2/6
f 105/2/6 106/2/6 107/2/6
f 106/2/6 100/2/6 108/2/6
f 107/2/6 106/2/6 108/2/6
f 97/2/6 107/2/6 109/2/6
f 107/3/6 108/3/6 109/3/6
f 108/2/6 100/2/6 110/2/6
f 109/3/6 108/3/6 110/3/6
f 97/2/6 109/2/6 111/2/6
f 109/2/6 110/2/6 111/2/6
f 110/2/6 100/2/6 112/2/6
f 111/2/6 110/2/6 112/2/6
f 97/2/6 111/2/6 113/2/6
f 111/3/6 112/3/6 113/3/6
f 112/2/6 100/2/6 114/2/6
f 113/3/6 112/3/6 114/3/6
f 97/2/6 113/2/6 115/2/6
f 113/2/6 114/2/6 115/2/6
f 114/2/6 100/2/6 116/2/6
f 115/2/6 114/2/6 116/2/6
f 97/2/6 115/2/6 117/2/6
f 115/3/6 116/3/6 117/3/6
f 116/2/6 100/2/6 118/2/6
f 117/3/6 116/3/6 118/3/6
f 97/2/6 117/2/6 119/2/6
f 117/2/6 118/2/6 119/2/6
f 118/2/6 100/2/6 120/2/6
f 119/2/6 118/2/6 120/2/6
f 97/2/6 119/2/6 121/2/6
f 119/3/6 120/3/6 122/3/6
f 121/2/6 119/2/6 122/2/6
f 120/2/6 100/2/6 123/2/6
f 122/3/6 120/3/6 123/3/6
f 123/2/6 100/2/6 124/2/6
f 125/2/6 126/2/6 127/2/6
f 127/2/6 126/2/6 128/2/6
f 129/2/6 130/2/6 131/2/6
f 131/2/6 130/2/6 132/2/6
f 133/1/6 134/1/6 135/1/6
f 135/1/6 134/1/6 136/1/6
f 135/2/6 136/2/6 137/2/6
f 137/2/6 136/2/6 138/2/6
f 139/2/6 140/2/6 141/2/6
f 141/2/6 140/2/6 142/2/6
f 141/1/6 142/1/6 143/1/6
f 143/1/6 142/1/6 144/1/6
