# MagicaVoxel @ Ephtracy

# group
g Voiture_04

# material
mtllib Voiture_04.mtl
usemtl palette

# normals
vn -1 0 0
vn 1 0 0
vn 0 0 1
vn 0 0 -1
vn 0 -1 0
vn 0 1 0

# texcoords
vt 0.00976563 0.5
vt 0.447266 0.5
vt 0.751953 0.5
vt 0.845703 0.5
vt 0.853516 0.5
vt 0.958984 0.5
vt 0.966797 0.5
vt 0.974609 0.5
vt 0.978516 0.5
vt 0.982422 0.5
vt 0.986328 0.5
vt 0.990234 0.5
vt 0.994141 0.5

# verts
v -13 1 5
v -13 1 -5
v -13 2 5
v -13 2 -5
v -12 2 5
v -12 2 3
v -12 2 2
v -12 2 -2
v -12 2 -3
v -12 2 -5
v -12 3 2
v -12 3 -2
v -12 4 5
v -12 4 3
v -12 4 -3
v -12 4 -5
v -12 5 5
v -12 5 3
v -12 5 -3
v -12 5 -5
v -11 0 6
v -11 0 4
v -11 0 -4
v -11 0 -6
v -11 1 5
v -11 1 4
v -11 1 -4
v -11 1 -5
v -11 2 5
v -11 2 -5
v -11 3 6
v -11 3 5
v -11 3 -5
v -11 3 -6
v -8 1 4
v -8 1 -4
v -8 3 4
v -8 3 -4
v -7 5 5
v -7 5 4
v -7 5 2
v -7 5 1
v -7 5 -2
v -7 5 -3
v -7 5 -4
v -7 5 -5
v -7 6 5
v -7 6 4
v -7 6 2
v -7 6 1
v -7 6 -2
v -7 6 -3
v -7 6 -4
v -7 6 -5
v -6 6 5
v -6 6 4
v -6 6 2
v -6 6 1
v -6 6 -2
v -6 6 -3
v -6 6 -4
v -6 6 -5
v -6 7 5
v -6 7 4
v -6 7 -4
v -6 7 -5
v -5 6 6
v -5 6 5
v -5 6 -5
v -5 6 -6
v -5 7 6
v -5 7 5
v -5 7 4
v -5 7 -1
v -5 7 -2
v -5 7 -4
v -5 7 -5
v -5 7 -6
v -5 8 4
v -5 8 -1
v -5 8 -2
v -5 8 -4
v -5 9 5
v -5 9 -5
v -3 5 1
v -3 5 -0
v -3 6 1
v -3 6 -0
v -1 4 4
v -1 4 -4
v -1 5 4
v -1 5 -4
v 1 5 4
v 1 5 1
v 1 5 -4
v 1 6 4
v 1 6 1
v 1 6 -4
v 2 6 4
v 2 6 1
v 2 6 -4
v 2 8 4
v 2 8 -4
v 3 0 6
v 3 0 4
v 3 0 -4
v 3 0 -6
v 3 1 5
v 3 1 4
v 3 1 -4
v 3 1 -5
v 3 2 5
v 3 2 -5
v 3 3 6
v 3 3 5
v 3 3 -5
v 3 3 -6
v 6 1 4
v 6 1 -4
v 6 2 4
v 6 2 -4
v 11 3 4
v 11 3 -4
v 11 5 4
v 11 5 -4
v -11 1 4
v -11 1 -4
v -11 2 4
v -11 2 3
v -11 2 2
v -11 2 -2
v -11 2 -3
v -11 2 -4
v -11 3 4
v -11 3 3
v -11 3 2
v -11 3 -2
v -11 3 -3
v -11 3 -4
v -8 0 6
v -8 0 4
v -8 0 -4
v -8 0 -6
v -8 1 5
v -8 1 4
v -8 1 -4
v -8 1 -5
v -8 2 5
v -8 2 -5
v -8 3 6
v -8 3 5
v -8 3 -5
v -8 3 -6
v -6 5 4
v -6 5 2
v -6 5 1
v -6 5 -2
v -6 5 -3
v -6 5 -4
v -6 6 4
v -6 6 2
v -6 6 1
v -6 6 -2
v -6 6 -3
v -6 6 -4
v -5 4 4
v -5 4 1
v -5 4 -1
v -5 4 -4
v -5 5 4
v -5 5 1
v -5 5 -1
v -5 5 -4
v -5 6 4
v -5 6 -4
v -5 7 4
v -5 7 -1
v -5 7 -2
v -5 7 -4
v -4 6 6
v -4 6 5
v -4 6 -5
v -4 6 -6
v -4 7 6
v -4 7 5
v -4 7 4
v -4 7 -1
v -4 7 -2
v -4 7 -4
v -4 7 -5
v -4 7 -6
v -4 8 4
v -4 8 -1
v -4 8 -2
v -4 8 -4
v -2 4 1
v -2 4 -1
v -2 5 -0
v -2 5 -1
v -2 6 1
v -2 6 -0
v 3 1 4
v 3 1 -4
v 3 2 4
v 3 2 -4
v 3 3 3
v 3 3 -3
v 3 4 4
v 3 4 3
v 3 4 -3
v 3 4 -4
v 3 5 5
v 3 5 4
v 3 5 -4
v 3 5 -5
v 3 6 4
v 3 6 -4
v 3 8 4
v 3 8 -4
v 3 9 5
v 3 9 -5
v 6 0 6
v 6 0 4
v 6 0 -4
v 6 0 -6
v 6 1 5
v 6 1 4
v 6 1 -4
v 6 1 -5
v 6 2 5
v 6 2 -5
v 6 3 6
v 6 3 5
v 6 3 4
v 6 3 3
v 6 3 -3
v 6 3 -4
v 6 3 -5
v 6 3 -6
v 6 4 4
v 6 4 3
v 6 4 -3
v 6 4 -4
v 12 3 5
v 12 3 4
v 12 3 -4
v 12 3 -5
v 12 5 5
v 12 5 -5
v 13 1 5
v 13 1 -5
v 13 2 5
v 13 2 4
v 13 2 -4
v 13 2 -5
v 13 3 5
v 13 3 4
v 13 3 -4
v 13 3 -5
v -11 0 6
v -11 3 6
v -10 1 6
v -10 2 6
v -9 1 6
v -9 2 6
v -8 0 6
v -8 3 6
v -5 6 6
v -5 7 6
v -4 6 6
v -4 7 6
v 3 0 6
v 3 3 6
v 4 1 6
v 4 2 6
v 5 1 6
v 5 2 6
v 6 0 6
v 6 3 6
v -13 1 5
v -13 2 5
v -12 2 5
v -12 4 5
v -12 5 5
v -11 1 5
v -11 2 5
v -11 3 5
v -11 4 5
v -11 5 5
v -8 1 5
v -8 2 5
v -8 3 5
v -8 4 5
v -7 5 5
v -7 6 5
v -6 6 5
v -6 7 5
v -5 2 5
v -5 6 5
v -5 7 5
v -5 9 5
v -4 2 5
v -4 6 5
v -4 7 5
v -4 8 5
v 1 6 5
v 1 8 5
v 3 1 5
v 3 2 5
v 3 3 5
v 3 4 5
v 3 5 5
v 3 9 5
v 6 1 5
v 6 2 5
v 6 3 5
v 6 4 5
v 12 2 5
v 12 3 5
v 12 5 5
v 13 1 5
v 13 2 5
v 13 3 5
v -5 4 1
v -5 5 1
v -3 5 1
v -3 6 1
v -2 4 1
v -2 6 1
v 3 3 -3
v 3 4 -3
v 6 3 -3
v 6 4 -3
v -11 0 -4
v -11 1 -4
v -11 2 -4
v -11 3 -4
v -10 1 -4
v -10 2 -4
v -8 0 -4
v -8 1 -4
v -8 3 -4
v -6 5 -4
v -6 6 -4
v -5 4 -4
v -5 5 -4
v -5 6 -4
v -5 7 -4
v -4 4 -4
v -4 6 -4
v -4 7 -4
v -4 8 -4
v -1 4 -4
v -1 5 -4
v 1 5 -4
v 1 6 -4
v 1 8 -4
v 2 6 -4
v 2 8 -4
v 3 0 -4
v 3 1 -4
v 3 2 -4
v 3 4 -4
v 3 5 -4
v 6 0 -4
v 6 1 -4
v 6 2 -4
v 6 3 -4
v 6 4 -4
v 11 3 -4
v 11 5 -4
v -11 0 4
v -11 1 4
v -11 2 4
v -11 3 4
v -8 0 4
v -8 1 4
v -8 3 4
v -6 5 4
v -6 6 4
v -5 4 4
v -5 5 4
v -5 6 4
v -5 7 4
v -4 4 4
v -4 6 4
v -4 7 4
v -4 8 4
v -1 4 4
v -1 5 4
v 1 5 4
v 1 6 4
v 1 8 4
v 2 6 4
v 2 8 4
v 3 0 4
v 3 1 4
v 3 2 4
v 3 4 4
v 3 5 4
v 6 0 4
v 6 1 4
v 6 2 4
v 6 3 4
v 6 4 4
v 11 3 4
v 11 5 4
v 3 3 3
v 3 4 3
v 6 3 3
v 6 4 3
v -3 5 -0
v -3 6 -0
v -2 5 -0
v -2 6 -0
v -5 4 -1
v -5 5 -1
v -2 4 -1
v -2 5 -1
v -13 1 -5
v -13 2 -5
v -12 2 -5
v -12 4 -5
v -12 5 -5
v -11 1 -5
v -11 2 -5
v -11 3 -5
v -11 4 -5
v -11 5 -5
v -8 1 -5
v -8 2 -5
v -8 3 -5
v -8 4 -5
v -7 5 -5
v -7 6 -5
v -6 6 -5
v -6 7 -5
v -5 2 -5
v -5 6 -5
v -5 7 -5
v -5 9 -5
v -4 2 -5
v -4 6 -5
v -4 7 -5
v -4 8 -5
v 1 6 -5
v 1 8 -5
v 3 1 -5
v 3 2 -5
v 3 3 -5
v 3 4 -5
v 3 5 -5
v 3 9 -5
v 6 1 -5
v 6 2 -5
v 6 3 -5
v 6 4 -5
v 12 2 -5
v 12 3 -5
v 12 5 -5
v 13 1 -5
v 13 2 -5
v 13 3 -5
v -11 0 -6
v -11 3 -6
v -10 1 -6
v -10 2 -6
v -9 1 -6
v -9 2 -6
v -8 0 -6
v -8 3 -6
v -5 6 -6
v -5 7 -6
v -4 6 -6
v -4 7 -6
v 3 0 -6
v 3 3 -6
v 4 1 -6
v 4 2 -6
v 5 1 -6
v 5 2 -6
v 6 0 -6
v 6 3 -6
v -11 0 6
v -8 0 6
v 3 0 6
v 6 0 6
v -11 0 4
v -8 0 4
v 3 0 4
v 6 0 4
v -11 0 -4
v -8 0 -4
v 3 0 -4
v 6 0 -4
v -11 0 -6
v -8 0 -6
v 3 0 -6
v 6 0 -6
v -13 1 5
v -11 1 5
v -8 1 5
v 3 1 5
v 6 1 5
v 13 1 5
v -11 1 4
v -8 1 4
v 2 1 4
v 3 1 4
v 6 1 4
v 7 1 4
v 11 1 4
v -11 1 -4
v -8 1 -4
v 2 1 -4
v 3 1 -4
v 6 1 -4
v 7 1 -4
v 11 1 -4
v -13 1 -5
v -11 1 -5
v -8 1 -5
v 3 1 -5
v 6 1 -5
v 13 1 -5
v 3 2 4
v 6 2 4
v 3 2 -4
v 6 2 -4
v -11 3 4
v -8 3 4
v -11 3 3
v -11 3 2
v -11 3 -2
v -11 3 -3
v -11 3 -4
v -8 3 -4
v -5 6 6
v -4 6 6
v -5 6 5
v -4 6 5
v -6 6 4
v -5 6 4
v -6 6 2
v -6 6 1
v -6 6 -2
v -6 6 -3
v -6 6 -4
v -5 6 -4
v -5 6 -5
v -4 6 -5
v -5 6 -6
v -4 6 -6
v -5 7 4
v -4 7 4
v -5 7 -1
v -4 7 -1
v -5 7 -2
v -4 7 -2
v -5 7 -4
v -4 7 -4
v -4 8 4
v 1 8 4
v 2 8 4
v -4 8 -1
v -4 8 -2
v -4 8 -4
v 1 8 -4
v 2 8 -4
v -13 2 5
v -12 2 5
v -12 2 3
v -12 2 2
v -12 2 -2
v -12 2 -3
v -13 2 -5
v -12 2 -5
v -11 3 6
v -8 3 6
v 3 3 6
v 6 3 6
v -11 3 5
v -8 3 5
v 3 3 5
v 6 3 5
v 12 3 5
v 13 3 5
v 6 3 4
v 11 3 4
v 12 3 4
v 13 3 4
v 3 3 3
v 6 3 3
v 3 3 -3
v 6 3 -3
v 6 3 -4
v 11 3 -4
v 12 3 -4
v 13 3 -4
v -11 3 -5
v -8 3 -5
v 3 3 -5
v 6 3 -5
v 12 3 -5
v 13 3 -5
v -11 3 -6
v -8 3 -6
v 3 3 -6
v 6 3 -6
v -5 4 4
v -4 4 4
v -1 4 4
v 3 4 4
v 6 4 4
v 3 4 3
v 6 4 3
v -5 4 1
v -2 4 1
v -5 4 -1
v -2 4 -1
v 3 4 -3
v 6 4 -3
v -5 4 -4
v -4 4 -4
v -1 4 -4
v 3 4 -4
v 6 4 -4
v -12 5 5
v -11 5 5
v -7 5 5
v 3 5 5
v 12 5 5
v -7 5 4
v -6 5 4
v -5 5 4
v -1 5 4
v 1 5 4
v 3 5 4
v 11 5 4
v -12 5 3
v -11 5 3
v -7 5 2
v -6 5 2
v -7 5 1
v -6 5 1
v -5 5 1
v -3 5 1
v 1 5 1
v -3 5 -0
v -2 5 -0
v -5 5 -1
v -2 5 -1
v -7 5 -2
v -6 5 -2
v -12 5 -3
v -11 5 -3
v -7 5 -3
v -6 5 -3
v -7 5 -4
v -6 5 -4
v -5 5 -4
v -1 5 -4
v 1 5 -4
v 3 5 -4
v 11 5 -4
v -12 5 -5
v -11 5 -5
v -7 5 -5
v 3 5 -5
v 12 5 -5
v -7 6 5
v -6 6 5
v -7 6 4
v -6 6 4
v 1 6 4
v 2 6 4
v -7 6 2
v -6 6 2
v -7 6 1
v -6 6 1
v -3 6 1
v -2 6 1
v 1 6 1
v 2 6 1
v -3 6 -0
v -2 6 -0
v -7 6 -2
v -6 6 -2
v -7 6 -3
v -6 6 -3
v -7 6 -4
v -6 6 -4
v 1 6 -4
v 2 6 -4
v -7 6 -5
v -6 6 -5
v -5 7 6
v -4 7 6
v -6 7 5
v -5 7 5
v -4 7 5
v -6 7 4
v -5 7 4
v -5 7 -1
v -5 7 -2
v -6 7 -4
v -5 7 -4
v -6 7 -5
v -5 7 -5
v -4 7 -5
v -5 7 -6
v -4 7 -6
v -5 9 5
v 3 9 5
v -5 9 -5
v 3 9 -5

# faces
f 3/8/1 2/8/1 1/8/1
f 4/8/1 2/8/1 3/8/1
f 11/8/1 7/8/1 6/8/1
f 11/9/1 8/9/1 7/9/1
f 12/8/1 9/8/1 8/8/1
f 12/9/1 8/9/1 11/9/1
f 13/6/1 6/6/1 5/6/1
f 14/8/1 11/8/1 6/8/1
f 14/6/1 6/6/1 13/6/1
f 14/8/1 12/8/1 11/8/1
f 15/8/1 9/8/1 12/8/1
f 15/8/1 12/8/1 14/8/1
f 15/6/1 10/6/1 9/6/1
f 16/6/1 10/6/1 15/6/1
f 17/1/1 14/1/1 13/1/1
f 18/6/1 15/6/1 14/6/1
f 18/1/1 14/1/1 17/1/1
f 19/1/1 16/1/1 15/1/1
f 19/6/1 15/6/1 18/6/1
f 20/1/1 16/1/1 19/1/1
f 25/13/1 22/13/1 21/13/1
f 26/13/1 22/13/1 25/13/1
f 27/13/1 24/13/1 23/13/1
f 28/13/1 24/13/1 27/13/1
f 29/13/1 25/13/1 21/13/1
f 30/13/1 24/13/1 28/13/1
f 31/13/1 29/13/1 21/13/1
f 32/13/1 29/13/1 31/13/1
f 33/13/1 24/13/1 30/13/1
f 34/13/1 24/13/1 33/13/1
f 37/5/1 36/5/1 35/5/1
f 38/5/1 36/5/1 37/5/1
f 47/6/1 40/6/1 39/6/1
f 48/3/1 41/3/1 40/3/1
f 48/6/1 40/6/1 47/6/1
f 49/2/1 42/2/1 41/2/1
f 49/3/1 41/3/1 48/3/1
f 50/3/1 43/3/1 42/3/1
f 50/2/1 42/2/1 49/2/1
f 51/2/1 44/2/1 43/2/1
f 51/3/1 43/3/1 50/3/1
f 52/3/1 45/3/1 44/3/1
f 52/2/1 44/2/1 51/2/1
f 53/6/1 46/6/1 45/6/1
f 53/3/1 45/3/1 52/3/1
f 54/6/1 46/6/1 53/6/1
f 63/6/1 56/6/1 55/6/1
f 64/3/1 57/3/1 56/3/1
f 64/6/1 56/6/1 63/6/1
f 64/3/1 58/3/1 57/3/1
f 64/3/1 61/3/1 60/3/1
f 64/3/1 60/3/1 59/3/1
f 64/3/1 59/3/1 58/3/1
f 65/6/1 62/6/1 61/6/1
f 65/3/1 61/3/1 64/3/1
f 66/6/1 62/6/1 65/6/1
f 71/6/1 68/6/1 67/6/1
f 72/6/1 68/6/1 71/6/1
f 77/6/1 70/6/1 69/6/1
f 78/6/1 70/6/1 77/6/1
f 79/6/1 73/6/1 72/6/1
f 79/3/1 74/3/1 73/3/1
f 80/2/1 75/2/1 74/2/1
f 80/3/1 74/3/1 79/3/1
f 81/3/1 76/3/1 75/3/1
f 81/2/1 75/2/1 80/2/1
f 82/6/1 77/6/1 76/6/1
f 82/3/1 76/3/1 81/3/1
f 83/6/1 80/6/1 79/6/1
f 83/6/1 81/6/1 80/6/1
f 83/6/1 82/6/1 81/6/1
f 83/6/1 79/6/1 72/6/1
f 84/6/1 77/6/1 82/6/1
f 84/6/1 82/6/1 83/6/1
f 87/12/1 86/12/1 85/12/1
f 88/12/1 86/12/1 87/12/1
f 91/12/1 90/12/1 89/12/1
f 92/12/1 90/12/1 91/12/1
f 96/12/1 94/12/1 93/12/1
f 97/6/1 95/6/1 94/6/1
f 97/12/1 94/12/1 96/12/1
f 98/6/1 95/6/1 97/6/1
f 102/3/1 100/3/1 99/3/1
f 102/3/1 101/3/1 100/3/1
f 103/3/1 101/3/1 102/3/1
f 108/13/1 105/13/1 104/13/1
f 109/13/1 105/13/1 108/13/1
f 110/13/1 107/13/1 106/13/1
f 111/13/1 107/13/1 110/13/1
f 112/13/1 108/13/1 104/13/1
f 113/13/1 107/13/1 111/13/1
f 114/13/1 112/13/1 104/13/1
f 115/13/1 112/13/1 114/13/1
f 116/13/1 107/13/1 113/13/1
f 117/13/1 107/13/1 116/13/1
f 120/8/1 119/8/1 118/8/1
f 121/8/1 119/8/1 120/8/1
f 124/6/1 123/6/1 122/6/1
f 125/6/1 123/6/1 124/6/1
f 126/8/2 127/8/2 128/8/2
f 128/8/2 127/8/2 129/8/2
f 129/8/2 127/8/2 130/8/2
f 130/8/2 127/8/2 131/8/2
f 131/8/2 127/8/2 132/8/2
f 132/8/2 127/8/2 133/8/2
f 128/6/2 129/6/2 134/6/2
f 129/8/2 130/8/2 135/8/2
f 134/6/2 129/6/2 135/6/2
f 130/9/2 131/9/2 136/9/2
f 135/8/2 130/8/2 136/8/2
f 131/8/2 132/8/2 137/8/2
f 136/9/2 131/9/2 137/9/2
f 132/6/2 133/6/2 138/6/2
f 137/8/2 132/8/2 138/8/2
f 138/6/2 133/6/2 139/6/2
f 140/13/2 141/13/2 144/13/2
f 144/13/2 141/13/2 145/13/2
f 142/13/2 143/13/2 146/13/2
f 146/13/2 143/13/2 147/13/2
f 140/13/2 144/13/2 148/13/2
f 147/13/2 143/13/2 149/13/2
f 140/13/2 148/13/2 150/13/2
f 150/13/2 148/13/2 151/13/2
f 149/13/2 143/13/2 152/13/2
f 152/13/2 143/13/2 153/13/2
f 154/3/2 155/3/2 160/3/2
f 155/2/2 156/2/2 161/2/2
f 160/3/2 155/3/2 161/3/2
f 156/3/2 157/3/2 162/3/2
f 161/2/2 156/2/2 162/2/2
f 157/2/2 158/2/2 163/2/2
f 162/3/2 157/3/2 163/3/2
f 158/3/2 159/3/2 164/3/2
f 163/2/2 158/2/2 164/2/2
f 164/3/2 159/3/2 165/3/2
f 166/6/2 167/6/2 170/6/2
f 170/6/2 167/6/2 171/6/2
f 168/6/2 169/6/2 172/6/2
f 172/6/2 169/6/2 173/6/2
f 174/3/2 175/3/2 176/3/2
f 176/3/2 175/3/2 177/3/2
f 177/3/2 175/3/2 178/3/2
f 178/3/2 175/3/2 179/3/2
f 180/6/2 181/6/2 184/6/2
f 184/6/2 181/6/2 185/6/2
f 182/6/2 183/6/2 190/6/2
f 190/6/2 183/6/2 191/6/2
f 186/3/2 187/3/2 192/3/2
f 187/2/2 188/2/2 193/2/2
f 192/3/2 187/3/2 193/3/2
f 188/3/2 189/3/2 194/3/2
f 193/2/2 188/2/2 194/2/2
f 194/3/2 189/3/2 195/3/2
f 196/12/2 197/12/2 198/12/2
f 198/12/2 197/12/2 199/12/2
f 196/12/2 198/12/2 200/12/2
f 200/12/2 198/12/2 201/12/2
f 202/6/2 203/6/2 204/6/2
f 204/6/2 203/6/2 205/6/2
f 206/6/2 207/6/2 209/6/2
f 209/6/2 207/6/2 210/6/2
f 208/6/2 209/6/2 213/6/2
f 210/6/2 211/6/2 213/6/2
f 209/6/2 210/6/2 213/6/2
f 213/6/2 211/6/2 214/6/2
f 213/6/2 214/6/2 216/6/2
f 214/6/2 215/6/2 216/6/2
f 212/6/2 213/6/2 216/6/2
f 216/6/2 215/6/2 217/6/2
f 212/6/2 216/6/2 218/6/2
f 216/3/2 217/3/2 218/3/2
f 217/6/2 215/6/2 219/6/2
f 218/3/2 217/3/2 219/3/2
f 212/6/2 218/6/2 220/6/2
f 218/6/2 219/6/2 220/6/2
f 219/6/2 215/6/2 221/6/2
f 220/6/2 219/6/2 221/6/2
f 222/13/2 223/13/2 226/13/2
f 226/13/2 223/13/2 227/13/2
f 224/13/2 225/13/2 228/13/2
f 228/13/2 225/13/2 229/13/2
f 222/13/2 226/13/2 230/13/2
f 229/13/2 225/13/2 231/13/2
f 222/13/2 230/13/2 232/13/2
f 232/13/2 230/13/2 233/13/2
f 231/13/2 225/13/2 238/13/2
f 238/13/2 225/13/2 239/13/2
f 234/6/2 235/6/2 240/6/2
f 240/6/2 235/6/2 241/6/2
f 236/6/2 237/6/2 242/6/2
f 242/6/2 237/6/2 243/6/2
f 244/6/2 245/6/2 248/6/2
f 246/6/2 247/6/2 248/6/2
f 245/6/2 246/6/2 248/6/2
f 248/6/2 247/6/2 249/6/2
f 250/8/2 251/8/2 252/8/2
f 252/8/2 251/8/2 253/8/2
f 253/8/2 251/8/2 254/8/2
f 254/8/2 251/8/2 255/8/2
f 252/5/2 253/5/2 256/5/2
f 253/11/2 254/11/2 257/11/2
f 256/5/2 253/5/2 257/5/2
f 254/5/2 255/5/2 258/5/2
f 257/11/2 254/11/2 258/11/2
f 258/5/2 255/5/2 259/5/2
f 262/13/3 261/13/3 260/13/3
f 263/13/3 261/13/3 262/13/3
f 264/13/3 262/13/3 260/13/3
f 264/8/3 263/8/3 262/8/3
f 265/13/3 261/13/3 263/13/3
f 265/8/3 263/8/3 264/8/3
f 266/13/3 264/13/3 260/13/3
f 266/13/3 265/13/3 264/13/3
f 267/13/3 261/13/3 265/13/3
f 267/13/3 265/13/3 266/13/3
f 270/6/3 269/6/3 268/6/3
f 271/6/3 269/6/3 270/6/3
f 274/13/3 273/13/3 272/13/3
f 275/13/3 273/13/3 274/13/3
f 276/13/3 274/13/3 272/13/3
f 276/8/3 275/8/3 274/8/3
f 277/13/3 273/13/3 275/13/3
f 277/8/3 275/8/3 276/8/3
f 278/13/3 276/13/3 272/13/3
f 278/13/3 277/13/3 276/13/3
f 279/13/3 273/13/3 277/13/3
f 279/13/3 277/13/3 278/13/3
f 282/8/3 281/8/3 280/8/3
f 285/8/3 282/8/3 280/8/3
f 286/6/3 283/6/3 282/6/3
f 286/8/3 282/8/3 285/8/3
f 287/6/3 283/6/3 286/6/3
f 288/1/3 284/1/3 283/1/3
f 288/6/3 283/6/3 287/6/3
f 289/1/3 284/1/3 288/1/3
f 292/7/3 288/7/3 287/7/3
f 293/6/3 289/6/3 288/6/3
f 293/7/3 288/7/3 292/7/3
f 294/6/3 292/6/3 291/6/3
f 294/6/3 289/6/3 293/6/3
f 294/6/3 293/6/3 292/6/3
f 296/6/3 295/6/3 294/6/3
f 298/6/3 294/6/3 291/6/3
f 298/6/3 297/6/3 296/6/3
f 298/6/3 296/6/3 294/6/3
f 298/8/3 291/8/3 290/8/3
f 299/6/3 297/6/3 298/6/3
f 300/6/3 297/6/3 299/6/3
f 302/8/3 298/8/3 290/8/3
f 302/7/3 299/7/3 298/7/3
f 303/7/3 299/7/3 302/7/3
f 304/6/3 301/6/3 300/6/3
f 305/6/3 301/6/3 304/6/3
f 306/6/3 303/6/3 302/6/3
f 306/3/3 304/3/3 303/3/3
f 306/3/3 305/3/3 304/3/3
f 307/6/3 301/6/3 305/6/3
f 307/3/3 305/3/3 306/3/3
f 308/8/3 302/8/3 290/8/3
f 309/6/3 306/6/3 302/6/3
f 309/8/3 302/8/3 308/8/3
f 309/6/3 307/6/3 306/6/3
f 310/6/3 307/6/3 309/6/3
f 311/6/3 307/6/3 310/6/3
f 312/6/3 307/6/3 311/6/3
f 313/6/3 301/6/3 307/6/3
f 313/6/3 307/6/3 312/6/3
f 316/7/3 311/7/3 310/7/3
f 317/6/3 312/6/3 311/6/3
f 317/7/3 311/7/3 316/7/3
f 318/6/3 316/6/3 315/6/3
f 318/8/3 315/8/3 314/8/3
f 318/6/3 317/6/3 316/6/3
f 319/6/3 317/6/3 318/6/3
f 320/6/3 312/6/3 317/6/3
f 320/6/3 317/6/3 319/6/3
f 321/8/3 318/8/3 314/8/3
f 322/5/3 319/5/3 318/5/3
f 322/8/3 318/8/3 321/8/3
f 323/5/3 319/5/3 322/5/3
f 326/12/3 325/12/3 324/12/3
f 328/12/3 326/12/3 324/12/3
f 328/12/3 327/12/3 326/12/3
f 329/12/3 327/12/3 328/12/3
f 332/6/3 331/6/3 330/6/3
f 333/6/3 331/6/3 332/6/3
f 338/13/3 335/13/3 334/13/3
f 338/8/3 336/8/3 335/8/3
f 339/12/3 337/12/3 336/12/3
f 339/8/3 336/8/3 338/8/3
f 340/13/3 338/13/3 334/13/3
f 341/12/3 339/12/3 338/12/3
f 341/13/3 338/13/3 340/13/3
f 342/12/3 337/12/3 339/12/3
f 342/12/3 339/12/3 341/12/3
f 346/6/3 344/6/3 343/6/3
f 347/6/3 344/6/3 346/6/3
f 349/7/3 346/7/3 345/7/3
f 349/7/3 347/7/3 346/7/3
f 350/6/3 348/6/3 347/6/3
f 350/7/3 347/7/3 349/7/3
f 351/6/3 348/6/3 350/6/3
f 353/6/3 350/6/3 349/6/3
f 354/6/3 350/6/3 353/6/3
f 355/6/3 350/6/3 354/6/3
f 356/3/3 352/3/3 351/3/3
f 356/6/3 350/6/3 355/6/3
f 356/3/3 351/3/3 350/3/3
f 357/3/3 352/3/3 356/3/3
f 358/6/3 357/6/3 356/6/3
f 359/6/3 357/6/3 358/6/3
f 365/13/3 361/13/3 360/13/3
f 366/12/3 362/12/3 361/12/3
f 366/13/3 361/13/3 365/13/3
f 367/12/3 362/12/3 366/12/3
f 369/6/3 364/6/3 363/6/3
f 370/6/3 369/6/3 368/6/3
f 371/6/3 364/6/3 369/6/3
f 371/6/3 369/6/3 370/6/3
f 372/13/4 373/13/4 376/13/4
f 374/12/4 375/12/4 377/12/4
f 376/13/4 373/13/4 377/13/4
f 373/12/4 374/12/4 377/12/4
f 377/12/4 375/12/4 378/12/4
f 379/6/4 380/6/4 382/6/4
f 382/6/4 380/6/4 383/6/4
f 381/7/4 382/7/4 385/7/4
f 382/7/4 383/7/4 385/7/4
f 383/6/4 384/6/4 386/6/4
f 385/7/4 383/7/4 386/7/4
f 386/6/4 384/6/4 387/6/4
f 385/6/4 386/6/4 389/6/4
f 389/6/4 386/6/4 390/6/4
f 390/6/4 386/6/4 391/6/4
f 387/3/4 388/3/4 392/3/4
f 391/6/4 386/6/4 392/6/4
f 386/3/4 387/3/4 392/3/4
f 392/3/4 388/3/4 393/3/4
f 392/6/4 393/6/4 394/6/4
f 394/6/4 393/6/4 395/6/4
f 396/13/4 397/13/4 401/13/4
f 397/12/4 398/12/4 402/12/4
f 401/13/4 397/13/4 402/13/4
f 402/12/4 398/12/4 403/12/4
f 399/6/4 400/6/4 405/6/4
f 404/6/4 405/6/4 406/6/4
f 405/6/4 400/6/4 407/6/4
f 406/6/4 405/6/4 407/6/4
f 408/6/4 409/6/4 410/6/4
f 410/6/4 409/6/4 411/6/4
f 412/12/4 413/12/4 414/12/4
f 414/12/4 413/12/4 415/12/4
f 416/12/4 417/12/4 418/12/4
f 418/12/4 417/12/4 419/12/4
f 420/8/4 421/8/4 422/8/4
f 420/8/4 422/8/4 425/8/4
f 422/6/4 423/6/4 426/6/4
f 425/8/4 422/8/4 426/8/4
f 426/6/4 423/6/4 427/6/4
f 423/1/4 424/1/4 428/1/4
f 427/6/4 423/6/4 428/6/4
f 428/1/4 424/1/4 429/1/4
f 427/7/4 428/7/4 432/7/4
f 428/6/4 429/6/4 433/6/4
f 432/7/4 428/7/4 433/7/4
f 431/6/4 432/6/4 434/6/4
f 433/6/4 429/6/4 434/6/4
f 432/6/4 433/6/4 434/6/4
f 434/6/4 435/6/4 436/6/4
f 431/6/4 434/6/4 438/6/4
f 436/6/4 437/6/4 438/6/4
f 434/6/4 436/6/4 438/6/4
f 430/8/4 431/8/4 438/8/4
f 438/6/4 437/6/4 439/6/4
f 439/6/4 437/6/4 440/6/4
f 430/8/4 438/8/4 442/8/4
f 438/7/4 439/7/4 442/7/4
f 442/7/4 439/7/4 443/7/4
f 440/6/4 441/6/4 444/6/4
f 444/6/4 441/6/4 445/6/4
f 442/6/4 443/6/4 446/6/4
f 443/3/4 444/3/4 446/3/4
f 444/3/4 445/3/4 446/3/4
f 445/6/4 441/6/4 447/6/4
f 446/3/4 445/3/4 447/3/4
f 430/8/4 442/8/4 448/8/4
f 442/6/4 446/6/4 449/6/4
f 448/8/4 442/8/4 449/8/4
f 446/6/4 447/6/4 449/6/4
f 449/6/4 447/6/4 450/6/4
f 450/6/4 447/6/4 451/6/4
f 451/6/4 447/6/4 452/6/4
f 447/6/4 441/6/4 453/6/4
f 452/6/4 447/6/4 453/6/4
f 450/7/4 451/7/4 456/7/4
f 451/6/4 452/6/4 457/6/4
f 456/7/4 451/7/4 457/7/4
f 455/6/4 456/6/4 458/6/4
f 454/8/4 455/8/4 458/8/4
f 456/6/4 457/6/4 458/6/4
f 458/6/4 457/6/4 459/6/4
f 457/6/4 452/6/4 460/6/4
f 459/6/4 457/6/4 460/6/4
f 454/8/4 458/8/4 461/8/4
f 458/5/4 459/5/4 462/5/4
f 461/8/4 458/8/4 462/8/4
f 462/5/4 459/5/4 463/5/4
f 464/13/4 465/13/4 466/13/4
f 466/13/4 465/13/4 467/13/4
f 464/13/4 466/13/4 468/13/4
f 466/8/4 467/8/4 468/8/4
f 467/13/4 465/13/4 469/13/4
f 468/8/4 467/8/4 469/8/4
f 464/13/4 468/13/4 470/13/4
f 468/13/4 469/13/4 470/13/4
f 469/13/4 465/13/4 471/13/4
f 470/13/4 469/13/4 471/13/4
f 472/6/4 473/6/4 474/6/4
f 474/6/4 473/6/4 475/6/4
f 476/13/4 477/13/4 478/13/4
f 478/13/4 477/13/4 479/13/4
f 476/13/4 478/13/4 480/13/4
f 478/8/4 479/8/4 480/8/4
f 479/13/4 477/13/4 481/13/4
f 480/8/4 479/8/4 481/8/4
f 476/13/4 480/13/4 482/13/4
f 480/13/4 481/13/4 482/13/4
f 481/13/4 477/13/4 483/13/4
f 482/13/4 481/13/4 483/13/4
f 488/13/5 485/13/5 484/13/5
f 489/13/5 485/13/5 488/13/5
f 490/13/5 487/13/5 486/13/5
f 491/13/5 487/13/5 490/13/5
f 496/13/5 493/13/5 492/13/5
f 497/13/5 493/13/5 496/13/5
f 498/13/5 495/13/5 494/13/5
f 499/13/5 495/13/5 498/13/5
f 506/8/5 501/8/5 500/8/5
f 507/8/5 503/8/5 502/8/5
f 508/8/5 503/8/5 507/8/5
f 509/8/5 503/8/5 508/8/5
f 510/8/5 505/8/5 504/8/5
f 511/8/5 505/8/5 510/8/5
f 512/8/5 505/8/5 511/8/5
f 513/8/5 506/8/5 500/8/5
f 514/5/5 508/5/5 507/5/5
f 515/6/5 509/6/5 508/6/5
f 515/5/5 508/5/5 514/5/5
f 516/6/5 509/6/5 515/6/5
f 517/8/5 511/8/5 510/8/5
f 518/6/5 512/6/5 511/6/5
f 518/8/5 511/8/5 517/8/5
f 519/8/5 505/8/5 512/8/5
f 519/6/5 512/6/5 518/6/5
f 520/8/5 513/8/5 500/8/5
f 521/8/5 513/8/5 520/8/5
f 522/8/5 516/8/5 515/8/5
f 522/8/5 515/8/5 514/8/5
f 523/8/5 516/8/5 522/8/5
f 524/8/5 518/8/5 517/8/5
f 524/8/5 519/8/5 518/8/5
f 525/8/5 505/8/5 519/8/5
f 525/8/5 519/8/5 524/8/5
f 528/6/5 527/6/5 526/6/5
f 529/6/5 527/6/5 528/6/5
f 532/5/5 531/5/5 530/5/5
f 533/5/5 531/5/5 532/5/5
f 534/5/5 531/5/5 533/5/5
f 535/5/5 531/5/5 534/5/5
f 536/5/5 531/5/5 535/5/5
f 537/5/5 531/5/5 536/5/5
f 540/6/5 539/6/5 538/6/5
f 541/6/5 539/6/5 540/6/5
f 544/3/5 543/3/5 542/3/5
f 545/3/5 543/3/5 544/3/5
f 546/3/5 543/3/5 545/3/5
f 547/3/5 543/3/5 546/3/5
f 548/3/5 543/3/5 547/3/5
f 549/3/5 543/3/5 548/3/5
f 552/6/5 551/6/5 550/6/5
f 553/6/5 551/6/5 552/6/5
f 556/3/5 555/3/5 554/3/5
f 557/3/5 555/3/5 556/3/5
f 558/2/5 557/2/5 556/2/5
f 559/2/5 557/2/5 558/2/5
f 560/3/5 559/3/5 558/3/5
f 561/3/5 559/3/5 560/3/5
f 565/6/5 563/6/5 562/6/5
f 565/6/5 564/6/5 563/6/5
f 566/6/5 564/6/5 565/6/5
f 567/6/5 564/6/5 566/6/5
f 568/6/5 564/6/5 567/6/5
f 569/6/5 564/6/5 568/6/5
f 570/8/6 571/8/6 572/8/6
f 570/8/6 572/8/6 573/8/6
f 570/8/6 573/8/6 574/8/6
f 570/8/6 574/8/6 575/8/6
f 570/8/6 575/8/6 576/8/6
f 576/8/6 575/8/6 577/8/6
f 578/13/6 579/13/6 582/13/6
f 582/13/6 579/13/6 583/13/6
f 580/13/6 581/13/6 584/13/6
f 584/13/6 581/13/6 585/13/6
f 586/5/6 587/5/6 590/5/6
f 590/5/6 587/5/6 591/5/6
f 588/6/6 589/6/6 593/6/6
f 592/6/6 593/6/6 594/6/6
f 593/6/6 589/6/6 595/6/6
f 594/6/6 593/6/6 595/6/6
f 595/6/6 589/6/6 596/6/6
f 596/6/6 589/6/6 597/6/6
f 590/11/6 591/11/6 598/11/6
f 598/11/6 591/11/6 599/11/6
f 598/5/6 599/5/6 604/5/6
f 604/5/6 599/5/6 605/5/6
f 600/13/6 601/13/6 606/13/6
f 606/13/6 601/13/6 607/13/6
f 602/13/6 603/13/6 608/13/6
f 608/13/6 603/13/6 609/13/6
f 613/6/6 614/6/6 615/6/6
f 615/6/6 614/6/6 616/6/6
f 610/12/6 611/12/6 617/12/6
f 611/12/6 612/12/6 617/12/6
f 617/12/6 612/12/6 618/12/6
f 618/12/6 612/12/6 620/12/6
f 619/12/6 620/12/6 623/12/6
f 623/12/6 620/12/6 624/12/6
f 620/12/6 612/12/6 625/12/6
f 624/12/6 620/12/6 625/12/6
f 621/6/6 622/6/6 626/6/6
f 626/6/6 622/6/6 627/6/6
f 629/6/6 630/6/6 633/6/6
f 631/6/6 632/6/6 638/6/6
f 638/6/6 632/6/6 639/6/6
f 628/1/6 629/1/6 640/1/6
f 629/6/6 633/6/6 641/6/6
f 640/1/6 629/1/6 641/1/6
f 640/6/6 641/6/6 642/6/6
f 641/6/6 633/6/6 642/6/6
f 634/6/6 635/6/6 643/6/6
f 640/6/6 642/6/6 644/6/6
f 643/6/6 635/6/6 645/6/6
f 645/6/6 635/6/6 646/6/6
f 636/12/6 637/12/6 648/12/6
f 646/12/6 647/12/6 649/12/6
f 645/6/6 646/6/6 651/6/6
f 649/12/6 650/12/6 651/12/6
f 646/12/6 649/12/6 651/12/6
f 651/12/6 650/12/6 652/12/6
f 640/6/6 644/6/6 653/6/6
f 645/6/6 651/6/6 654/6/6
f 640/6/6 653/6/6 655/6/6
f 655/6/6 653/6/6 656/6/6
f 656/6/6 653/6/6 657/6/6
f 654/6/6 651/6/6 658/6/6
f 656/6/6 657/6/6 659/6/6
f 658/6/6 651/6/6 660/6/6
f 660/6/6 651/6/6 661/6/6
f 636/12/6 648/12/6 662/12/6
f 662/12/6 648/12/6 663/12/6
f 639/6/6 632/6/6 665/6/6
f 655/1/6 656/1/6 666/1/6
f 656/6/6 659/6/6 667/6/6
f 666/1/6 656/1/6 667/1/6
f 667/6/6 659/6/6 668/6/6
f 664/6/6 665/6/6 669/6/6
f 665/6/6 632/6/6 670/6/6
f 669/6/6 665/6/6 670/6/6
f 671/6/6 672/6/6 673/6/6
f 673/6/6 672/6/6 674/6/6
f 673/3/6 674/3/6 677/3/6
f 677/3/6 674/3/6 678/3/6
f 677/2/6 678/2/6 679/2/6
f 679/2/6 678/2/6 680/2/6
f 675/12/6 676/12/6 683/12/6
f 683/12/6 676/12/6 684/12/6
f 681/12/6 682/12/6 685/12/6
f 685/12/6 682/12/6 686/12/6
f 679/3/6 680/3/6 687/3/6
f 687/3/6 680/3/6 688/3/6
f 687/2/6 688/2/6 689/2/6
f 689/2/6 688/2/6 690/2/6
f 689/3/6 690/3/6 691/3/6
f 691/3/6 690/3/6 692/3/6
f 683/6/6 684/6/6 693/6/6
f 693/6/6 684/6/6 694/6/6
f 691/6/6 692/6/6 695/6/6
f 695/6/6 692/6/6 696/6/6
f 697/6/6 698/6/6 700/6/6
f 700/6/6 698/6/6 701/6/6
f 699/6/6 700/6/6 702/6/6
f 702/6/6 700/6/6 703/6/6
f 702/3/6 703/3/6 704/3/6
f 702/3/6 704/3/6 705/3/6
f 702/3/6 705/3/6 706/3/6
f 706/3/6 705/3/6 707/3/6
f 706/6/6 707/6/6 708/6/6
f 708/6/6 707/6/6 709/6/6
f 709/6/6 710/6/6 711/6/6
f 711/6/6 710/6/6 712/6/6
f 713/6/6 714/6/6 715/6/6
f 715/6/6 714/6/6 716/6/6
