# MagicaVoxel @ Ephtracy

# group
g Voiture_02

# material
mtllib Voiture_02.mtl
usemtl palette

# normals
vn -1 0 0
vn 1 0 0
vn 0 0 1
vn 0 0 -1
vn 0 -1 0
vn 0 1 0

# texcoords
vt 0.00976563 0.5
vt 0.115234 0.5
vt 0.373047 0.5
vt 0.447266 0.5
vt 0.751953 0.5
vt 0.845703 0.5
vt 0.853516 0.5
vt 0.958984 0.5
vt 0.966797 0.5
vt 0.974609 0.5
vt 0.978516 0.5
vt 0.982422 0.5
vt 0.990234 0.5
vt 0.994141 0.5

# verts
v -13 1 5
v -13 1 -5
v -13 2 5
v -13 2 -5
v -12 2 5
v -12 2 3
v -12 2 2
v -12 2 -2
v -12 2 -3
v -12 2 -5
v -12 3 2
v -12 3 -2
v -12 4 5
v -12 4 3
v -12 4 -3
v -12 4 -5
v -12 5 5
v -12 5 3
v -12 5 -3
v -12 5 -5
v -11 0 6
v -11 0 4
v -11 0 -4
v -11 0 -6
v -11 1 5
v -11 1 4
v -11 1 -4
v -11 1 -5
v -11 2 5
v -11 2 -5
v -11 3 6
v -11 3 5
v -11 3 -5
v -11 3 -6
v -8 1 4
v -8 1 -4
v -8 3 4
v -8 3 -4
v -7 5 5
v -7 5 4
v -7 5 2
v -7 5 1
v -7 5 -2
v -7 5 -3
v -7 5 -4
v -7 5 -5
v -7 6 5
v -7 6 4
v -7 6 2
v -7 6 1
v -7 6 -2
v -7 6 -3
v -7 6 -4
v -7 6 -5
v -6 6 5
v -6 6 4
v -6 6 2
v -6 6 1
v -6 6 -2
v -6 6 -3
v -6 6 -4
v -6 6 -5
v -6 7 5
v -6 7 4
v -6 7 -4
v -6 7 -5
v -5 7 5
v -5 7 4
v -5 7 -1
v -5 7 -2
v -5 7 -4
v -5 7 -5
v -5 8 5
v -5 8 4
v -5 8 -1
v -5 8 -2
v -5 8 -4
v -5 8 -5
v -4 5 6
v -4 5 5
v -4 5 -5
v -4 5 -6
v -4 6 6
v -4 6 5
v -4 6 -5
v -4 6 -6
v -3 5 1
v -3 5 -0
v -3 6 1
v -3 6 -0
v -1 4 4
v -1 4 -4
v -1 5 4
v -1 5 -4
v 1 5 4
v 1 5 -4
v 1 6 5
v 1 6 4
v 1 6 -4
v 1 6 -5
v 1 7 5
v 1 7 4
v 1 7 -4
v 1 7 -5
v 2 6 4
v 2 6 -4
v 2 7 4
v 2 7 -4
v 3 0 6
v 3 0 4
v 3 0 -4
v 3 0 -6
v 3 1 5
v 3 1 4
v 3 1 -4
v 3 1 -5
v 3 2 5
v 3 2 -5
v 3 3 6
v 3 3 5
v 3 3 -5
v 3 3 -6
v 6 1 4
v 6 1 -4
v 6 2 4
v 6 2 -4
v 6 3 4
v 6 3 -4
v 7 0 4
v 7 0 2
v 7 1 4
v 7 1 2
v -11 1 4
v -11 1 -4
v -11 2 4
v -11 2 3
v -11 2 2
v -11 2 -2
v -11 2 -3
v -11 2 -4
v -11 3 4
v -11 3 3
v -11 3 2
v -11 3 -2
v -11 3 -3
v -11 3 -4
v -8 0 6
v -8 0 4
v -8 0 -4
v -8 0 -6
v -8 1 5
v -8 1 4
v -8 1 -4
v -8 1 -5
v -8 2 5
v -8 2 -5
v -8 3 6
v -8 3 5
v -8 3 -5
v -8 3 -6
v -6 5 4
v -6 5 2
v -6 5 1
v -6 5 -2
v -6 5 -3
v -6 5 -4
v -6 6 4
v -6 6 2
v -6 6 1
v -6 6 -2
v -6 6 -3
v -6 6 -4
v -5 4 4
v -5 4 1
v -5 4 -1
v -5 4 -4
v -5 5 4
v -5 5 1
v -5 5 -1
v -5 5 -4
v -5 6 4
v -5 6 -4
v -5 7 4
v -5 7 -1
v -5 7 -2
v -5 7 -4
v -4 6 5
v -4 6 4
v -4 6 -4
v -4 6 -5
v -4 7 4
v -4 7 -1
v -4 7 -2
v -4 7 -4
v -4 8 5
v -4 8 4
v -4 8 -1
v -4 8 -2
v -4 8 -4
v -4 8 -5
v -3 5 6
v -3 5 5
v -3 5 -5
v -3 5 -6
v -3 6 6
v -3 6 5
v -3 6 -5
v -3 6 -6
v -2 4 1
v -2 4 -1
v -2 5 -0
v -2 5 -1
v -2 6 1
v -2 6 -0
v 3 1 4
v 3 1 -4
v 3 3 4
v 3 3 -4
v 3 6 5
v 3 6 -5
v 3 7 5
v 3 7 -5
v 5 5 5
v 5 5 -5
v 5 6 5
v 5 6 -5
v 6 0 6
v 6 0 4
v 6 0 -4
v 6 0 -6
v 6 1 5
v 6 1 4
v 6 1 -4
v 6 1 -5
v 6 2 5
v 6 2 -5
v 6 3 6
v 6 3 5
v 6 3 -5
v 6 3 -6
v 6 4 5
v 6 4 -5
v 6 5 5
v 6 5 -5
v 7 3 5
v 7 3 4
v 7 3 -4
v 7 3 -5
v 7 4 5
v 7 4 -5
v 8 1 5
v 8 1 4
v 8 1 2
v 8 1 -5
v 8 2 5
v 8 2 4
v 8 2 -4
v 8 2 -5
v 8 3 5
v 8 3 4
v 8 3 -4
v 8 3 -5
v 9 0 4
v 9 0 2
v 9 1 4
v 9 1 2
v -11 0 6
v -11 3 6
v -10 1 6
v -10 2 6
v -9 1 6
v -9 2 6
v -8 0 6
v -8 3 6
v -4 5 6
v -4 6 6
v -3 5 6
v -3 6 6
v 3 0 6
v 3 3 6
v 4 1 6
v 4 2 6
v 5 1 6
v 5 2 6
v 6 0 6
v 6 3 6
v -13 1 5
v -13 2 5
v -12 2 5
v -12 4 5
v -12 5 5
v -11 1 5
v -11 2 5
v -11 3 5
v -11 4 5
v -11 5 5
v -8 1 5
v -8 2 5
v -8 3 5
v -8 4 5
v -7 5 5
v -7 6 5
v -6 6 5
v -6 7 5
v -5 2 5
v -5 6 5
v -5 7 5
v -5 8 5
v -4 2 5
v -4 5 5
v -4 6 5
v -4 8 5
v -3 5 5
v -3 6 5
v -1 4 5
v -1 5 5
v 1 4 5
v 1 5 5
v 1 6 5
v 1 7 5
v 2 5 5
v 2 6 5
v 3 1 5
v 3 2 5
v 3 3 5
v 3 4 5
v 3 6 5
v 3 7 5
v 5 5 5
v 5 6 5
v 6 1 5
v 6 2 5
v 6 3 5
v 6 4 5
v 6 5 5
v 7 2 5
v 7 3 5
v 7 4 5
v 8 1 5
v 8 2 5
v 8 3 5
v 7 0 4
v 7 1 4
v 8 1 4
v 9 0 4
v 9 1 4
v -5 4 1
v -5 5 1
v -3 5 1
v -3 6 1
v -2 4 1
v -2 6 1
v -11 0 -4
v -11 1 -4
v -11 2 -4
v -11 3 -4
v -10 1 -4
v -10 2 -4
v -8 0 -4
v -8 1 -4
v -8 3 -4
v -6 5 -4
v -6 6 -4
v -5 4 -4
v -5 5 -4
v -5 6 -4
v -5 7 -4
v -4 4 -4
v -4 6 -4
v -4 7 -4
v -1 4 -4
v -1 5 -4
v 1 5 -4
v 1 6 -4
v 1 7 -4
v 2 6 -4
v 2 7 -4
v 3 0 -4
v 3 1 -4
v 3 3 -4
v 6 0 -4
v 6 1 -4
v 6 2 -4
v 6 3 -4
v -11 0 4
v -11 1 4
v -11 2 4
v -11 3 4
v -8 0 4
v -8 1 4
v -8 3 4
v -6 5 4
v -6 6 4
v -5 4 4
v -5 5 4
v -5 6 4
v -5 7 4
v -4 4 4
v -4 6 4
v -4 7 4
v -1 4 4
v -1 5 4
v 1 5 4
v 1 6 4
v 1 7 4
v 2 6 4
v 2 7 4
v 3 0 4
v 3 1 4
v 3 3 4
v 6 0 4
v 6 1 4
v 6 2 4
v 6 3 4
v 7 0 2
v 7 1 2
v 8 1 2
v 9 0 2
v 9 1 2
v -3 5 -0
v -3 6 -0
v -2 5 -0
v -2 6 -0
v -5 4 -1
v -5 5 -1
v -2 4 -1
v -2 5 -1
v -13 1 -5
v -13 2 -5
v -12 2 -5
v -12 4 -5
v -12 5 -5
v -11 1 -5
v -11 2 -5
v -11 3 -5
v -11 4 -5
v -11 5 -5
v -8 1 -5
v -8 2 -5
v -8 3 -5
v -8 4 -5
v -7 5 -5
v -7 6 -5
v -6 6 -5
v -6 7 -5
v -5 2 -5
v -5 6 -5
v -5 7 -5
v -5 8 -5
v -4 2 -5
v -4 5 -5
v -4 6 -5
v -4 8 -5
v -3 5 -5
v -3 6 -5
v -1 4 -5
v -1 5 -5
v 1 4 -5
v 1 5 -5
v 1 6 -5
v 1 7 -5
v 2 5 -5
v 2 6 -5
v 3 1 -5
v 3 2 -5
v 3 3 -5
v 3 4 -5
v 3 6 -5
v 3 7 -5
v 5 5 -5
v 5 6 -5
v 6 1 -5
v 6 2 -5
v 6 3 -5
v 6 4 -5
v 6 5 -5
v 7 2 -5
v 7 3 -5
v 7 4 -5
v 8 1 -5
v 8 2 -5
v 8 3 -5
v -11 0 -6
v -11 3 -6
v -10 1 -6
v -10 2 -6
v -9 1 -6
v -9 2 -6
v -8 0 -6
v -8 3 -6
v -4 5 -6
v -4 6 -6
v -3 5 -6
v -3 6 -6
v 3 0 -6
v 3 3 -6
v 4 1 -6
v 4 2 -6
v 5 1 -6
v 5 2 -6
v 6 0 -6
v 6 3 -6
v -11 0 6
v -8 0 6
v 3 0 6
v 6 0 6
v -11 0 4
v -8 0 4
v 3 0 4
v 6 0 4
v 7 0 4
v 9 0 4
v 7 0 2
v 9 0 2
v -11 0 -4
v -8 0 -4
v 3 0 -4
v 6 0 -4
v -11 0 -6
v -8 0 -6
v 3 0 -6
v 6 0 -6
v -13 1 5
v -11 1 5
v -8 1 5
v 3 1 5
v 6 1 5
v 8 1 5
v -11 1 4
v -8 1 4
v 3 1 4
v 6 1 4
v 7 1 4
v 8 1 4
v 7 1 2
v 8 1 2
v -11 1 -4
v -8 1 -4
v 3 1 -4
v 6 1 -4
v -13 1 -5
v -11 1 -5
v -8 1 -5
v 3 1 -5
v 6 1 -5
v 8 1 -5
v -11 3 4
v -8 3 4
v 3 3 4
v 6 3 4
v -11 3 3
v -11 3 2
v -11 3 -2
v -11 3 -3
v -11 3 -4
v -8 3 -4
v 3 3 -4
v 6 3 -4
v -4 5 6
v -3 5 6
v -4 5 5
v -3 5 5
v -4 5 -5
v -3 5 -5
v -4 5 -6
v -3 5 -6
v -6 6 4
v -5 6 4
v -6 6 2
v -6 6 1
v -6 6 -2
v -6 6 -3
v -6 6 -4
v -5 6 -4
v -5 7 4
v -4 7 4
v -5 7 -1
v -4 7 -1
v -5 7 -2
v -4 7 -2
v -5 7 -4
v -4 7 -4
v 8 1 4
v 9 1 4
v 8 1 2
v 9 1 2
v -13 2 5
v -12 2 5
v -12 2 3
v -12 2 2
v -12 2 -2
v -12 2 -3
v -13 2 -5
v -12 2 -5
v -11 3 6
v -8 3 6
v 3 3 6
v 6 3 6
v -11 3 5
v -8 3 5
v 3 3 5
v 6 3 5
v 7 3 5
v 8 3 5
v 7 3 4
v 8 3 4
v 7 3 -4
v 8 3 -4
v -11 3 -5
v -8 3 -5
v 3 3 -5
v 6 3 -5
v 7 3 -5
v 8 3 -5
v -11 3 -6
v -8 3 -6
v 3 3 -6
v 6 3 -6
v 6 4 5
v 7 4 5
v -5 4 4
v -4 4 4
v -1 4 4
v -5 4 1
v -2 4 1
v -5 4 -1
v -2 4 -1
v -5 4 -4
v -4 4 -4
v -1 4 -4
v 6 4 -5
v 7 4 -5
v -12 5 5
v -11 5 5
v -7 5 5
v 5 5 5
v 6 5 5
v -7 5 4
v -6 5 4
v -5 5 4
v -1 5 4
v 1 5 4
v -12 5 3
v -11 5 3
v -7 5 2
v -6 5 2
v -7 5 1
v -6 5 1
v -5 5 1
v -3 5 1
v -3 5 -0
v -2 5 -0
v -5 5 -1
v -2 5 -1
v -7 5 -2
v -6 5 -2
v -12 5 -3
v -11 5 -3
v -7 5 -3
v -6 5 -3
v -7 5 -4
v -6 5 -4
v -5 5 -4
v -1 5 -4
v 1 5 -4
v -12 5 -5
v -11 5 -5
v -7 5 -5
v 5 5 -5
v 6 5 -5
v -4 6 6
v -3 6 6
v -7 6 5
v -6 6 5
v -4 6 5
v -3 6 5
v 1 6 5
v 3 6 5
v 5 6 5
v -7 6 4
v -6 6 4
v -4 6 4
v 1 6 4
v 2 6 4
v -7 6 2
v -6 6 2
v -7 6 1
v -6 6 1
v -3 6 1
v -2 6 1
v -3 6 -0
v -2 6 -0
v -7 6 -2
v -6 6 -2
v -7 6 -3
v -6 6 -3
v -7 6 -4
v -6 6 -4
v -4 6 -4
v 1 6 -4
v 2 6 -4
v -7 6 -5
v -6 6 -5
v -4 6 -5
v -3 6 -5
v 1 6 -5
v 3 6 -5
v 5 6 -5
v -4 6 -6
v -3 6 -6
v -6 7 5
v -5 7 5
v 1 7 5
v 3 7 5
v -6 7 4
v -5 7 4
v 1 7 4
v 2 7 4
v -5 7 -1
v -5 7 -2
v -6 7 -4
v -5 7 -4
v 1 7 -4
v 2 7 -4
v -6 7 -5
v -5 7 -5
v 1 7 -5
v 3 7 -5
v -5 8 5
v -4 8 5
v -5 8 4
v -4 8 4
v -5 8 -1
v -4 8 -1
v -5 8 -2
v -4 8 -2
v -5 8 -4
v -4 8 -4
v -5 8 -5
v -4 8 -5

# faces
f 3/10/1 2/10/1 1/10/1
f 4/10/1 2/10/1 3/10/1
f 11/10/1 7/10/1 6/10/1
f 11/11/1 8/11/1 7/11/1
f 12/10/1 9/10/1 8/10/1
f 12/11/1 8/11/1 11/11/1
f 13/8/1 6/8/1 5/8/1
f 14/10/1 11/10/1 6/10/1
f 14/8/1 6/8/1 13/8/1
f 14/10/1 12/10/1 11/10/1
f 15/10/1 9/10/1 12/10/1
f 15/10/1 12/10/1 14/10/1
f 15/8/1 10/8/1 9/8/1
f 16/8/1 10/8/1 15/8/1
f 17/1/1 14/1/1 13/1/1
f 18/8/1 15/8/1 14/8/1
f 18/1/1 14/1/1 17/1/1
f 19/1/1 16/1/1 15/1/1
f 19/8/1 15/8/1 18/8/1
f 20/1/1 16/1/1 19/1/1
f 25/14/1 22/14/1 21/14/1
f 26/14/1 22/14/1 25/14/1
f 27/14/1 24/14/1 23/14/1
f 28/14/1 24/14/1 27/14/1
f 29/14/1 25/14/1 21/14/1
f 30/14/1 24/14/1 28/14/1
f 31/14/1 29/14/1 21/14/1
f 32/14/1 29/14/1 31/14/1
f 33/14/1 24/14/1 30/14/1
f 34/14/1 24/14/1 33/14/1
f 37/7/1 36/7/1 35/7/1
f 38/7/1 36/7/1 37/7/1
f 47/8/1 40/8/1 39/8/1
f 48/5/1 41/5/1 40/5/1
f 48/8/1 40/8/1 47/8/1
f 49/4/1 42/4/1 41/4/1
f 49/5/1 41/5/1 48/5/1
f 50/5/1 43/5/1 42/5/1
f 50/4/1 42/4/1 49/4/1
f 51/4/1 44/4/1 43/4/1
f 51/5/1 43/5/1 50/5/1
f 52/5/1 45/5/1 44/5/1
f 52/4/1 44/4/1 51/4/1
f 53/8/1 46/8/1 45/8/1
f 53/5/1 45/5/1 52/5/1
f 54/8/1 46/8/1 53/8/1
f 63/8/1 56/8/1 55/8/1
f 64/5/1 57/5/1 56/5/1
f 64/8/1 56/8/1 63/8/1
f 64/5/1 58/5/1 57/5/1
f 64/5/1 61/5/1 60/5/1
f 64/5/1 60/5/1 59/5/1
f 64/5/1 59/5/1 58/5/1
f 65/8/1 62/8/1 61/8/1
f 65/5/1 61/5/1 64/5/1
f 66/8/1 62/8/1 65/8/1
f 73/8/1 68/8/1 67/8/1
f 74/5/1 69/5/1 68/5/1
f 74/8/1 68/8/1 73/8/1
f 75/4/1 70/4/1 69/4/1
f 75/5/1 69/5/1 74/5/1
f 76/5/1 71/5/1 70/5/1
f 76/4/1 70/4/1 75/4/1
f 77/8/1 72/8/1 71/8/1
f 77/5/1 71/5/1 76/5/1
f 78/8/1 72/8/1 77/8/1
f 83/8/1 80/8/1 79/8/1
f 84/8/1 80/8/1 83/8/1
f 85/8/1 82/8/1 81/8/1
f 86/8/1 82/8/1 85/8/1
f 89/13/1 88/13/1 87/13/1
f 90/13/1 88/13/1 89/13/1
f 93/13/1 92/13/1 91/13/1
f 94/13/1 92/13/1 93/13/1
f 98/13/1 96/13/1 95/13/1
f 99/13/1 96/13/1 98/13/1
f 101/3/1 98/3/1 97/3/1
f 102/3/1 98/3/1 101/3/1
f 103/3/1 100/3/1 99/3/1
f 104/3/1 100/3/1 103/3/1
f 107/3/1 106/3/1 105/3/1
f 108/3/1 106/3/1 107/3/1
f 113/14/1 110/14/1 109/14/1
f 114/14/1 110/14/1 113/14/1
f 115/14/1 112/14/1 111/14/1
f 116/14/1 112/14/1 115/14/1
f 117/14/1 113/14/1 109/14/1
f 118/14/1 112/14/1 116/14/1
f 119/14/1 117/14/1 109/14/1
f 120/14/1 117/14/1 119/14/1
f 121/14/1 112/14/1 118/14/1
f 122/14/1 112/14/1 121/14/1
f 125/10/1 124/10/1 123/10/1
f 126/10/1 124/10/1 125/10/1
f 127/8/1 126/8/1 125/8/1
f 128/8/1 126/8/1 127/8/1
f 131/10/1 130/10/1 129/10/1
f 132/10/1 130/10/1 131/10/1
f 133/10/2 134/10/2 135/10/2
f 135/10/2 134/10/2 136/10/2
f 136/10/2 134/10/2 137/10/2
f 137/10/2 134/10/2 138/10/2
f 138/10/2 134/10/2 139/10/2
f 139/10/2 134/10/2 140/10/2
f 135/8/2 136/8/2 141/8/2
f 136/10/2 137/10/2 142/10/2
f 141/8/2 136/8/2 142/8/2
f 137/11/2 138/11/2 143/11/2
f 142/10/2 137/10/2 143/10/2
f 138/10/2 139/10/2 144/10/2
f 143/11/2 138/11/2 144/11/2
f 139/8/2 140/8/2 145/8/2
f 144/10/2 139/10/2 145/10/2
f 145/8/2 140/8/2 146/8/2
f 147/14/2 148/14/2 151/14/2
f 151/14/2 148/14/2 152/14/2
f 149/14/2 150/14/2 153/14/2
f 153/14/2 150/14/2 154/14/2
f 147/14/2 151/14/2 155/14/2
f 154/14/2 150/14/2 156/14/2
f 147/14/2 155/14/2 157/14/2
f 157/14/2 155/14/2 158/14/2
f 156/14/2 150/14/2 159/14/2
f 159/14/2 150/14/2 160/14/2
f 161/5/2 162/5/2 167/5/2
f 162/4/2 163/4/2 168/4/2
f 167/5/2 162/5/2 168/5/2
f 163/5/2 164/5/2 169/5/2
f 168/4/2 163/4/2 169/4/2
f 164/4/2 165/4/2 170/4/2
f 169/5/2 164/5/2 170/5/2
f 165/5/2 166/5/2 171/5/2
f 170/4/2 165/4/2 171/4/2
f 171/5/2 166/5/2 172/5/2
f 173/8/2 174/8/2 177/8/2
f 177/8/2 174/8/2 178/8/2
f 175/8/2 176/8/2 179/8/2
f 179/8/2 176/8/2 180/8/2
f 181/5/2 182/5/2 183/5/2
f 183/5/2 182/5/2 184/5/2
f 184/5/2 182/5/2 185/5/2
f 185/5/2 182/5/2 186/5/2
f 187/8/2 188/8/2 191/8/2
f 189/8/2 190/8/2 194/8/2
f 187/8/2 191/8/2 195/8/2
f 191/5/2 192/5/2 196/5/2
f 195/8/2 191/8/2 196/8/2
f 192/4/2 193/4/2 197/4/2
f 196/5/2 192/5/2 197/5/2
f 193/5/2 194/5/2 198/5/2
f 197/4/2 193/4/2 198/4/2
f 194/8/2 190/8/2 199/8/2
f 198/5/2 194/5/2 199/5/2
f 199/8/2 190/8/2 200/8/2
f 201/8/2 202/8/2 205/8/2
f 205/8/2 202/8/2 206/8/2
f 203/8/2 204/8/2 207/8/2
f 207/8/2 204/8/2 208/8/2
f 209/13/2 210/13/2 211/13/2
f 211/13/2 210/13/2 212/13/2
f 209/13/2 211/13/2 213/13/2
f 213/13/2 211/13/2 214/13/2
f 215/7/2 216/7/2 217/7/2
f 217/7/2 216/7/2 218/7/2
f 219/3/2 220/3/2 221/3/2
f 221/3/2 220/3/2 222/3/2
f 223/3/2 224/3/2 225/3/2
f 225/3/2 224/3/2 226/3/2
f 227/14/2 228/14/2 231/14/2
f 231/14/2 228/14/2 232/14/2
f 229/14/2 230/14/2 233/14/2
f 233/14/2 230/14/2 234/14/2
f 227/14/2 231/14/2 235/14/2
f 234/14/2 230/14/2 236/14/2
f 227/14/2 235/14/2 237/14/2
f 237/14/2 235/14/2 238/14/2
f 236/14/2 230/14/2 239/14/2
f 239/14/2 230/14/2 240/14/2
f 241/8/2 242/8/2 243/8/2
f 243/8/2 242/8/2 244/8/2
f 245/8/2 246/8/2 249/8/2
f 247/8/2 248/8/2 249/8/2
f 246/8/2 247/8/2 249/8/2
f 249/8/2 248/8/2 250/8/2
f 251/10/2 252/10/2 255/10/2
f 253/10/2 254/10/2 255/10/2
f 252/10/2 253/10/2 255/10/2
f 255/10/2 254/10/2 256/10/2
f 256/10/2 254/10/2 257/10/2
f 257/10/2 254/10/2 258/10/2
f 255/2/2 256/2/2 259/2/2
f 256/12/2 257/12/2 260/12/2
f 259/2/2 256/2/2 260/2/2
f 257/2/2 258/2/2 261/2/2
f 260/12/2 257/12/2 261/12/2
f 261/2/2 258/2/2 262/2/2
f 263/10/2 264/10/2 265/10/2
f 265/10/2 264/10/2 266/10/2
f 269/14/3 268/14/3 267/14/3
f 270/14/3 268/14/3 269/14/3
f 271/14/3 269/14/3 267/14/3
f 271/10/3 270/10/3 269/10/3
f 272/14/3 268/14/3 270/14/3
f 272/10/3 270/10/3 271/10/3
f 273/14/3 271/14/3 267/14/3
f 273/14/3 272/14/3 271/14/3
f 274/14/3 268/14/3 272/14/3
f 274/14/3 272/14/3 273/14/3
f 277/8/3 276/8/3 275/8/3
f 278/8/3 276/8/3 277/8/3
f 281/14/3 280/14/3 279/14/3
f 282/14/3 280/14/3 281/14/3
f 283/14/3 281/14/3 279/14/3
f 283/10/3 282/10/3 281/10/3
f 284/14/3 280/14/3 282/14/3
f 284/10/3 282/10/3 283/10/3
f 285/14/3 283/14/3 279/14/3
f 285/14/3 284/14/3 283/14/3
f 286/14/3 280/14/3 284/14/3
f 286/14/3 284/14/3 285/14/3
f 289/10/3 288/10/3 287/10/3
f 292/10/3 289/10/3 287/10/3
f 293/8/3 290/8/3 289/8/3
f 293/10/3 289/10/3 292/10/3
f 294/8/3 290/8/3 293/8/3
f 295/1/3 291/1/3 290/1/3
f 295/8/3 290/8/3 294/8/3
f 296/1/3 291/1/3 295/1/3
f 299/9/3 295/9/3 294/9/3
f 300/8/3 296/8/3 295/8/3
f 300/9/3 295/9/3 299/9/3
f 301/8/3 299/8/3 298/8/3
f 301/8/3 296/8/3 300/8/3
f 301/8/3 300/8/3 299/8/3
f 303/8/3 302/8/3 301/8/3
f 305/8/3 301/8/3 298/8/3
f 305/8/3 304/8/3 303/8/3
f 305/8/3 303/8/3 301/8/3
f 305/10/3 298/10/3 297/10/3
f 306/8/3 304/8/3 305/8/3
f 307/8/3 304/8/3 306/8/3
f 309/10/3 305/10/3 297/10/3
f 309/9/3 306/9/3 305/9/3
f 310/9/3 306/9/3 309/9/3
f 311/8/3 308/8/3 307/8/3
f 311/9/3 306/9/3 310/9/3
f 311/8/3 307/8/3 306/8/3
f 312/8/3 308/8/3 311/8/3
f 313/8/3 310/8/3 309/8/3
f 315/8/3 313/8/3 309/8/3
f 315/8/3 314/8/3 313/8/3
f 316/8/3 314/8/3 315/8/3
f 317/8/3 315/8/3 309/8/3
f 317/9/3 316/9/3 315/9/3
f 318/8/3 314/8/3 316/8/3
f 318/9/3 316/9/3 317/9/3
f 319/8/3 314/8/3 318/8/3
f 321/8/3 318/8/3 317/8/3
f 321/13/3 319/13/3 318/13/3
f 322/3/3 320/3/3 319/3/3
f 322/13/3 319/13/3 321/13/3
f 323/10/3 309/10/3 297/10/3
f 324/8/3 317/8/3 309/8/3
f 324/10/3 309/10/3 323/10/3
f 324/8/3 321/8/3 317/8/3
f 325/8/3 321/8/3 324/8/3
f 326/8/3 321/8/3 325/8/3
f 327/3/3 320/3/3 322/3/3
f 327/3/3 322/3/3 321/3/3
f 328/3/3 320/3/3 327/3/3
f 329/8/3 321/8/3 326/8/3
f 329/3/3 327/3/3 321/3/3
f 330/3/3 327/3/3 329/3/3
f 333/9/3 326/9/3 325/9/3
f 334/8/3 329/8/3 326/8/3
f 334/9/3 326/9/3 333/9/3
f 335/8/3 329/8/3 334/8/3
f 336/10/3 332/10/3 331/10/3
f 336/8/3 333/8/3 332/8/3
f 336/8/3 334/8/3 333/8/3
f 337/8/3 334/8/3 336/8/3
f 338/8/3 334/8/3 337/8/3
f 339/10/3 336/10/3 331/10/3
f 340/2/3 337/2/3 336/2/3
f 340/10/3 336/10/3 339/10/3
f 341/2/3 337/2/3 340/2/3
f 344/10/3 343/10/3 342/10/3
f 345/10/3 344/10/3 342/10/3
f 346/10/3 344/10/3 345/10/3
f 349/13/3 348/13/3 347/13/3
f 351/13/3 349/13/3 347/13/3
f 351/13/3 350/13/3 349/13/3
f 352/13/3 350/13/3 351/13/3
f 357/14/3 354/14/3 353/14/3
f 357/10/3 355/10/3 354/10/3
f 358/13/3 356/13/3 355/13/3
f 358/10/3 355/10/3 357/10/3
f 359/14/3 357/14/3 353/14/3
f 360/13/3 358/13/3 357/13/3
f 360/14/3 357/14/3 359/14/3
f 361/13/3 356/13/3 358/13/3
f 361/13/3 358/13/3 360/13/3
f 365/8/3 363/8/3 362/8/3
f 366/8/3 363/8/3 365/8/3
f 368/9/3 365/9/3 364/9/3
f 368/9/3 366/9/3 365/9/3
f 369/8/3 367/8/3 366/8/3
f 369/9/3 366/9/3 368/9/3
f 370/8/3 367/8/3 369/8/3
f 371/8/3 369/8/3 368/8/3
f 372/8/3 369/8/3 371/8/3
f 373/8/3 369/8/3 372/8/3
f 374/8/3 369/8/3 373/8/3
f 376/3/3 375/3/3 374/3/3
f 377/3/3 375/3/3 376/3/3
f 381/14/3 379/14/3 378/14/3
f 382/13/3 380/13/3 379/13/3
f 382/14/3 379/14/3 381/14/3
f 383/13/3 380/13/3 382/13/3
f 384/13/3 380/13/3 383/13/3
f 385/14/4 386/14/4 389/14/4
f 387/13/4 388/13/4 390/13/4
f 389/14/4 386/14/4 390/14/4
f 386/13/4 387/13/4 390/13/4
f 390/13/4 388/13/4 391/13/4
f 392/8/4 393/8/4 395/8/4
f 395/8/4 393/8/4 396/8/4
f 394/9/4 395/9/4 398/9/4
f 395/9/4 396/9/4 398/9/4
f 396/8/4 397/8/4 399/8/4
f 398/9/4 396/9/4 399/9/4
f 399/8/4 397/8/4 400/8/4
f 398/8/4 399/8/4 401/8/4
f 401/8/4 399/8/4 402/8/4
f 402/8/4 399/8/4 403/8/4
f 403/8/4 399/8/4 404/8/4
f 404/3/4 405/3/4 406/3/4
f 406/3/4 405/3/4 407/3/4
f 408/14/4 409/14/4 411/14/4
f 409/13/4 410/13/4 412/13/4
f 411/14/4 409/14/4 412/14/4
f 412/13/4 410/13/4 413/13/4
f 413/13/4 410/13/4 414/13/4
f 415/10/4 416/10/4 417/10/4
f 415/10/4 417/10/4 418/10/4
f 418/10/4 417/10/4 419/10/4
f 420/13/4 421/13/4 422/13/4
f 422/13/4 421/13/4 423/13/4
f 424/13/4 425/13/4 426/13/4
f 426/13/4 425/13/4 427/13/4
f 428/10/4 429/10/4 430/10/4
f 428/10/4 430/10/4 433/10/4
f 430/8/4 431/8/4 434/8/4
f 433/10/4 430/10/4 434/10/4
f 434/8/4 431/8/4 435/8/4
f 431/1/4 432/1/4 436/1/4
f 435/8/4 431/8/4 436/8/4
f 436/1/4 432/1/4 437/1/4
f 435/9/4 436/9/4 440/9/4
f 436/8/4 437/8/4 441/8/4
f 440/9/4 436/9/4 441/9/4
f 439/8/4 440/8/4 442/8/4
f 441/8/4 437/8/4 442/8/4
f 440/8/4 441/8/4 442/8/4
f 442/8/4 443/8/4 444/8/4
f 439/8/4 442/8/4 446/8/4
f 444/8/4 445/8/4 446/8/4
f 442/8/4 444/8/4 446/8/4
f 438/10/4 439/10/4 446/10/4
f 446/8/4 445/8/4 447/8/4
f 447/8/4 445/8/4 448/8/4
f 438/10/4 446/10/4 450/10/4
f 446/9/4 447/9/4 450/9/4
f 450/9/4 447/9/4 451/9/4
f 448/8/4 449/8/4 452/8/4
f 451/9/4 447/9/4 452/9/4
f 447/8/4 448/8/4 452/8/4
f 452/8/4 449/8/4 453/8/4
f 450/8/4 451/8/4 454/8/4
f 450/8/4 454/8/4 456/8/4
f 454/8/4 455/8/4 456/8/4
f 456/8/4 455/8/4 457/8/4
f 450/8/4 456/8/4 458/8/4
f 456/9/4 457/9/4 458/9/4
f 457/8/4 455/8/4 459/8/4
f 458/9/4 457/9/4 459/9/4
f 459/8/4 455/8/4 460/8/4
f 458/8/4 459/8/4 462/8/4
f 459/13/4 460/13/4 462/13/4
f 460/3/4 461/3/4 463/3/4
f 462/13/4 460/13/4 463/13/4
f 438/10/4 450/10/4 464/10/4
f 450/8/4 458/8/4 465/8/4
f 464/10/4 450/10/4 465/10/4
f 458/8/4 462/8/4 465/8/4
f 465/8/4 462/8/4 466/8/4
f 466/8/4 462/8/4 467/8/4
f 463/3/4 461/3/4 468/3/4
f 462/3/4 463/3/4 468/3/4
f 468/3/4 461/3/4 469/3/4
f 467/8/4 462/8/4 470/8/4
f 462/3/4 468/3/4 470/3/4
f 470/3/4 468/3/4 471/3/4
f 466/9/4 467/9/4 474/9/4
f 467/8/4 470/8/4 475/8/4
f 474/9/4 467/9/4 475/9/4
f 475/8/4 470/8/4 476/8/4
f 472/10/4 473/10/4 477/10/4
f 473/8/4 474/8/4 477/8/4
f 474/8/4 475/8/4 477/8/4
f 477/8/4 475/8/4 478/8/4
f 478/8/4 475/8/4 479/8/4
f 472/10/4 477/10/4 480/10/4
f 477/2/4 478/2/4 481/2/4
f 480/10/4 477/10/4 481/10/4
f 481/2/4 478/2/4 482/2/4
f 483/14/4 484/14/4 485/14/4
f 485/14/4 484/14/4 486/14/4
f 483/14/4 485/14/4 487/14/4
f 485/10/4 486/10/4 487/10/4
f 486/14/4 484/14/4 488/14/4
f 487/10/4 486/10/4 488/10/4
f 483/14/4 487/14/4 489/14/4
f 487/14/4 488/14/4 489/14/4
f 488/14/4 484/14/4 490/14/4
f 489/14/4 488/14/4 490/14/4
f 491/8/4 492/8/4 493/8/4
f 493/8/4 492/8/4 494/8/4
f 495/14/4 496/14/4 497/14/4
f 497/14/4 496/14/4 498/14/4
f 495/14/4 497/14/4 499/14/4
f 497/10/4 498/10/4 499/10/4
f 498/14/4 496/14/4 500/14/4
f 499/10/4 498/10/4 500/10/4
f 495/14/4 499/14/4 501/14/4
f 499/14/4 500/14/4 501/14/4
f 500/14/4 496/14/4 502/14/4
f 501/14/4 500/14/4 502/14/4
f 507/14/5 504/14/5 503/14/5
f 508/14/5 504/14/5 507/14/5
f 509/14/5 506/14/5 505/14/5
f 510/14/5 506/14/5 509/14/5
f 513/10/5 512/10/5 511/10/5
f 514/10/5 512/10/5 513/10/5
f 519/14/5 516/14/5 515/14/5
f 520/14/5 516/14/5 519/14/5
f 521/14/5 518/14/5 517/14/5
f 522/14/5 518/14/5 521/14/5
f 529/10/5 524/10/5 523/10/5
f 530/10/5 526/10/5 525/10/5
f 531/10/5 526/10/5 530/10/5
f 532/10/5 528/10/5 527/10/5
f 533/10/5 528/10/5 532/10/5
f 534/10/5 528/10/5 533/10/5
f 535/10/5 533/10/5 532/10/5
f 537/10/5 529/10/5 523/10/5
f 538/7/5 531/7/5 530/7/5
f 539/7/5 531/7/5 538/7/5
f 540/10/5 536/10/5 535/10/5
f 540/10/5 535/10/5 532/10/5
f 541/10/5 537/10/5 523/10/5
f 542/10/5 537/10/5 541/10/5
f 543/10/5 539/10/5 538/10/5
f 544/10/5 539/10/5 543/10/5
f 545/10/5 536/10/5 540/10/5
f 546/10/5 536/10/5 545/10/5
f 551/7/5 548/7/5 547/7/5
f 552/7/5 548/7/5 551/7/5
f 553/7/5 548/7/5 552/7/5
f 554/7/5 548/7/5 553/7/5
f 555/7/5 548/7/5 554/7/5
f 556/7/5 548/7/5 555/7/5
f 557/7/5 550/7/5 549/7/5
f 558/7/5 550/7/5 557/7/5
f 561/8/5 560/8/5 559/8/5
f 562/8/5 560/8/5 561/8/5
f 565/8/5 564/8/5 563/8/5
f 566/8/5 564/8/5 565/8/5
f 569/5/5 568/5/5 567/5/5
f 570/5/5 568/5/5 569/5/5
f 571/5/5 568/5/5 570/5/5
f 572/5/5 568/5/5 571/5/5
f 573/5/5 568/5/5 572/5/5
f 574/5/5 568/5/5 573/5/5
f 577/5/5 576/5/5 575/5/5
f 578/5/5 576/5/5 577/5/5
f 579/4/5 578/4/5 577/4/5
f 580/4/5 578/4/5 579/4/5
f 581/5/5 580/5/5 579/5/5
f 582/5/5 580/5/5 581/5/5
f 583/10/6 584/10/6 585/10/6
f 585/10/6 584/10/6 586/10/6
f 587/10/6 588/10/6 589/10/6
f 587/10/6 589/10/6 590/10/6
f 587/10/6 590/10/6 591/10/6
f 587/10/6 591/10/6 592/10/6
f 587/10/6 592/10/6 593/10/6
f 593/10/6 592/10/6 594/10/6
f 595/14/6 596/14/6 599/14/6
f 599/14/6 596/14/6 600/14/6
f 597/14/6 598/14/6 601/14/6
f 601/14/6 598/14/6 602/14/6
f 603/2/6 604/2/6 605/2/6
f 605/2/6 604/2/6 606/2/6
f 605/12/6 606/12/6 607/12/6
f 607/12/6 606/12/6 608/12/6
f 607/2/6 608/2/6 613/2/6
f 613/2/6 608/2/6 614/2/6
f 609/14/6 610/14/6 615/14/6
f 615/14/6 610/14/6 616/14/6
f 611/14/6 612/14/6 617/14/6
f 617/14/6 612/14/6 618/14/6
f 621/13/6 622/13/6 624/13/6
f 622/13/6 623/13/6 624/13/6
f 624/13/6 623/13/6 625/13/6
f 625/13/6 623/13/6 627/13/6
f 626/13/6 627/13/6 628/13/6
f 628/13/6 627/13/6 629/13/6
f 627/13/6 623/13/6 630/13/6
f 629/13/6 627/13/6 630/13/6
f 619/8/6 620/8/6 631/8/6
f 631/8/6 620/8/6 632/8/6
f 634/8/6 635/8/6 638/8/6
f 633/1/6 634/1/6 643/1/6
f 634/8/6 638/8/6 644/8/6
f 643/1/6 634/1/6 644/1/6
f 643/8/6 644/8/6 645/8/6
f 644/8/6 638/8/6 645/8/6
f 639/8/6 640/8/6 646/8/6
f 643/8/6 645/8/6 647/8/6
f 646/8/6 640/8/6 648/8/6
f 648/8/6 640/8/6 649/8/6
f 649/13/6 650/13/6 651/13/6
f 648/8/6 649/8/6 653/8/6
f 651/13/6 652/13/6 653/13/6
f 649/13/6 651/13/6 653/13/6
f 653/13/6 652/13/6 654/13/6
f 643/8/6 647/8/6 655/8/6
f 648/8/6 653/8/6 656/8/6
f 643/8/6 655/8/6 657/8/6
f 657/8/6 655/8/6 658/8/6
f 658/8/6 655/8/6 659/8/6
f 656/8/6 653/8/6 660/8/6
f 658/8/6 659/8/6 661/8/6
f 660/8/6 653/8/6 662/8/6
f 662/8/6 653/8/6 663/8/6
f 641/13/6 642/13/6 664/13/6
f 664/13/6 642/13/6 665/13/6
f 657/1/6 658/1/6 666/1/6
f 658/8/6 661/8/6 667/8/6
f 666/1/6 658/1/6 667/1/6
f 667/8/6 661/8/6 668/8/6
f 636/8/6 637/8/6 669/8/6
f 669/8/6 637/8/6 670/8/6
f 671/8/6 672/8/6 675/8/6
f 675/8/6 672/8/6 676/8/6
f 673/8/6 674/8/6 680/8/6
f 680/8/6 674/8/6 681/8/6
f 675/8/6 676/8/6 682/8/6
f 676/8/6 677/8/6 682/8/6
f 682/8/6 677/8/6 683/8/6
f 680/5/6 681/5/6 685/5/6
f 685/5/6 681/5/6 686/5/6
f 685/4/6 686/4/6 687/4/6
f 687/4/6 686/4/6 688/4/6
f 689/13/6 690/13/6 691/13/6
f 691/13/6 690/13/6 692/13/6
f 687/5/6 688/5/6 693/5/6
f 693/5/6 688/5/6 694/5/6
f 693/4/6 694/4/6 695/4/6
f 695/4/6 694/4/6 696/4/6
f 695/5/6 696/5/6 697/5/6
f 697/5/6 696/5/6 698/5/6
f 683/13/6 684/13/6 700/13/6
f 700/13/6 684/13/6 701/13/6
f 697/8/6 698/8/6 702/8/6
f 702/8/6 698/8/6 703/8/6
f 699/8/6 700/8/6 704/8/6
f 704/8/6 700/8/6 705/8/6
f 705/8/6 700/8/6 706/8/6
f 678/3/6 679/3/6 707/3/6
f 707/3/6 679/3/6 708/3/6
f 704/8/6 705/8/6 709/8/6
f 709/8/6 705/8/6 710/8/6
f 711/8/6 712/8/6 715/8/6
f 715/8/6 712/8/6 716/8/6
f 713/3/6 714/3/6 717/3/6
f 717/3/6 714/3/6 718/3/6
f 715/5/6 716/5/6 719/5/6
f 715/5/6 719/5/6 720/5/6
f 715/5/6 720/5/6 721/5/6
f 721/5/6 720/5/6 722/5/6
f 718/3/6 714/3/6 724/3/6
f 721/8/6 722/8/6 725/8/6
f 725/8/6 722/8/6 726/8/6
f 723/3/6 724/3/6 727/3/6
f 724/3/6 714/3/6 728/3/6
f 727/3/6 724/3/6 728/3/6
f 729/8/6 730/8/6 731/8/6
f 731/8/6 730/8/6 732/8/6
f 731/5/6 732/5/6 733/5/6
f 733/5/6 732/5/6 734/5/6
f 733/4/6 734/4/6 735/4/6
f 735/4/6 734/4/6 736/4/6
f 735/5/6 736/5/6 737/5/6
f 737/5/6 736/5/6 738/5/6
f 737/8/6 738/8/6 739/8/6
f 739/8/6 738/8/6 740/8/6
