# MagicaVoxel @ Ephtracy

# group
o 

# material
mtllib Bus_stop.mtl
usemtl palette

# normals
vn -1 0 0
vn 1 0 0
vn 0 0 1
vn 0 0 -1
vn 0 -1 0
vn 0 1 0

# texcoords
vt 0.0136719 0.5
vt 0.130859 0.5
vt 0.146484 0.5
vt 0.162109 0.5
vt 0.900391 0.5
vt 0.908203 0.5

# verts
v 2.7 3 -0.3
v 2.7 3 -0.6
v 2.7 3 -1.3
v 2.7 3 -1.5
v 2.7 3 -4.3
v 2.7 3 -4.5
v 2.7 3.5 -0.3
v 2.7 3.5 -0.4
v 2.7 3.5 -0.5
v 2.7 3.5 -0.6
v 2.7 6.1 -0.3
v 2.7 6.1 -0.4
v 2.7 6.1 -0.5
v 2.7 6.1 -0.6
v 2.7 6.4 -1.3
v 2.7 6.4 -1.5
v 2.7 6.4 -4.3
v 2.7 6.4 -4.5
v 2.8 6.1 -0.4
v 2.8 6.1 -0.5
v 2.8 6.4 -0.4
v 2.8 6.4 -0.5
v 2.9 3 -5.4
v 2.9 3 -5.8
v 2.9 6.4 -0.4
v 2.9 6.4 -0.5
v 2.9 6.4 -1.3
v 2.9 6.4 -1.5
v 2.9 6.4 -4.3
v 2.9 6.4 -4.5
v 2.9 6.4 -5.4
v 2.9 6.5 -0.4
v 2.9 6.5 -5.8
v 4.5 6.1 -0.4
v 4.5 6.1 -0.5
v 4.5 6.1 -3.5
v 4.5 6.1 -5
v 4.5 6.3 -4.3
v 4.5 6.3 -4.5
v 4.5 6.4 -0.4
v 4.5 6.4 -0.5
v 4.5 6.4 -3.5
v 4.5 6.4 -4.3
v 4.5 6.4 -4.5
v 4.5 6.4 -5
v 2.8 3 -1.3
v 2.8 3 -1.5
v 2.8 3 -4.3
v 2.8 3 -4.5
v 2.8 3.7 -1.3
v 2.8 3.7 -1.5
v 2.8 3.7 -4.3
v 2.8 3.7 -4.5
v 2.8 3.9 -1.3
v 2.8 3.9 -1.5
v 2.8 3.9 -4.3
v 2.8 3.9 -4.5
v 2.8 6.3 -1.3
v 2.8 6.3 -1.5
v 2.8 6.3 -4.3
v 2.8 6.3 -4.5
v 2.8 6.4 -1.5
v 2.8 6.4 -4.3
v 3 6.1 -0.4
v 3 6.1 -0.5
v 3 6.4 -0.4
v 3 6.4 -0.5
v 3.4 3 -5.4
v 3.4 3 -5.8
v 3.4 3.4 -5.5
v 3.4 3.4 -5.7
v 3.4 3.5 -5.5
v 3.4 3.5 -5.7
v 3.4 6.4 -5.4
v 3.4 6.4 -5.5
v 3.4 6.4 -5.7
v 3.4 6.4 -5.8
v 3.6 3.8 -1.3
v 3.6 3.8 -4.5
v 3.6 3.9 -1.3
v 3.6 3.9 -4.5
v 3.7 3.7 -1.3
v 3.7 3.7 -4.5
v 3.7 3.8 -1.3
v 3.7 3.8 -4.5
v 4.3 3.4 -5.5
v 4.3 3.4 -5.7
v 4.3 6.4 -5.5
v 4.3 6.4 -5.7
v 4.5 6.3 -1.3
v 4.5 6.3 -1.5
v 4.5 6.4 -1.3
v 4.5 6.4 -1.5
v 4.6 6.1 -3.5
v 4.6 6.1 -5
v 4.6 6.4 -0.4
v 4.6 6.4 -0.5
v 4.6 6.4 -3.5
v 4.6 6.4 -5
v 4.6 6.4 -5.8
v 4.6 6.5 -0.4
v 4.6 6.5 -5.8
v 4.7 6.1 -0.4
v 4.7 6.1 -0.5
v 4.7 6.4 -0.4
v 4.7 6.4 -0.5
v 4.8 3 -0.3
v 4.8 3 -0.6
v 4.8 3.5 -0.3
v 4.8 3.5 -0.4
v 4.8 3.5 -0.5
v 4.8 3.5 -0.6
v 4.8 6.1 -0.3
v 4.8 6.1 -0.4
v 4.8 6.1 -0.5
v 4.8 6.1 -0.6
v 2.7 3 -0.3
v 2.7 3.5 -0.3
v 2.7 6.1 -0.3
v 2.8 3.6 -0.3
v 2.8 6 -0.3
v 4.7 3.6 -0.3
v 4.7 6 -0.3
v 4.8 3 -0.3
v 4.8 3.5 -0.3
v 4.8 6.1 -0.3
v 2.8 6.1 -0.4
v 2.8 6.4 -0.4
v 2.9 6.4 -0.4
v 2.9 6.5 -0.4
v 3 6.1 -0.4
v 3 6.4 -0.4
v 4.5 6.1 -0.4
v 4.5 6.4 -0.4
v 4.6 6.4 -0.4
v 4.6 6.5 -0.4
v 4.7 6.1 -0.4
v 4.7 6.4 -0.4
v 2.7 3 -1.3
v 2.7 6.4 -1.3
v 2.8 3 -1.3
v 2.8 3.7 -1.3
v 2.8 3.9 -1.3
v 2.8 6.3 -1.3
v 2.9 6.4 -1.3
v 3.6 3.8 -1.3
v 3.6 3.9 -1.3
v 3.7 3.7 -1.3
v 3.7 3.8 -1.3
v 4.5 6.3 -1.3
v 4.5 6.4 -1.3
v 4.5 6.1 -3.5
v 4.5 6.4 -3.5
v 4.6 6.1 -3.5
v 4.6 6.4 -3.5
v 2.8 6.3 -4.3
v 2.8 6.4 -4.3
v 2.9 6.4 -4.3
v 4.5 6.3 -4.3
v 4.5 6.4 -4.3
v 2.9 3 -5.4
v 2.9 6.4 -5.4
v 3.4 3 -5.4
v 3.4 6.4 -5.4
v 3.4 3.4 -5.5
v 3.4 3.5 -5.5
v 3.4 6.4 -5.5
v 4.2 3.5 -5.5
v 4.2 6.4 -5.5
v 4.3 3.4 -5.5
v 4.3 6.4 -5.5
v 2.8 6.1 -0.5
v 2.8 6.4 -0.5
v 2.9 6.4 -0.5
v 3 6.1 -0.5
v 3 6.4 -0.5
v 4.5 6.1 -0.5
v 4.5 6.4 -0.5
v 4.6 6.4 -0.5
v 4.7 6.1 -0.5
v 4.7 6.4 -0.5
v 2.7 3 -0.6
v 2.7 3.5 -0.6
v 2.7 6.1 -0.6
v 2.8 3.6 -0.6
v 2.8 6 -0.6
v 4.7 3.6 -0.6
v 4.7 6 -0.6
v 4.8 3 -0.6
v 4.8 3.5 -0.6
v 4.8 6.1 -0.6
v 2.8 6.3 -1.5
v 2.8 6.4 -1.5
v 2.9 6.4 -1.5
v 4.5 6.3 -1.5
v 4.5 6.4 -1.5
v 2.7 3 -4.5
v 2.7 6.4 -4.5
v 2.8 3 -4.5
v 2.8 3.7 -4.5
v 2.8 3.9 -4.5
v 2.8 6.3 -4.5
v 2.9 6.4 -4.5
v 3.6 3.8 -4.5
v 3.6 3.9 -4.5
v 3.7 3.7 -4.5
v 3.7 3.8 -4.5
v 4.5 6.3 -4.5
v 4.5 6.4 -4.5
v 4.5 6.1 -5
v 4.5 6.4 -5
v 4.6 6.1 -5
v 4.6 6.4 -5
v 3.4 3.4 -5.7
v 3.4 3.5 -5.7
v 3.4 6.4 -5.7
v 4.2 3.5 -5.7
v 4.2 6.4 -5.7
v 4.3 3.4 -5.7
v 4.3 6.4 -5.7
v 2.9 3 -5.8
v 2.9 6.5 -5.8
v 3.4 3 -5.8
v 3.4 6.4 -5.8
v 4.6 6.4 -5.8
v 4.6 6.5 -5.8
v 2.7 3 -0.3
v 4.8 3 -0.3
v 2.7 3 -0.6
v 4.8 3 -0.6
v 2.7 3 -1.3
v 2.8 3 -1.3
v 2.7 3 -1.5
v 2.8 3 -1.5
v 2.7 3 -4.3
v 2.8 3 -4.3
v 2.7 3 -4.5
v 2.8 3 -4.5
v 2.9 3 -5.4
v 3.4 3 -5.4
v 2.9 3 -5.8
v 3.4 3 -5.8
v 3.4 3.4 -5.5
v 4.3 3.4 -5.5
v 3.4 3.4 -5.7
v 4.3 3.4 -5.7
v 2.8 3.7 -1.3
v 3.7 3.7 -1.3
v 2.8 3.7 -1.5
v 2.8 3.7 -4.3
v 2.8 3.7 -4.5
v 3.7 3.7 -4.5
v 4.5 6.1 -3.5
v 4.6 6.1 -3.5
v 4.5 6.1 -5
v 4.6 6.1 -5
v 2.8 6.3 -1.3
v 4.5 6.3 -1.3
v 2.8 6.3 -1.5
v 4.5 6.3 -1.5
v 2.8 6.3 -4.3
v 4.5 6.3 -4.3
v 2.8 6.3 -4.5
v 4.5 6.3 -4.5
v 3 6.4 -0.4
v 4.5 6.4 -0.4
v 2.9 6.4 -0.5
v 3 6.4 -0.5
v 4.5 6.4 -0.5
v 4.6 6.4 -0.5
v 2.9 6.4 -1.3
v 4.5 6.4 -1.3
v 2.9 6.4 -1.5
v 4.5 6.4 -1.5
v 4.5 6.4 -3.5
v 4.6 6.4 -3.5
v 2.9 6.4 -4.3
v 4.5 6.4 -4.3
v 2.9 6.4 -4.5
v 4.5 6.4 -4.5
v 4.5 6.4 -5
v 4.6 6.4 -5
v 2.9 6.4 -5.4
v 3.4 6.4 -5.4
v 3.4 6.4 -5.5
v 4.2 6.4 -5.5
v 4.3 6.4 -5.5
v 3.4 6.4 -5.7
v 4.2 6.4 -5.7
v 4.3 6.4 -5.7
v 3.4 6.4 -5.8
v 4.6 6.4 -5.8
v 3.6 3.8 -1.3
v 3.7 3.8 -1.3
v 3.6 3.8 -4.5
v 3.7 3.8 -4.5
v 2.8 3.9 -1.3
v 3.6 3.9 -1.3
v 2.8 3.9 -1.5
v 2.8 3.9 -4.3
v 2.8 3.9 -4.5
v 3.6 3.9 -4.5
v 2.7 6.1 -0.3
v 4.8 6.1 -0.3
v 2.7 6.1 -0.4
v 2.8 6.1 -0.4
v 3 6.1 -0.4
v 4.5 6.1 -0.4
v 4.7 6.1 -0.4
v 4.8 6.1 -0.4
v 2.7 6.1 -0.5
v 2.8 6.1 -0.5
v 3 6.1 -0.5
v 4.5 6.1 -0.5
v 4.7 6.1 -0.5
v 4.8 6.1 -0.5
v 2.7 6.1 -0.6
v 4.8 6.1 -0.6
v 2.8 6.4 -0.4
v 2.9 6.4 -0.4
v 4.6 6.4 -0.4
v 4.7 6.4 -0.4
v 2.8 6.4 -0.5
v 2.9 6.4 -0.5
v 4.6 6.4 -0.5
v 4.7 6.4 -0.5
v 2.7 6.4 -1.3
v 2.9 6.4 -1.3
v 2.7 6.4 -1.5
v 2.8 6.4 -1.5
v 2.9 6.4 -1.5
v 2.7 6.4 -4.3
v 2.8 6.4 -4.3
v 2.9 6.4 -4.3
v 2.7 6.4 -4.5
v 2.9 6.4 -4.5
v 2.9 6.5 -0.4
v 4.6 6.5 -0.4
v 2.9 6.5 -5.8
v 4.6 6.5 -5.8

# faces
f 7/3/1 2/3/1 1/3/1
f 8/3/1 2/3/1 7/3/1
f 9/3/1 2/3/1 8/3/1
f 10/3/1 2/3/1 9/3/1
f 11/4/1 8/4/1 7/4/1
f 12/3/1 9/3/1 8/3/1
f 12/4/1 8/4/1 11/4/1
f 13/4/1 10/4/1 9/4/1
f 13/3/1 9/3/1 12/3/1
f 14/4/1 10/4/1 13/4/1
f 15/3/1 4/3/1 3/3/1
f 16/2/1 5/2/1 4/2/1
f 16/3/1 4/3/1 15/3/1
f 17/3/1 6/3/1 5/3/1
f 17/2/1 5/2/1 16/2/1
f 18/3/1 6/3/1 17/3/1
f 21/3/1 20/3/1 19/3/1
f 22/3/1 20/3/1 21/3/1
f 31/3/1 24/3/1 23/3/1
f 32/3/1 30/3/1 29/3/1
f 32/3/1 31/3/1 30/3/1
f 32/3/1 26/3/1 25/3/1
f 32/3/1 27/3/1 26/3/1
f 32/3/1 29/3/1 28/3/1
f 32/3/1 28/3/1 27/3/1
f 33/3/1 24/3/1 31/3/1
f 33/3/1 31/3/1 32/3/1
f 38/1/1 37/1/1 36/1/1
f 39/1/1 37/1/1 38/1/1
f 40/3/1 35/3/1 34/3/1
f 41/3/1 35/3/1 40/3/1
f 42/1/1 38/1/1 36/1/1
f 43/1/1 38/1/1 42/1/1
f 44/1/1 37/1/1 39/1/1
f 45/1/1 37/1/1 44/1/1
f 46/3/2 47/3/2 50/3/2
f 47/2/2 48/2/2 51/2/2
f 50/3/2 47/3/2 51/3/2
f 48/3/2 49/3/2 52/3/2
f 51/2/2 48/2/2 52/2/2
f 52/3/2 49/3/2 53/3/2
f 54/3/2 55/3/2 58/3/2
f 55/2/2 56/2/2 59/2/2
f 58/3/2 55/3/2 59/3/2
f 56/3/2 57/3/2 60/3/2
f 59/2/2 56/2/2 60/2/2
f 60/3/2 57/3/2 61/3/2
f 59/2/2 60/2/2 62/2/2
f 62/2/2 60/2/2 63/2/2
f 64/3/2 65/3/2 66/3/2
f 66/3/2 65/3/2 67/3/2
f 68/3/2 69/3/2 70/3/2
f 70/3/2 69/3/2 71/3/2
f 68/3/2 70/3/2 72/3/2
f 71/3/2 69/3/2 73/3/2
f 68/3/2 72/3/2 74/3/2
f 74/3/2 72/3/2 75/3/2
f 73/3/2 69/3/2 76/3/2
f 76/3/2 69/3/2 77/3/2
f 78/3/2 79/3/2 80/3/2
f 80/3/2 79/3/2 81/3/2
f 82/3/2 83/3/2 84/3/2
f 84/3/2 83/3/2 85/3/2
f 86/3/2 87/3/2 88/3/2
f 88/3/2 87/3/2 89/3/2
f 90/3/2 91/3/2 92/3/2
f 92/3/2 91/3/2 93/3/2
f 94/1/2 95/1/2 98/1/2
f 98/1/2 95/1/2 99/1/2
f 96/3/2 97/3/2 101/3/2
f 99/3/2 100/3/2 101/3/2
f 98/3/2 99/3/2 101/3/2
f 97/3/2 98/3/2 101/3/2
f 101/3/2 100/3/2 102/3/2
f 103/3/2 104/3/2 105/3/2
f 105/3/2 104/3/2 106/3/2
f 107/3/2 108/3/2 109/3/2
f 109/3/2 108/3/2 110/3/2
f 110/3/2 108/3/2 111/3/2
f 111/3/2 108/3/2 112/3/2
f 109/4/2 110/4/2 113/4/2
f 110/3/2 111/3/2 114/3/2
f 113/4/2 110/4/2 114/4/2
f 111/4/2 112/4/2 115/4/2
f 114/3/2 111/3/2 115/3/2
f 115/4/2 112/4/2 116/4/2
f 120/4/3 119/4/3 118/4/3
f 121/4/3 119/4/3 120/4/3
f 122/4/3 120/4/3 118/4/3
f 122/5/3 121/5/3 120/5/3
f 123/4/3 119/4/3 121/4/3
f 123/5/3 121/5/3 122/5/3
f 124/3/3 118/3/3 117/3/3
f 125/4/3 122/4/3 118/4/3
f 125/3/3 118/3/3 124/3/3
f 125/4/3 123/4/3 122/4/3
f 126/4/3 119/4/3 123/4/3
f 126/4/3 123/4/3 125/4/3
f 129/3/3 128/3/3 127/3/3
f 131/3/3 129/3/3 127/3/3
f 131/3/3 130/3/3 129/3/3
f 132/3/3 130/3/3 131/3/3
f 134/3/3 130/3/3 132/3/3
f 135/3/3 130/3/3 134/3/3
f 135/3/3 134/3/3 133/3/3
f 136/3/3 130/3/3 135/3/3
f 137/3/3 135/3/3 133/3/3
f 138/3/3 135/3/3 137/3/3
f 141/3/3 140/3/3 139/3/3
f 142/3/3 140/3/3 141/3/3
f 143/3/3 140/3/3 142/3/3
f 144/3/3 140/3/3 143/3/3
f 145/3/3 140/3/3 144/3/3
f 146/3/3 143/3/3 142/3/3
f 147/3/3 143/3/3 146/3/3
f 148/3/3 146/3/3 142/3/3
f 149/3/3 146/3/3 148/3/3
f 150/3/3 145/3/3 144/3/3
f 151/3/3 145/3/3 150/3/3
f 154/1/3 153/1/3 152/1/3
f 155/1/3 153/1/3 154/1/3
f 158/3/3 157/3/3 156/3/3
f 159/3/3 158/3/3 156/3/3
f 160/3/3 158/3/3 159/3/3
f 163/3/3 162/3/3 161/3/3
f 164/3/3 162/3/3 163/3/3
f 168/3/3 166/3/3 165/3/3
f 168/2/3 167/2/3 166/2/3
f 169/2/3 167/2/3 168/2/3
f 170/3/3 168/3/3 165/3/3
f 170/3/3 169/3/3 168/3/3
f 171/3/3 169/3/3 170/3/3
f 172/3/4 173/3/4 174/3/4
f 172/3/4 174/3/4 175/3/4
f 175/3/4 174/3/4 176/3/4
f 177/3/4 178/3/4 179/3/4
f 177/3/4 179/3/4 180/3/4
f 180/3/4 179/3/4 181/3/4
f 183/4/4 184/4/4 185/4/4
f 185/4/4 184/4/4 186/4/4
f 183/4/4 185/4/4 187/4/4
f 185/5/4 186/5/4 187/5/4
f 186/4/4 184/4/4 188/4/4
f 187/5/4 186/5/4 188/5/4
f 182/3/4 183/3/4 189/3/4
f 183/4/4 187/4/4 190/4/4
f 189/3/4 183/3/4 190/3/4
f 187/4/4 188/4/4 190/4/4
f 188/4/4 184/4/4 191/4/4
f 190/4/4 188/4/4 191/4/4
f 192/3/4 193/3/4 194/3/4
f 192/3/4 194/3/4 195/3/4
f 195/3/4 194/3/4 196/3/4
f 197/3/4 198/3/4 199/3/4
f 199/3/4 198/3/4 200/3/4
f 200/3/4 198/3/4 201/3/4
f 201/3/4 198/3/4 202/3/4
f 202/3/4 198/3/4 203/3/4
f 200/3/4 201/3/4 204/3/4
f 204/3/4 201/3/4 205/3/4
f 200/3/4 204/3/4 206/3/4
f 206/3/4 204/3/4 207/3/4
f 202/3/4 203/3/4 208/3/4
f 208/3/4 203/3/4 209/3/4
f 210/1/4 211/1/4 212/1/4
f 212/1/4 211/1/4 213/1/4
f 214/3/4 215/3/4 217/3/4
f 215/2/4 216/2/4 217/2/4
f 217/2/4 216/2/4 218/2/4
f 214/3/4 217/3/4 219/3/4
f 217/3/4 218/3/4 219/3/4
f 219/3/4 218/3/4 220/3/4
f 221/3/4 222/3/4 223/3/4
f 223/3/4 222/3/4 224/3/4
f 224/3/4 222/3/4 225/3/4
f 225/3/4 222/3/4 226/3/4
f 229/3/5 228/3/5 227/3/5
f 230/3/5 228/3/5 229/3/5
f 233/3/5 232/3/5 231/3/5
f 234/3/5 232/3/5 233/3/5
f 235/2/5 234/2/5 233/2/5
f 236/2/5 234/2/5 235/2/5
f 237/3/5 236/3/5 235/3/5
f 238/3/5 236/3/5 237/3/5
f 241/3/5 240/3/5 239/3/5
f 242/3/5 240/3/5 241/3/5
f 245/3/5 244/3/5 243/3/5
f 246/3/5 244/3/5 245/3/5
f 249/3/5 248/3/5 247/3/5
f 250/3/5 248/3/5 249/3/5
f 251/3/5 248/3/5 250/3/5
f 252/3/5 248/3/5 251/3/5
f 255/1/5 254/1/5 253/1/5
f 256/1/5 254/1/5 255/1/5
f 259/3/5 258/3/5 257/3/5
f 260/3/5 258/3/5 259/3/5
f 263/3/5 262/3/5 261/3/5
f 264/3/5 262/3/5 263/3/5
f 268/3/5 266/3/5 265/3/5
f 269/3/5 266/3/5 268/3/5
f 271/3/5 268/3/5 267/3/5
f 271/3/5 270/3/5 269/3/5
f 271/3/5 269/3/5 268/3/5
f 272/3/5 270/3/5 271/3/5
f 274/3/5 270/3/5 272/3/5
f 275/3/5 270/3/5 274/3/5
f 275/3/5 274/3/5 273/3/5
f 276/3/5 270/3/5 275/3/5
f 277/3/5 275/3/5 273/3/5
f 278/3/5 275/3/5 277/3/5
f 281/3/5 280/3/5 279/3/5
f 283/3/5 281/3/5 279/3/5
f 283/3/5 282/3/5 281/3/5
f 284/3/5 282/3/5 283/3/5
f 285/3/5 282/3/5 284/3/5
f 286/3/5 282/3/5 285/3/5
f 287/3/5 282/3/5 286/3/5
f 290/3/5 282/3/5 287/3/5
f 291/3/5 289/3/5 288/3/5
f 291/3/5 290/3/5 289/3/5
f 292/3/5 282/3/5 290/3/5
f 292/3/5 290/3/5 291/3/5
f 293/3/6 294/3/6 295/3/6
f 295/3/6 294/3/6 296/3/6
f 297/3/6 298/3/6 299/3/6
f 299/3/6 298/3/6 300/3/6
f 300/3/6 298/3/6 301/3/6
f 301/3/6 298/3/6 302/3/6
f 303/4/6 304/4/6 305/4/6
f 305/4/6 304/4/6 306/4/6
f 306/4/6 304/4/6 307/4/6
f 307/4/6 304/4/6 308/4/6
f 308/4/6 304/4/6 309/4/6
f 309/4/6 304/4/6 310/4/6
f 305/3/6 306/3/6 311/3/6
f 311/3/6 306/3/6 312/3/6
f 307/3/6 308/3/6 313/3/6
f 313/3/6 308/3/6 314/3/6
f 309/3/6 310/3/6 315/3/6
f 315/3/6 310/3/6 316/3/6
f 313/4/6 314/4/6 317/4/6
f 311/4/6 312/4/6 317/4/6
f 315/4/6 316/4/6 317/4/6
f 314/4/6 315/4/6 317/4/6
f 312/4/6 313/4/6 317/4/6
f 317/4/6 316/4/6 318/4/6
f 319/3/6 320/3/6 323/3/6
f 323/3/6 320/3/6 324/3/6
f 321/3/6 322/3/6 325/3/6
f 325/3/6 322/3/6 326/3/6
f 327/3/6 328/3/6 329/3/6
f 329/3/6 328/3/6 330/3/6
f 330/3/6 328/3/6 331/3/6
f 329/2/6 330/2/6 332/2/6
f 332/2/6 330/2/6 333/2/6
f 332/3/6 333/3/6 335/3/6
f 333/3/6 334/3/6 335/3/6
f 335/3/6 334/3/6 336/3/6
f 337/3/6 338/3/6 339/3/6
f 339/3/6 338/3/6 340/3/6
