# MagicaVoxel @ Ephtracy

# group
g Tree_02

# material
mtllib Tree_02.mtl
usemtl palette

# normals
vn -1 0 0
vn 1 0 0
vn 0 0 1
vn 0 0 -1
vn 0 -1 0
vn 0 1 0

# texcoords
vt 0.908203 0.5
vt 0.939453 0.5

# verts
v -23 31 4
v -23 31 -6
v -23 41 4
v -23 41 -6
v -17 28 1
v -17 28 -3
v -17 31 1
v -17 31 -3
v -15 29 -3
v -15 29 -12
v -15 30 9
v -15 30 1
v -15 31 4
v -15 31 1
v -15 31 -3
v -15 31 -6
v -15 39 -6
v -15 39 -12
v -15 40 9
v -15 40 4
v -13 31 19
v -13 31 9
v -13 40 9
v -13 41 19
v -13 41 9
v -12 0 2
v -12 0 -2
v -12 4 2
v -12 4 -2
v -11 0 3
v -11 0 2
v -11 0 -2
v -11 0 -4
v -11 1 -3
v -11 1 -4
v -11 4 2
v -11 4 -2
v -11 8 1
v -11 8 -3
v -11 10 3
v -11 10 1
v -10 0 4
v -10 0 3
v -10 0 -4
v -10 0 -5
v -10 1 -3
v -10 1 -4
v -10 1 -5
v -10 3 -3
v -10 3 -4
v -10 4 4
v -10 4 3
v -10 8 1
v -10 8 -3
v -10 10 2
v -10 10 1
v -10 24 11
v -10 24 2
v -10 28 7
v -10 28 2
v -10 28 1
v -10 28 -3
v -10 30 9
v -10 30 7
v -10 30 2
v -10 30 1
v -10 31 11
v -10 31 9
v -9 19 -3
v -9 19 -10
v -9 22 -3
v -9 22 -10
v -9 35 -1
v -9 35 -2
v -9 39 -2
v -9 39 -6
v -9 40 4
v -9 40 -1
v -9 45 4
v -9 45 -6
v -8 20 -10
v -8 20 -13
v -8 22 -10
v -8 22 -13
v -7 21 -13
v -7 21 -16
v -7 22 -13
v -7 22 -16
v -6 26 -3
v -6 26 -13
v -6 29 -3
v -6 29 -12
v -6 36 -12
v -6 36 -13
v -6 40 9
v -6 40 4
v -6 41 12
v -6 41 9
v -6 43 12
v -6 43 4
v 1 31 4
v 1 31 -0
v 1 32 -0
v 1 32 -3
v 1 33 4
v 1 33 2
v 1 35 2
v 1 35 -3
v -13 32 -1
v -13 32 -2
v -13 39 -2
v -13 39 -6
v -13 40 4
v -13 40 -1
v -13 41 4
v -13 41 -6
v -6 0 4
v -6 0 2
v -6 0 -4
v -6 0 -5
v -6 1 3
v -6 1 2
v -6 1 -4
v -6 1 -5
v -6 4 4
v -6 4 3
v -6 9 3
v -6 9 2
v -6 10 3
v -6 10 2
v -6 19 -3
v -6 19 -10
v -6 20 -10
v -6 20 -13
v -6 21 -13
v -6 21 -16
v -6 22 -3
v -6 22 -16
v -5 0 2
v -5 0 -2
v -5 1 2
v -5 1 -2
v -5 9 2
v -5 9 -3
v -5 24 11
v -5 24 2
v -5 26 -3
v -5 28 7
v -5 28 2
v -5 29 -0
v -5 29 -3
v -5 30 9
v -5 30 7
v -5 30 2
v -5 30 -0
v -5 31 11
v -5 31 9
v -5 32 -0
v -5 32 -1
v -5 32 -2
v -5 32 -3
v -5 33 9
v -5 33 2
v -5 35 2
v -5 35 -1
v -5 35 -2
v -5 35 -3
v -5 36 -6
v -5 36 -12
v -5 39 -6
v -5 39 -12
v -4 0 -2
v -4 0 -4
v -4 1 3
v -4 1 2
v -4 1 -1
v -4 1 -2
v -4 3 -3
v -4 3 -4
v -4 9 3
v -4 9 2
v -4 9 -1
v -4 9 -3
v -3 5 2
v -3 5 -1
v -3 9 2
v -3 9 -1
v -3 31 19
v -3 31 9
v -3 33 12
v -3 33 9
v -3 41 19
v -3 41 12
v -2 1 2
v -2 1 -1
v -2 5 2
v -2 5 -1
v 1 41 2
v 1 41 -6
v 1 43 4
v 1 43 2
v 1 45 4
v 1 45 -6
v 3 29 -0
v 3 29 -3
v 3 31 -0
v 3 31 -3
v 4 26 -3
v 4 26 -13
v 4 31 -3
v 4 31 -6
v 4 33 12
v 4 33 4
v 4 36 -6
v 4 36 -13
v 4 41 4
v 4 41 2
v 4 43 12
v 4 43 2
v 11 31 4
v 11 31 -6
v 11 41 4
v 11 41 -6
v -13 31 19
v -13 41 19
v -3 31 19
v -3 41 19
v -6 41 12
v -6 43 12
v -3 33 12
v -3 41 12
v 4 33 12
v 4 43 12
v -10 24 11
v -10 31 11
v -5 24 11
v -5 31 11
v -15 30 9
v -15 40 9
v -13 31 9
v -13 40 9
v -10 30 9
v -10 31 9
v -23 31 4
v -23 41 4
v -15 31 4
v -15 40 4
v -13 40 4
v -13 41 4
v -10 0 4
v -10 4 4
v -9 40 4
v -9 45 4
v -6 0 4
v -6 4 4
v -6 40 4
v -6 43 4
v 1 31 4
v 1 33 4
v 1 43 4
v 1 45 4
v 4 33 4
v 4 41 4
v 11 31 4
v 11 41 4
v -11 0 3
v -11 10 3
v -10 0 3
v -10 4 3
v -6 1 3
v -6 4 3
v -6 9 3
v -6 10 3
v -4 1 3
v -4 9 3
v -12 0 2
v -12 4 2
v -11 0 2
v -11 4 2
v -10 10 2
v -10 24 2
v -10 28 2
v -10 30 2
v -6 0 2
v -6 1 2
v -6 9 2
v -6 10 2
v -5 0 2
v -5 1 2
v -5 9 2
v -5 24 2
v -5 28 2
v -5 30 2
v -4 1 2
v -4 9 2
v -3 5 2
v -3 9 2
v -2 1 2
v -2 5 2
v -17 28 1
v -17 31 1
v -15 30 1
v -15 31 1
v -10 28 1
v -10 30 1
v -5 29 -0
v -5 30 -0
v -5 32 -0
v 1 31 -0
v 1 32 -0
v 3 29 -0
v 3 31 -0
v -13 32 -2
v -13 39 -2
v -9 35 -2
v -9 39 -2
v -5 0 -2
v -5 1 -2
v -5 32 -2
v -5 35 -2
v -4 0 -2
v -4 1 -2
v -5 26 -3
v -5 29 -3
v -5 32 -3
v -5 35 -3
v 1 32 -3
v 1 35 -3
v 3 29 -3
v 3 31 -3
v 4 26 -3
v 4 31 -3
v -13 40 9
v -13 41 9
v -6 40 9
v -6 41 9
v -5 31 9
v -5 33 9
v -3 31 9
v -3 33 9
v -10 28 7
v -10 30 7
v -5 28 7
v -5 30 7
v -5 33 2
v -5 35 2
v 1 33 2
v 1 35 2
v 1 41 2
v 1 43 2
v 4 41 2
v 4 43 2
v -11 8 1
v -11 10 1
v -10 8 1
v -10 10 1
v -13 32 -1
v -13 40 -1
v -9 35 -1
v -9 40 -1
v -5 32 -1
v -5 35 -1
v -4 1 -1
v -4 9 -1
v -3 5 -1
v -3 9 -1
v -2 1 -1
v -2 5 -1
v -12 0 -2
v -12 4 -2
v -11 0 -2
v -11 4 -2
v -17 28 -3
v -17 31 -3
v -15 29 -3
v -15 31 -3
v -11 1 -3
v -11 8 -3
v -10 1 -3
v -10 3 -3
v -10 8 -3
v -10 28 -3
v -9 19 -3
v -9 22 -3
v -6 19 -3
v -6 22 -3
v -6 26 -3
v -6 29 -3
v -5 9 -3
v -5 26 -3
v -4 3 -3
v -4 9 -3
v -11 0 -4
v -11 1 -4
v -10 0 -4
v -10 1 -4
v -10 3 -4
v -6 0 -4
v -6 1 -4
v -4 0 -4
v -4 3 -4
v -10 0 -5
v -10 1 -5
v -6 0 -5
v -6 1 -5
v -23 31 -6
v -23 41 -6
v -15 31 -6
v -15 39 -6
v -13 39 -6
v -13 41 -6
v -9 39 -6
v -9 45 -6
v -5 36 -6
v -5 39 -6
v 1 41 -6
v 1 45 -6
v 4 31 -6
v 4 36 -6
v 11 31 -6
v 11 41 -6
v -9 19 -10
v -9 22 -10
v -8 20 -10
v -8 22 -10
v -6 19 -10
v -6 20 -10
v -15 29 -12
v -15 39 -12
v -6 29 -12
v -6 36 -12
v -5 36 -12
v -5 39 -12
v -8 20 -13
v -8 22 -13
v -7 21 -13
v -7 22 -13
v -6 20 -13
v -6 21 -13
v -6 26 -13
v -6 36 -13
v 4 26 -13
v 4 36 -13
v -7 21 -16
v -7 22 -16
v -6 21 -16
v -6 22 -16
v -10 0 4
v -6 0 4
v -11 0 3
v -10 0 3
v -12 0 2
v -11 0 2
v -6 0 2
v -5 0 2
v -12 0 -2
v -11 0 -2
v -5 0 -2
v -4 0 -2
v -11 0 -4
v -10 0 -4
v -6 0 -4
v -4 0 -4
v -10 0 -5
v -6 0 -5
v -6 1 3
v -4 1 3
v -6 1 2
v -5 1 2
v -4 1 2
v -2 1 2
v -4 1 -1
v -2 1 -1
v -5 1 -2
v -4 1 -2
v -9 19 -3
v -6 19 -3
v -9 19 -10
v -6 19 -10
v -8 20 -10
v -6 20 -10
v -8 20 -13
v -6 20 -13
v -7 21 -13
v -6 21 -13
v -7 21 -16
v -6 21 -16
v -10 24 11
v -5 24 11
v -10 24 2
v -5 24 2
v -6 26 -3
v -5 26 -3
v 4 26 -3
v -6 26 -13
v 4 26 -13
v -17 28 1
v -10 28 1
v -17 28 -3
v -10 28 -3
v -5 29 -0
v 3 29 -0
v -15 29 -3
v -6 29 -3
v -5 29 -3
v 3 29 -3
v -15 29 -12
v -6 29 -12
v -15 30 9
v -10 30 9
v -10 30 7
v -5 30 7
v -10 30 2
v -5 30 2
v -15 30 1
v -10 30 1
v -13 31 19
v -3 31 19
v -10 31 11
v -5 31 11
v -13 31 9
v -10 31 9
v -5 31 9
v -3 31 9
v -23 31 4
v -15 31 4
v 1 31 4
v 11 31 4
v -17 31 1
v -15 31 1
v 1 31 -0
v 3 31 -0
v -17 31 -3
v -15 31 -3
v 3 31 -3
v 4 31 -3
v -23 31 -6
v -15 31 -6
v 4 31 -6
v 11 31 -6
v -3 33 12
v 4 33 12
v -5 33 9
v -3 33 9
v 1 33 4
v 4 33 4
v -5 33 2
v 1 33 2
v -5 35 2
v 1 35 2
v -9 35 -1
v -5 35 -1
v -9 35 -2
v -5 35 -2
v -5 35 -3
v 1 35 -3
v -11 1 -3
v -10 1 -3
v -11 1 -4
v -10 1 -4
v -6 1 -4
v -10 1 -5
v -6 1 -5
v -10 3 -3
v -4 3 -3
v -10 3 -4
v -4 3 -4
v -10 4 4
v -6 4 4
v -10 4 3
v -6 4 3
v -12 4 2
v -11 4 2
v -12 4 -2
v -11 4 -2
v -3 5 2
v -2 5 2
v -3 5 -1
v -2 5 -1
v -11 8 1
v -10 8 1
v -11 8 -3
v -10 8 -3
v -6 9 3
v -4 9 3
v -6 9 2
v -5 9 2
v -4 9 2
v -3 9 2
v -4 9 -1
v -3 9 -1
v -5 9 -3
v -4 9 -3
v -11 10 3
v -6 10 3
v -10 10 2
v -6 10 2
v -11 10 1
v -10 10 1
v -9 22 -3
v -6 22 -3
v -9 22 -10
v -8 22 -10
v -8 22 -13
v -7 22 -13
v -7 22 -16
v -6 22 -16
v -10 28 7
v -5 28 7
v -10 28 2
v -5 28 2
v -5 32 -0
v 1 32 -0
v -13 32 -1
v -5 32 -1
v -13 32 -2
v -5 32 -2
v -5 32 -3
v 1 32 -3
v -5 36 -6
v 4 36 -6
v -6 36 -12
v -5 36 -12
v -6 36 -13
v 4 36 -13
v -13 39 -2
v -9 39 -2
v -15 39 -6
v -13 39 -6
v -9 39 -6
v -5 39 -6
v -15 39 -12
v -5 39 -12
v -15 40 9
v -13 40 9
v -6 40 9
v -15 40 4
v -13 40 4
v -9 40 4
v -6 40 4
v -13 40 -1
v -9 40 -1
v -13 41 19
v -3 41 19
v -6 41 12
v -3 41 12
v -13 41 9
v -6 41 9
v -23 41 4
v -13 41 4
v 4 41 4
v 11 41 4
v 1 41 2
v 4 41 2
v -23 41 -6
v -13 41 -6
v 1 41 -6
v 11 41 -6
v -6 43 12
v 4 43 12
v -6 43 4
v 1 43 4
v 1 43 2
v 4 43 2
v -9 45 4
v 1 45 4
v -9 45 -6
v 1 45 -6

# faces
f 3/1/1 2/1/1 1/1/1
f 4/1/1 2/1/1 3/1/1
f 7/2/1 6/2/1 5/2/1
f 8/2/1 6/2/1 7/2/1
f 13/1/1 12/1/1 11/1/1
f 14/1/1 12/1/1 13/1/1
f 15/1/1 10/1/1 9/1/1
f 16/1/1 10/1/1 15/1/1
f 17/1/1 10/1/1 16/1/1
f 18/1/1 10/1/1 17/1/1
f 19/1/1 13/1/1 11/1/1
f 20/1/1 13/1/1 19/1/1
f 23/1/1 22/1/1 21/1/1
f 24/1/1 23/1/1 21/1/1
f 25/1/1 23/1/1 24/1/1
f 28/2/1 27/2/1 26/2/1
f 29/2/1 27/2/1 28/2/1
f 34/2/1 33/2/1 32/2/1
f 35/2/1 33/2/1 34/2/1
f 36/2/1 31/2/1 30/2/1
f 37/2/1 34/2/1 32/2/1
f 38/2/1 37/2/1 36/2/1
f 39/2/1 34/2/1 37/2/1
f 39/2/1 37/2/1 38/2/1
f 40/2/1 36/2/1 30/2/1
f 40/2/1 38/2/1 36/2/1
f 41/2/1 38/2/1 40/2/1
f 47/2/1 45/2/1 44/2/1
f 48/2/1 45/2/1 47/2/1
f 49/2/1 47/2/1 46/2/1
f 50/2/1 47/2/1 49/2/1
f 51/2/1 43/2/1 42/2/1
f 52/2/1 43/2/1 51/2/1
f 56/2/1 54/2/1 53/2/1
f 58/2/1 56/2/1 55/2/1
f 59/2/1 58/2/1 57/2/1
f 60/2/1 56/2/1 58/2/1
f 60/2/1 58/2/1 59/2/1
f 61/2/1 54/2/1 56/2/1
f 61/2/1 56/2/1 60/2/1
f 62/2/1 54/2/1 61/2/1
f 63/2/1 59/2/1 57/2/1
f 64/2/1 59/2/1 63/2/1
f 65/2/1 61/2/1 60/2/1
f 66/2/1 61/2/1 65/2/1
f 67/2/1 63/2/1 57/2/1
f 68/2/1 63/2/1 67/2/1
f 71/2/1 70/2/1 69/2/1
f 72/2/1 70/2/1 71/2/1
f 75/1/1 74/1/1 73/1/1
f 78/1/1 75/1/1 73/1/1
f 78/1/1 76/1/1 75/1/1
f 79/1/1 78/1/1 77/1/1
f 80/1/1 76/1/1 78/1/1
f 80/1/1 78/1/1 79/1/1
f 83/2/1 82/2/1 81/2/1
f 84/2/1 82/2/1 83/2/1
f 87/2/1 86/2/1 85/2/1
f 88/2/1 86/2/1 87/2/1
f 91/1/1 90/1/1 89/1/1
f 92/1/1 90/1/1 91/1/1
f 93/1/1 90/1/1 92/1/1
f 94/1/1 90/1/1 93/1/1
f 98/1/1 96/1/1 95/1/1
f 99/1/1 98/1/1 97/1/1
f 100/1/1 96/1/1 98/1/1
f 100/1/1 98/1/1 99/1/1
f 103/1/1 102/1/1 101/1/1
f 105/1/1 103/1/1 101/1/1
f 105/1/1 104/1/1 103/1/1
f 106/1/1 104/1/1 105/1/1
f 107/1/1 104/1/1 106/1/1
f 108/1/1 104/1/1 107/1/1
f 109/1/2 110/1/2 111/1/2
f 109/1/2 111/1/2 114/1/2
f 111/1/2 112/1/2 114/1/2
f 113/1/2 114/1/2 115/1/2
f 114/1/2 112/1/2 116/1/2
f 115/1/2 114/1/2 116/1/2
f 117/2/2 118/2/2 121/2/2
f 121/2/2 118/2/2 122/2/2
f 119/2/2 120/2/2 123/2/2
f 123/2/2 120/2/2 124/2/2
f 117/2/2 121/2/2 125/2/2
f 125/2/2 121/2/2 126/2/2
f 127/2/2 128/2/2 129/2/2
f 129/2/2 128/2/2 130/2/2
f 131/2/2 132/2/2 133/2/2
f 133/2/2 134/2/2 135/2/2
f 131/2/2 133/2/2 137/2/2
f 135/2/2 136/2/2 137/2/2
f 133/2/2 135/2/2 137/2/2
f 137/2/2 136/2/2 138/2/2
f 139/2/2 140/2/2 141/2/2
f 141/2/2 140/2/2 142/2/2
f 143/2/2 144/2/2 146/2/2
f 146/2/2 144/2/2 147/2/2
f 145/2/2 146/2/2 147/2/2
f 145/2/2 147/2/2 148/2/2
f 148/2/2 147/2/2 149/2/2
f 149/2/2 147/2/2 150/2/2
f 150/2/2 147/2/2 151/2/2
f 145/2/2 148/2/2 152/2/2
f 152/2/2 148/2/2 153/2/2
f 149/2/2 150/2/2 154/2/2
f 154/2/2 150/2/2 155/2/2
f 145/2/2 152/2/2 156/2/2
f 152/1/2 153/1/2 157/1/2
f 156/2/2 152/2/2 157/2/2
f 153/1/2 154/1/2 157/1/2
f 154/1/2 155/1/2 157/1/2
f 157/1/2 155/1/2 158/1/2
f 157/1/2 158/1/2 162/1/2
f 158/1/2 159/1/2 162/1/2
f 162/1/2 159/1/2 163/1/2
f 163/1/2 159/1/2 164/1/2
f 164/1/2 159/1/2 165/1/2
f 160/1/2 161/1/2 166/1/2
f 166/1/2 161/1/2 167/1/2
f 168/1/2 169/1/2 170/1/2
f 170/1/2 169/1/2 171/1/2
f 172/2/2 173/2/2 177/2/2
f 177/2/2 173/2/2 178/2/2
f 176/2/2 177/2/2 178/2/2
f 178/2/2 173/2/2 179/2/2
f 174/2/2 175/2/2 180/2/2
f 180/2/2 175/2/2 181/2/2
f 176/2/2 178/2/2 182/2/2
f 182/2/2 178/2/2 183/2/2
f 184/2/2 185/2/2 186/2/2
f 186/2/2 185/2/2 187/2/2
f 188/1/2 189/1/2 190/1/2
f 190/1/2 189/1/2 191/1/2
f 188/1/2 190/1/2 192/1/2
f 192/1/2 190/1/2 193/1/2
f 194/2/2 195/2/2 196/2/2
f 196/2/2 195/2/2 197/2/2
f 198/1/2 199/1/2 201/1/2
f 200/1/2 201/1/2 202/1/2
f 201/1/2 199/1/2 203/1/2
f 202/1/2 201/1/2 203/1/2
f 204/2/2 205/2/2 206/2/2
f 206/2/2 205/2/2 207/2/2
f 208/1/2 209/1/2 210/1/2
f 210/1/2 209/1/2 211/1/2
f 211/1/2 209/1/2 214/1/2
f 214/1/2 209/1/2 215/1/2
f 212/1/2 213/1/2 216/1/2
f 212/1/2 216/1/2 218/1/2
f 216/1/2 217/1/2 218/1/2
f 218/1/2 217/1/2 219/1/2
f 220/1/2 221/1/2 222/1/2
f 222/1/2 221/1/2 223/1/2
f 226/1/3 225/1/3 224/1/3
f 227/1/3 225/1/3 226/1/3
f 231/1/3 229/1/3 228/1/3
f 232/1/3 231/1/3 230/1/3
f 233/1/3 229/1/3 231/1/3
f 233/1/3 231/1/3 232/1/3
f 236/2/3 235/2/3 234/2/3
f 237/2/3 235/2/3 236/2/3
f 240/1/3 239/1/3 238/1/3
f 241/1/3 239/1/3 240/1/3
f 242/1/3 240/1/3 238/1/3
f 243/1/3 240/1/3 242/1/3
f 246/1/3 245/1/3 244/1/3
f 247/1/3 245/1/3 246/1/3
f 248/1/3 245/1/3 247/1/3
f 249/1/3 245/1/3 248/1/3
f 254/2/3 251/2/3 250/2/3
f 255/2/3 251/2/3 254/2/3
f 256/1/3 253/1/3 252/1/3
f 257/1/3 253/1/3 256/1/3
f 260/1/3 253/1/3 257/1/3
f 261/1/3 253/1/3 260/1/3
f 262/1/3 259/1/3 258/1/3
f 264/1/3 262/1/3 258/1/3
f 264/1/3 263/1/3 262/1/3
f 265/1/3 263/1/3 264/1/3
f 268/2/3 267/2/3 266/2/3
f 269/2/3 267/2/3 268/2/3
f 271/2/3 267/2/3 269/2/3
f 272/2/3 267/2/3 271/2/3
f 273/2/3 267/2/3 272/2/3
f 274/2/3 271/2/3 270/2/3
f 274/2/3 272/2/3 271/2/3
f 275/2/3 272/2/3 274/2/3
f 278/2/3 277/2/3 276/2/3
f 279/2/3 277/2/3 278/2/3
f 287/2/3 281/2/3 280/2/3
f 288/2/3 285/2/3 284/2/3
f 289/2/3 285/2/3 288/2/3
f 290/2/3 287/2/3 286/2/3
f 291/2/3 281/2/3 287/2/3
f 291/2/3 287/2/3 290/2/3
f 292/2/3 283/2/3 282/2/3
f 293/2/3 283/2/3 292/2/3
f 296/2/3 295/2/3 294/2/3
f 297/2/3 295/2/3 296/2/3
f 298/2/3 296/2/3 294/2/3
f 299/2/3 296/2/3 298/2/3
f 302/2/3 301/2/3 300/2/3
f 303/2/3 301/2/3 302/2/3
f 304/2/3 302/2/3 300/2/3
f 305/2/3 302/2/3 304/2/3
f 309/2/3 307/2/3 306/2/3
f 309/2/3 308/2/3 307/2/3
f 310/2/3 308/2/3 309/2/3
f 311/2/3 309/2/3 306/2/3
f 312/2/3 309/2/3 311/2/3
f 315/1/3 314/1/3 313/1/3
f 316/1/3 314/1/3 315/1/3
f 319/1/3 315/1/3 313/1/3
f 320/1/3 315/1/3 319/1/3
f 321/2/3 318/2/3 317/2/3
f 322/2/3 318/2/3 321/2/3
f 327/1/3 326/1/3 325/1/3
f 328/1/3 326/1/3 327/1/3
f 329/1/3 324/1/3 323/1/3
f 331/1/3 329/1/3 323/1/3
f 331/1/3 330/1/3 329/1/3
f 332/1/3 330/1/3 331/1/3
f 333/1/4 334/1/4 335/1/4
f 335/1/4 334/1/4 336/1/4
f 337/1/4 338/1/4 339/1/4
f 339/1/4 338/1/4 340/1/4
f 341/2/4 342/2/4 343/2/4
f 343/2/4 342/2/4 344/2/4
f 345/1/4 346/1/4 347/1/4
f 347/1/4 346/1/4 348/1/4
f 349/1/4 350/1/4 351/1/4
f 351/1/4 350/1/4 352/1/4
f 353/2/4 354/2/4 355/2/4
f 355/2/4 354/2/4 356/2/4
f 357/1/4 358/1/4 359/1/4
f 359/1/4 358/1/4 360/1/4
f 357/1/4 359/1/4 361/1/4
f 361/1/4 359/1/4 362/1/4
f 363/2/4 364/2/4 365/2/4
f 365/2/4 364/2/4 366/2/4
f 363/2/4 365/2/4 367/2/4
f 367/2/4 365/2/4 368/2/4
f 369/2/4 370/2/4 371/2/4
f 371/2/4 370/2/4 372/2/4
f 373/2/4 374/2/4 375/2/4
f 375/2/4 374/2/4 376/2/4
f 377/2/4 378/2/4 379/2/4
f 379/2/4 378/2/4 380/2/4
f 380/2/4 378/2/4 381/2/4
f 373/2/4 375/2/4 382/2/4
f 380/2/4 381/2/4 383/2/4
f 381/2/4 382/2/4 383/2/4
f 383/2/4 382/2/4 384/2/4
f 380/2/4 383/2/4 385/2/4
f 384/2/4 382/2/4 386/2/4
f 386/2/4 382/2/4 387/2/4
f 382/2/4 375/2/4 388/2/4
f 387/2/4 382/2/4 388/2/4
f 386/2/4 387/2/4 389/2/4
f 380/2/4 385/2/4 389/2/4
f 385/2/4 386/2/4 389/2/4
f 389/2/4 387/2/4 390/2/4
f 380/2/4 389/2/4 391/2/4
f 391/2/4 389/2/4 392/2/4
f 393/2/4 394/2/4 395/2/4
f 395/2/4 394/2/4 396/2/4
f 396/2/4 397/2/4 399/2/4
f 398/2/4 399/2/4 400/2/4
f 399/2/4 397/2/4 401/2/4
f 400/2/4 399/2/4 401/2/4
f 402/2/4 403/2/4 404/2/4
f 404/2/4 403/2/4 405/2/4
f 406/1/4 407/1/4 408/1/4
f 408/1/4 407/1/4 409/1/4
f 409/1/4 407/1/4 410/1/4
f 410/1/4 407/1/4 411/1/4
f 412/1/4 413/1/4 415/1/4
f 415/1/4 413/1/4 416/1/4
f 414/1/4 415/1/4 416/1/4
f 416/1/4 413/1/4 417/1/4
f 414/1/4 416/1/4 419/1/4
f 418/1/4 419/1/4 420/1/4
f 419/1/4 416/1/4 421/1/4
f 420/1/4 419/1/4 421/1/4
f 422/2/4 423/2/4 424/2/4
f 424/2/4 423/2/4 425/2/4
f 422/2/4 424/2/4 426/2/4
f 426/2/4 424/2/4 427/2/4
f 428/1/4 429/1/4 430/1/4
f 430/1/4 429/1/4 431/1/4
f 431/1/4 429/1/4 432/1/4
f 432/1/4 429/1/4 433/1/4
f 434/2/4 435/2/4 436/2/4
f 436/2/4 435/2/4 437/2/4
f 434/2/4 436/2/4 438/2/4
f 438/2/4 436/2/4 439/2/4
f 440/1/4 441/1/4 442/1/4
f 442/1/4 441/1/4 443/1/4
f 444/2/4 445/2/4 446/2/4
f 446/2/4 445/2/4 447/2/4
f 451/2/5 449/2/5 448/2/5
f 453/2/5 451/2/5 450/2/5
f 454/2/5 449/2/5 451/2/5
f 454/2/5 451/2/5 453/2/5
f 456/2/5 453/2/5 452/2/5
f 456/2/5 455/2/5 454/2/5
f 456/2/5 454/2/5 453/2/5
f 457/2/5 455/2/5 456/2/5
f 458/2/5 455/2/5 457/2/5
f 460/2/5 459/2/5 458/2/5
f 460/2/5 458/2/5 457/2/5
f 461/2/5 459/2/5 460/2/5
f 462/2/5 459/2/5 461/2/5
f 463/2/5 459/2/5 462/2/5
f 464/2/5 462/2/5 461/2/5
f 465/2/5 462/2/5 464/2/5
f 468/2/5 467/2/5 466/2/5
f 469/2/5 467/2/5 468/2/5
f 470/2/5 467/2/5 469/2/5
f 472/2/5 471/2/5 470/2/5
f 472/2/5 470/2/5 469/2/5
f 473/2/5 471/2/5 472/2/5
f 474/2/5 472/2/5 469/2/5
f 475/2/5 472/2/5 474/2/5
f 478/2/5 477/2/5 476/2/5
f 479/2/5 477/2/5 478/2/5
f 482/2/5 481/2/5 480/2/5
f 483/2/5 481/2/5 482/2/5
f 486/2/5 485/2/5 484/2/5
f 487/2/5 485/2/5 486/2/5
f 490/2/5 489/2/5 488/2/5
f 491/2/5 489/2/5 490/2/5
f 495/1/5 493/1/5 492/1/5
f 495/1/5 494/1/5 493/1/5
f 496/1/5 494/1/5 495/1/5
f 499/2/5 498/2/5 497/2/5
f 500/2/5 498/2/5 499/2/5
f 505/2/5 502/2/5 501/2/5
f 506/2/5 502/2/5 505/2/5
f 507/1/5 504/1/5 503/1/5
f 508/1/5 504/1/5 507/1/5
f 511/1/5 510/1/5 509/1/5
f 513/1/5 511/1/5 509/1/5
f 513/1/5 512/1/5 511/1/5
f 514/1/5 512/1/5 513/1/5
f 515/1/5 513/1/5 509/1/5
f 516/1/5 513/1/5 515/1/5
f 519/1/5 518/1/5 517/1/5
f 520/1/5 518/1/5 519/1/5
f 521/1/5 519/1/5 517/1/5
f 522/1/5 519/1/5 521/1/5
f 523/1/5 518/1/5 520/1/5
f 524/1/5 518/1/5 523/1/5
f 529/1/5 526/1/5 525/1/5
f 530/1/5 526/1/5 529/1/5
f 531/1/5 528/1/5 527/1/5
f 532/1/5 528/1/5 531/1/5
f 533/1/5 529/1/5 525/1/5
f 535/1/5 528/1/5 532/1/5
f 536/1/5 528/1/5 535/1/5
f 537/1/5 534/1/5 533/1/5
f 537/1/5 533/1/5 525/1/5
f 538/1/5 534/1/5 537/1/5
f 539/1/5 528/1/5 536/1/5
f 540/1/5 528/1/5 539/1/5
f 544/1/5 542/1/5 541/1/5
f 545/1/5 542/1/5 544/1/5
f 545/1/5 544/1/5 543/1/5
f 546/1/5 542/1/5 545/1/5
f 547/1/5 545/1/5 543/1/5
f 548/1/5 545/1/5 547/1/5
f 552/1/5 550/1/5 549/1/5
f 553/1/5 552/1/5 551/1/5
f 554/1/5 550/1/5 552/1/5
f 554/1/5 552/1/5 553/1/5
f 555/1/5 550/1/5 554/1/5
f 556/1/5 550/1/5 555/1/5
f 557/2/6 558/2/6 559/2/6
f 559/2/6 558/2/6 560/2/6
f 560/2/6 561/2/6 562/2/6
f 562/2/6 561/2/6 563/2/6
f 564/2/6 565/2/6 566/2/6
f 566/2/6 565/2/6 567/2/6
f 568/2/6 569/2/6 570/2/6
f 570/2/6 569/2/6 571/2/6
f 572/2/6 573/2/6 574/2/6
f 574/2/6 573/2/6 575/2/6
f 576/2/6 577/2/6 578/2/6
f 578/2/6 577/2/6 579/2/6
f 580/2/6 581/2/6 582/2/6
f 582/2/6 581/2/6 583/2/6
f 584/2/6 585/2/6 586/2/6
f 586/2/6 585/2/6 587/2/6
f 587/2/6 585/2/6 588/2/6
f 588/2/6 589/2/6 590/2/6
f 587/2/6 588/2/6 590/2/6
f 590/2/6 589/2/6 591/2/6
f 587/2/6 590/2/6 592/2/6
f 592/2/6 590/2/6 593/2/6
f 594/2/6 595/2/6 596/2/6
f 596/2/6 595/2/6 597/2/6
f 594/2/6 596/2/6 598/2/6
f 598/2/6 596/2/6 599/2/6
f 600/2/6 601/2/6 602/2/6
f 602/2/6 601/2/6 603/2/6
f 603/2/6 601/2/6 604/2/6
f 604/2/6 601/2/6 605/2/6
f 605/2/6 601/2/6 606/2/6
f 606/2/6 601/2/6 607/2/6
f 608/2/6 609/2/6 610/2/6
f 610/2/6 609/2/6 611/2/6
f 612/2/6 613/2/6 615/2/6
f 614/2/6 615/2/6 616/2/6
f 615/2/6 613/2/6 617/2/6
f 616/2/6 615/2/6 617/2/6
f 617/2/6 613/2/6 618/2/6
f 618/2/6 613/2/6 619/2/6
f 620/1/6 621/1/6 623/1/6
f 622/1/6 623/1/6 624/1/6
f 623/1/6 621/1/6 625/1/6
f 624/1/6 623/1/6 625/1/6
f 626/1/6 627/1/6 629/1/6
f 629/1/6 627/1/6 630/1/6
f 628/1/6 629/1/6 632/1/6
f 630/1/6 631/1/6 632/1/6
f 629/1/6 630/1/6 632/1/6
f 632/1/6 631/1/6 633/1/6
f 634/1/6 635/1/6 637/1/6
f 635/1/6 636/1/6 637/1/6
f 637/1/6 636/1/6 638/1/6
f 638/1/6 636/1/6 639/1/6
f 639/1/6 636/1/6 640/1/6
f 638/1/6 639/1/6 641/1/6
f 641/1/6 639/1/6 642/1/6
f 643/1/6 644/1/6 645/1/6
f 645/1/6 644/1/6 646/1/6
f 643/1/6 645/1/6 647/1/6
f 647/1/6 645/1/6 648/1/6
f 651/1/6 652/1/6 654/1/6
f 649/1/6 650/1/6 655/1/6
f 655/1/6 650/1/6 656/1/6
f 653/1/6 654/1/6 657/1/6
f 654/1/6 652/1/6 658/1/6
f 657/1/6 654/1/6 658/1/6
f 659/1/6 660/1/6 661/1/6
f 661/1/6 660/1/6 662/1/6
f 662/1/6 660/1/6 663/1/6
f 663/1/6 660/1/6 664/1/6
f 665/1/6 666/1/6 667/1/6
f 667/1/6 666/1/6 668/1/6
