# MagicaVoxel @ Ephtracy

# group
g Voiture_01

# material
mtllib Voiture_01.mtl
usemtl palette

# normals
vn -1 0 0
vn 1 0 0
vn 0 0 1
vn 0 0 -1
vn 0 -1 0
vn 0 1 0

# texcoords
vt 0.00976563 0.5
vt 0.115234 0.5
vt 0.751953 0.5
vt 0.841797 0.5
vt 0.845703 0.5
vt 0.853516 0.5
vt 0.970703 0.5
vt 0.974609 0.5
vt 0.982422 0.5
vt 0.990234 0.5
vt 0.994141 0.5

# verts
v -13 1 5
v -13 1 -5
v -13 3 5
v -13 3 -5
v -12 3 5
v -12 3 4
v -12 3 3
v -12 3 -3
v -12 3 -4
v -12 3 -5
v -12 4 5
v -12 4 4
v -12 4 3
v -12 4 -3
v -12 4 -4
v -12 4 -5
v -12 5 5
v -12 5 -5
v -11 0 6
v -11 0 4
v -11 0 -4
v -11 0 -6
v -11 1 5
v -11 1 4
v -11 1 -4
v -11 1 -5
v -11 2 5
v -11 2 -5
v -11 3 6
v -11 3 5
v -11 3 -5
v -11 3 -6
v -8 1 4
v -8 1 -4
v -8 3 4
v -8 3 -4
v -6 5 5
v -6 5 -5
v -6 6 4
v -6 6 -4
v -6 8 4
v -6 8 -4
v -6 9 5
v -6 9 -5
v 3 0 6
v 3 0 4
v 3 0 -4
v 3 0 -6
v 3 1 5
v 3 1 4
v 3 1 -4
v 3 1 -5
v 3 2 5
v 3 2 -5
v 3 3 6
v 3 3 5
v 3 3 -5
v 3 3 -6
v 6 1 4
v 6 1 -4
v 6 2 4
v 6 2 -4
v 6 3 4
v 6 3 -4
v -11 1 4
v -11 1 -4
v -11 2 4
v -11 2 -4
v -11 3 4
v -11 3 -4
v -8 0 6
v -8 0 4
v -8 0 -4
v -8 0 -6
v -8 1 5
v -8 1 4
v -8 1 -4
v -8 1 -5
v -8 2 5
v -8 2 -5
v -8 3 6
v -8 3 5
v -8 3 -5
v -8 3 -6
v 3 1 4
v 3 1 -4
v 3 3 4
v 3 3 -4
v 5 5 5
v 5 5 -5
v 5 6 4
v 5 6 -4
v 5 8 4
v 5 8 -4
v 5 9 5
v 5 9 -5
v 6 0 6
v 6 0 4
v 6 0 -4
v 6 0 -6
v 6 1 5
v 6 1 4
v 6 1 -4
v 6 1 -5
v 6 2 5
v 6 2 -5
v 6 3 6
v 6 3 5
v 6 3 -5
v 6 3 -6
v 8 1 5
v 8 1 -5
v 8 2 5
v 8 2 4
v 8 2 -4
v 8 2 -5
v 8 3 5
v 8 3 4
v 8 3 -4
v 8 3 -5
v 8 4 5
v 8 4 4
v 8 4 -4
v 8 4 -5
v 8 5 5
v 8 5 -5
v -11 0 6
v -11 3 6
v -10 1 6
v -10 2 6
v -9 1 6
v -9 2 6
v -8 0 6
v -8 3 6
v 3 0 6
v 3 3 6
v 4 1 6
v 4 2 6
v 5 1 6
v 5 2 6
v 6 0 6
v 6 3 6
v -13 1 5
v -13 3 5
v -12 2 5
v -12 3 5
v -12 4 5
v -12 5 5
v -11 1 5
v -11 2 5
v -11 3 5
v -8 1 5
v -8 2 5
v -8 3 5
v -6 5 5
v -6 9 5
v -5 6 5
v -5 8 5
v -1 6 5
v -1 8 5
v 0 6 5
v 0 8 5
v 3 1 5
v 3 2 5
v 3 3 5
v 4 6 5
v 4 8 5
v 5 5 5
v 5 9 5
v 6 1 5
v 6 2 5
v 6 3 5
v 7 2 5
v 7 3 5
v 7 4 5
v 8 1 5
v 8 2 5
v 8 3 5
v 8 4 5
v 8 5 5
v -11 0 -4
v -11 1 -4
v -11 2 -4
v -11 3 -4
v -10 1 -4
v -10 2 -4
v -8 0 -4
v -8 1 -4
v -8 3 -4
v 3 0 -4
v 3 1 -4
v 3 3 -4
v 6 0 -4
v 6 1 -4
v 6 2 -4
v 6 3 -4
v -11 0 4
v -11 1 4
v -11 2 4
v -11 3 4
v -8 0 4
v -8 1 4
v -8 3 4
v 3 0 4
v 3 1 4
v 3 3 4
v 6 0 4
v 6 1 4
v 6 2 4
v 6 3 4
v -13 1 -5
v -13 3 -5
v -12 2 -5
v -12 3 -5
v -12 4 -5
v -12 5 -5
v -11 1 -5
v -11 2 -5
v -11 3 -5
v -8 1 -5
v -8 2 -5
v -8 3 -5
v -6 5 -5
v -6 9 -5
v -5 6 -5
v -5 8 -5
v -1 6 -5
v -1 8 -5
v 0 6 -5
v 0 8 -5
v 3 1 -5
v 3 2 -5
v 3 3 -5
v 4 6 -5
v 4 8 -5
v 5 5 -5
v 5 9 -5
v 6 1 -5
v 6 2 -5
v 6 3 -5
v 7 2 -5
v 7 3 -5
v 7 4 -5
v 8 1 -5
v 8 2 -5
v 8 3 -5
v 8 4 -5
v 8 5 -5
v -11 0 -6
v -11 3 -6
v -10 1 -6
v -10 2 -6
v -9 1 -6
v -9 2 -6
v -8 0 -6
v -8 3 -6
v 3 0 -6
v 3 3 -6
v 4 1 -6
v 4 2 -6
v 5 1 -6
v 5 2 -6
v 6 0 -6
v 6 3 -6
v -11 0 6
v -8 0 6
v 3 0 6
v 6 0 6
v -11 0 4
v -8 0 4
v 3 0 4
v 6 0 4
v -11 0 -4
v -8 0 -4
v 3 0 -4
v 6 0 -4
v -11 0 -6
v -8 0 -6
v 3 0 -6
v 6 0 -6
v -13 1 5
v -11 1 5
v -8 1 5
v 3 1 5
v 6 1 5
v 8 1 5
v -11 1 4
v -8 1 4
v 3 1 4
v 6 1 4
v -11 1 -4
v -8 1 -4
v 3 1 -4
v 6 1 -4
v -13 1 -5
v -11 1 -5
v -8 1 -5
v 3 1 -5
v 6 1 -5
v 8 1 -5
v -11 3 4
v -8 3 4
v 3 3 4
v 6 3 4
v -11 3 -4
v -8 3 -4
v 3 3 -4
v 6 3 -4
v -11 3 6
v -8 3 6
v 3 3 6
v 6 3 6
v -13 3 5
v -12 3 5
v -11 3 5
v -8 3 5
v 3 3 5
v 6 3 5
v -12 3 4
v -12 3 3
v -12 3 -3
v -12 3 -4
v -13 3 -5
v -12 3 -5
v -11 3 -5
v -8 3 -5
v 3 3 -5
v 6 3 -5
v -11 3 -6
v -8 3 -6
v 3 3 -6
v 6 3 -6
v -12 5 5
v -6 5 5
v 5 5 5
v 8 5 5
v -12 5 -5
v -6 5 -5
v 5 5 -5
v 8 5 -5
v -6 9 5
v 5 9 5
v -5 9 4
v 4 9 4
v -5 9 -4
v 4 9 -4
v -6 9 -5
v 5 9 -5

# faces
f 3/8/1 2/8/1 1/8/1
f 4/8/1 2/8/1 3/8/1
f 11/6/1 6/6/1 5/6/1
f 12/1/1 7/1/1 6/1/1
f 12/6/1 6/6/1 11/6/1
f 13/6/1 8/6/1 7/6/1
f 13/1/1 7/1/1 12/1/1
f 14/1/1 9/1/1 8/1/1
f 14/6/1 8/6/1 13/6/1
f 15/6/1 10/6/1 9/6/1
f 15/1/1 9/1/1 14/1/1
f 16/6/1 10/6/1 15/6/1
f 17/5/1 14/5/1 13/5/1
f 17/5/1 12/5/1 11/5/1
f 17/5/1 16/5/1 15/5/1
f 17/5/1 15/5/1 14/5/1
f 17/5/1 13/5/1 12/5/1
f 18/5/1 16/5/1 17/5/1
f 23/11/1 20/11/1 19/11/1
f 24/11/1 20/11/1 23/11/1
f 25/11/1 22/11/1 21/11/1
f 26/11/1 22/11/1 25/11/1
f 27/11/1 23/11/1 19/11/1
f 28/11/1 22/11/1 26/11/1
f 29/11/1 27/11/1 19/11/1
f 30/11/1 27/11/1 29/11/1
f 31/11/1 22/11/1 28/11/1
f 32/11/1 22/11/1 31/11/1
f 35/6/1 34/6/1 33/6/1
f 36/6/1 34/6/1 35/6/1
f 39/5/1 38/5/1 37/5/1
f 40/5/1 38/5/1 39/5/1
f 41/5/1 39/5/1 37/5/1
f 41/3/1 40/3/1 39/3/1
f 42/5/1 38/5/1 40/5/1
f 42/3/1 40/3/1 41/3/1
f 43/5/1 41/5/1 37/5/1
f 43/5/1 42/5/1 41/5/1
f 44/5/1 38/5/1 42/5/1
f 44/5/1 42/5/1 43/5/1
f 49/11/1 46/11/1 45/11/1
f 50/11/1 46/11/1 49/11/1
f 51/11/1 48/11/1 47/11/1
f 52/11/1 48/11/1 51/11/1
f 53/11/1 49/11/1 45/11/1
f 54/11/1 48/11/1 52/11/1
f 55/11/1 53/11/1 45/11/1
f 56/11/1 53/11/1 55/11/1
f 57/11/1 48/11/1 54/11/1
f 58/11/1 48/11/1 57/11/1
f 61/8/1 60/8/1 59/8/1
f 62/8/1 60/8/1 61/8/1
f 63/6/1 62/6/1 61/6/1
f 64/6/1 62/6/1 63/6/1
f 65/8/2 66/8/2 67/8/2
f 67/8/2 66/8/2 68/8/2
f 67/10/2 68/10/2 69/10/2
f 69/10/2 68/10/2 70/10/2
f 71/11/2 72/11/2 75/11/2
f 75/11/2 72/11/2 76/11/2
f 73/11/2 74/11/2 77/11/2
f 77/11/2 74/11/2 78/11/2
f 71/11/2 75/11/2 79/11/2
f 78/11/2 74/11/2 80/11/2
f 71/11/2 79/11/2 81/11/2
f 81/11/2 79/11/2 82/11/2
f 80/11/2 74/11/2 83/11/2
f 83/11/2 74/11/2 84/11/2
f 85/6/2 86/6/2 87/6/2
f 87/6/2 86/6/2 88/6/2
f 89/5/2 90/5/2 91/5/2
f 91/5/2 90/5/2 92/5/2
f 89/5/2 91/5/2 93/5/2
f 91/3/2 92/3/2 93/3/2
f 92/5/2 90/5/2 94/5/2
f 93/3/2 92/3/2 94/3/2
f 89/5/2 93/5/2 95/5/2
f 93/5/2 94/5/2 95/5/2
f 94/5/2 90/5/2 96/5/2
f 95/5/2 94/5/2 96/5/2
f 97/11/2 98/11/2 101/11/2
f 101/11/2 98/11/2 102/11/2
f 99/11/2 100/11/2 103/11/2
f 103/11/2 100/11/2 104/11/2
f 97/11/2 101/11/2 105/11/2
f 104/11/2 100/11/2 106/11/2
f 97/11/2 105/11/2 107/11/2
f 107/11/2 105/11/2 108/11/2
f 106/11/2 100/11/2 109/11/2
f 109/11/2 100/11/2 110/11/2
f 111/8/2 112/8/2 113/8/2
f 113/8/2 112/8/2 114/8/2
f 114/8/2 112/8/2 115/8/2
f 115/8/2 112/8/2 116/8/2
f 113/2/2 114/2/2 117/2/2
f 114/6/2 115/6/2 118/6/2
f 117/2/2 114/2/2 118/2/2
f 115/2/2 116/2/2 119/2/2
f 118/6/2 115/6/2 119/6/2
f 119/2/2 116/2/2 120/2/2
f 117/1/2 118/1/2 121/1/2
f 118/6/2 119/6/2 122/6/2
f 121/1/2 118/1/2 122/1/2
f 119/1/2 120/1/2 123/1/2
f 122/6/2 119/6/2 123/6/2
f 123/1/2 120/1/2 124/1/2
f 121/5/2 122/5/2 125/5/2
f 122/5/2 123/5/2 125/5/2
f 123/5/2 124/5/2 125/5/2
f 125/5/2 124/5/2 126/5/2
f 129/11/3 128/11/3 127/11/3
f 130/11/3 128/11/3 129/11/3
f 131/11/3 129/11/3 127/11/3
f 131/8/3 130/8/3 129/8/3
f 132/11/3 128/11/3 130/11/3
f 132/8/3 130/8/3 131/8/3
f 133/11/3 131/11/3 127/11/3
f 133/11/3 132/11/3 131/11/3
f 134/11/3 128/11/3 132/11/3
f 134/11/3 132/11/3 133/11/3
f 137/11/3 136/11/3 135/11/3
f 138/11/3 136/11/3 137/11/3
f 139/11/3 137/11/3 135/11/3
f 139/8/3 138/8/3 137/8/3
f 140/11/3 136/11/3 138/11/3
f 140/8/3 138/8/3 139/8/3
f 141/11/3 139/11/3 135/11/3
f 141/11/3 140/11/3 139/11/3
f 142/11/3 136/11/3 140/11/3
f 142/11/3 140/11/3 141/11/3
f 145/8/3 144/8/3 143/8/3
f 146/8/3 144/8/3 145/8/3
f 149/8/3 145/8/3 143/8/3
f 150/6/3 146/6/3 145/6/3
f 150/8/3 145/8/3 149/8/3
f 150/6/3 147/6/3 146/6/3
f 151/6/3 147/6/3 150/6/3
f 154/6/3 147/6/3 151/6/3
f 155/5/3 148/5/3 147/5/3
f 157/5/3 156/5/3 155/5/3
f 158/5/3 156/5/3 157/5/3
f 159/5/3 157/5/3 155/5/3
f 159/3/3 158/3/3 157/3/3
f 160/5/3 156/5/3 158/5/3
f 160/3/3 158/3/3 159/3/3
f 161/5/3 159/5/3 155/5/3
f 161/5/3 160/5/3 159/5/3
f 162/5/3 156/5/3 160/5/3
f 162/5/3 160/5/3 161/5/3
f 163/8/3 153/8/3 152/8/3
f 164/6/3 154/6/3 153/6/3
f 164/8/3 153/8/3 163/8/3
f 165/6/3 147/6/3 154/6/3
f 165/6/3 154/6/3 164/6/3
f 166/5/3 161/5/3 155/5/3
f 166/3/3 162/3/3 161/3/3
f 167/5/3 156/5/3 162/5/3
f 167/3/3 162/3/3 166/3/3
f 168/5/3 166/5/3 155/5/3
f 168/5/3 155/5/3 147/5/3
f 168/5/3 167/5/3 166/5/3
f 169/5/3 156/5/3 167/5/3
f 169/5/3 167/5/3 168/5/3
f 172/6/3 147/6/3 165/6/3
f 173/8/3 171/8/3 170/8/3
f 173/6/3 172/6/3 171/6/3
f 174/6/3 147/6/3 172/6/3
f 174/6/3 172/6/3 173/6/3
f 175/5/3 168/5/3 147/5/3
f 175/6/3 147/6/3 174/6/3
f 176/8/3 173/8/3 170/8/3
f 177/2/3 174/2/3 173/2/3
f 177/8/3 173/8/3 176/8/3
f 178/1/3 175/1/3 174/1/3
f 178/2/3 174/2/3 177/2/3
f 179/5/3 168/5/3 175/5/3
f 179/1/3 175/1/3 178/1/3
f 180/5/3 168/5/3 179/5/3
f 185/11/3 182/11/3 181/11/3
f 185/8/3 183/8/3 182/8/3
f 186/10/3 184/10/3 183/10/3
f 186/8/3 183/8/3 185/8/3
f 187/11/3 185/11/3 181/11/3
f 188/10/3 186/10/3 185/10/3
f 188/11/3 185/11/3 187/11/3
f 189/10/3 184/10/3 186/10/3
f 189/10/3 186/10/3 188/10/3
f 193/11/3 191/11/3 190/11/3
f 194/10/3 192/10/3 191/10/3
f 194/11/3 191/11/3 193/11/3
f 195/10/3 192/10/3 194/10/3
f 196/10/3 192/10/3 195/10/3
f 197/11/4 198/11/4 201/11/4
f 199/10/4 200/10/4 202/10/4
f 201/11/4 198/11/4 202/11/4
f 198/10/4 199/10/4 202/10/4
f 202/10/4 200/10/4 203/10/4
f 204/11/4 205/11/4 207/11/4
f 205/10/4 206/10/4 208/10/4
f 207/11/4 205/11/4 208/11/4
f 208/10/4 206/10/4 209/10/4
f 209/10/4 206/10/4 210/10/4
f 211/8/4 212/8/4 213/8/4
f 213/8/4 212/8/4 214/8/4
f 211/8/4 213/8/4 217/8/4
f 213/6/4 214/6/4 218/6/4
f 217/8/4 213/8/4 218/8/4
f 214/6/4 215/6/4 218/6/4
f 218/6/4 215/6/4 219/6/4
f 219/6/4 215/6/4 222/6/4
f 215/5/4 216/5/4 223/5/4
f 223/5/4 224/5/4 225/5/4
f 225/5/4 224/5/4 226/5/4
f 223/5/4 225/5/4 227/5/4
f 225/3/4 226/3/4 227/3/4
f 226/5/4 224/5/4 228/5/4
f 227/3/4 226/3/4 228/3/4
f 223/5/4 227/5/4 229/5/4
f 227/5/4 228/5/4 229/5/4
f 228/5/4 224/5/4 230/5/4
f 229/5/4 228/5/4 230/5/4
f 220/8/4 221/8/4 231/8/4
f 221/6/4 222/6/4 232/6/4
f 231/8/4 221/8/4 232/8/4
f 222/6/4 215/6/4 233/6/4
f 232/6/4 222/6/4 233/6/4
f 223/5/4 229/5/4 234/5/4
f 229/3/4 230/3/4 234/3/4
f 230/5/4 224/5/4 235/5/4
f 234/3/4 230/3/4 235/3/4
f 223/5/4 234/5/4 236/5/4
f 215/5/4 223/5/4 236/5/4
f 234/5/4 235/5/4 236/5/4
f 235/5/4 224/5/4 237/5/4
f 236/5/4 235/5/4 237/5/4
f 233/6/4 215/6/4 240/6/4
f 238/8/4 239/8/4 241/8/4
f 239/6/4 240/6/4 241/6/4
f 240/6/4 215/6/4 242/6/4
f 241/6/4 240/6/4 242/6/4
f 215/5/4 236/5/4 243/5/4
f 242/6/4 215/6/4 243/6/4
f 238/8/4 241/8/4 244/8/4
f 241/2/4 242/2/4 245/2/4
f 244/8/4 241/8/4 245/8/4
f 242/1/4 243/1/4 246/1/4
f 245/2/4 242/2/4 246/2/4
f 243/5/4 236/5/4 247/5/4
f 246/1/4 243/1/4 247/1/4
f 247/5/4 236/5/4 248/5/4
f 249/11/4 250/11/4 251/11/4
f 251/11/4 250/11/4 252/11/4
f 249/11/4 251/11/4 253/11/4
f 251/8/4 252/8/4 253/8/4
f 252/11/4 250/11/4 254/11/4
f 253/8/4 252/8/4 254/8/4
f 249/11/4 253/11/4 255/11/4
f 253/11/4 254/11/4 255/11/4
f 254/11/4 250/11/4 256/11/4
f 255/11/4 254/11/4 256/11/4
f 257/11/4 258/11/4 259/11/4
f 259/11/4 258/11/4 260/11/4
f 257/11/4 259/11/4 261/11/4
f 259/8/4 260/8/4 261/8/4
f 260/11/4 258/11/4 262/11/4
f 261/8/4 260/8/4 262/8/4
f 257/11/4 261/11/4 263/11/4
f 261/11/4 262/11/4 263/11/4
f 262/11/4 258/11/4 264/11/4
f 263/11/4 262/11/4 264/11/4
f 269/11/5 266/11/5 265/11/5
f 270/11/5 266/11/5 269/11/5
f 271/11/5 268/11/5 267/11/5
f 272/11/5 268/11/5 271/11/5
f 277/11/5 274/11/5 273/11/5
f 278/11/5 274/11/5 277/11/5
f 279/11/5 276/11/5 275/11/5
f 280/11/5 276/11/5 279/11/5
f 287/8/5 282/8/5 281/8/5
f 288/8/5 284/8/5 283/8/5
f 289/8/5 284/8/5 288/8/5
f 290/8/5 286/8/5 285/8/5
f 291/8/5 287/8/5 281/8/5
f 292/6/5 289/6/5 288/6/5
f 293/6/5 289/6/5 292/6/5
f 294/8/5 286/8/5 290/8/5
f 295/8/5 291/8/5 281/8/5
f 296/8/5 291/8/5 295/8/5
f 297/8/5 293/8/5 292/8/5
f 298/8/5 293/8/5 297/8/5
f 299/8/5 286/8/5 294/8/5
f 300/8/5 286/8/5 299/8/5
f 305/6/5 302/6/5 301/6/5
f 306/6/5 302/6/5 305/6/5
f 307/6/5 304/6/5 303/6/5
f 308/6/5 304/6/5 307/6/5
f 309/11/6 310/11/6 315/11/6
f 315/11/6 310/11/6 316/11/6
f 311/11/6 312/11/6 317/11/6
f 317/11/6 312/11/6 318/11/6
f 313/8/6 314/8/6 319/8/6
f 313/8/6 319/8/6 320/8/6
f 313/8/6 320/8/6 321/8/6
f 313/8/6 321/8/6 322/8/6
f 313/8/6 322/8/6 323/8/6
f 323/8/6 322/8/6 324/8/6
f 325/11/6 326/11/6 329/11/6
f 329/11/6 326/11/6 330/11/6
f 327/11/6 328/11/6 331/11/6
f 331/11/6 328/11/6 332/11/6
f 333/5/6 334/5/6 337/5/6
f 337/5/6 334/5/6 338/5/6
f 335/5/6 336/5/6 339/5/6
f 339/5/6 336/5/6 340/5/6
f 341/5/6 342/5/6 343/5/6
f 343/5/6 342/5/6 344/5/6
f 341/5/6 343/5/6 345/5/6
f 343/4/6 344/4/6 345/4/6
f 344/5/6 342/5/6 346/5/6
f 345/4/6 344/4/6 346/4/6
f 341/5/6 345/5/6 347/5/6
f 345/5/6 346/5/6 347/5/6
f 346/5/6 342/5/6 348/5/6
f 347/5/6 346/5/6 348/5/6
