# MagicaVoxel @ Ephtracy

# group
g Voiture_03

# material
mtllib Voiture_03.mtl
usemtl palette

# normals
vn -1 0 0
vn 1 0 0
vn 0 0 1
vn 0 0 -1
vn 0 -1 0
vn 0 1 0

# texcoords
vt 0.00976563 0.5
vt 0.115234 0.5
vt 0.447266 0.5
vt 0.751953 0.5
vt 0.845703 0.5
vt 0.853516 0.5
vt 0.958984 0.5
vt 0.966797 0.5
vt 0.974609 0.5
vt 0.978516 0.5
vt 0.982422 0.5
vt 0.990234 0.5
vt 0.994141 0.5

# verts
v -13 1 5
v -13 1 -5
v -13 2 5
v -13 2 -5
v -12 2 5
v -12 2 3
v -12 2 2
v -12 2 -2
v -12 2 -3
v -12 2 -5
v -12 3 2
v -12 3 -2
v -12 4 5
v -12 4 3
v -12 4 -3
v -12 4 -5
v -12 5 5
v -12 5 3
v -12 5 -3
v -12 5 -5
v -11 0 6
v -11 0 4
v -11 0 -4
v -11 0 -6
v -11 1 5
v -11 1 4
v -11 1 -4
v -11 1 -5
v -11 2 5
v -11 2 -5
v -11 3 6
v -11 3 5
v -11 3 -5
v -11 3 -6
v -8 1 4
v -8 1 -4
v -8 3 4
v -8 3 -4
v -7 5 5
v -7 5 4
v -7 5 2
v -7 5 1
v -7 5 -2
v -7 5 -3
v -7 5 -4
v -7 5 -5
v -7 6 5
v -7 6 4
v -7 6 2
v -7 6 1
v -7 6 -2
v -7 6 -3
v -7 6 -4
v -7 6 -5
v -6 6 5
v -6 6 4
v -6 6 2
v -6 6 1
v -6 6 -2
v -6 6 -3
v -6 6 -4
v -6 6 -5
v -6 7 5
v -6 7 4
v -6 7 -4
v -6 7 -5
v -5 7 5
v -5 7 4
v -5 7 -1
v -5 7 -2
v -5 7 -4
v -5 7 -5
v -5 8 4
v -5 8 -1
v -5 8 -2
v -5 8 -4
v -5 9 5
v -5 9 -5
v -4 5 6
v -4 5 5
v -4 5 -5
v -4 5 -6
v -4 6 6
v -4 6 5
v -4 6 -5
v -4 6 -6
v -3 5 1
v -3 5 -0
v -3 6 1
v -3 6 -0
v -1 4 4
v -1 4 -4
v -1 5 4
v -1 5 -4
v 1 5 4
v 1 5 1
v 1 5 -4
v 1 6 4
v 1 6 1
v 1 6 -4
v 2 6 4
v 2 6 1
v 2 6 -4
v 2 8 4
v 2 8 -4
v 3 0 6
v 3 0 4
v 3 0 -4
v 3 0 -6
v 3 1 5
v 3 1 4
v 3 1 -4
v 3 1 -5
v 3 2 5
v 3 2 -5
v 3 3 6
v 3 3 5
v 3 3 -5
v 3 3 -6
v 6 1 4
v 6 1 -4
v 6 2 4
v 6 2 -4
v 6 3 4
v 6 3 -4
v 7 0 4
v 7 0 2
v 7 1 4
v 7 1 2
v -11 1 4
v -11 1 -4
v -11 2 4
v -11 2 3
v -11 2 2
v -11 2 -2
v -11 2 -3
v -11 2 -4
v -11 3 4
v -11 3 3
v -11 3 2
v -11 3 -2
v -11 3 -3
v -11 3 -4
v -8 0 6
v -8 0 4
v -8 0 -4
v -8 0 -6
v -8 1 5
v -8 1 4
v -8 1 -4
v -8 1 -5
v -8 2 5
v -8 2 -5
v -8 3 6
v -8 3 5
v -8 3 -5
v -8 3 -6
v -6 5 4
v -6 5 2
v -6 5 1
v -6 5 -2
v -6 5 -3
v -6 5 -4
v -6 6 4
v -6 6 2
v -6 6 1
v -6 6 -2
v -6 6 -3
v -6 6 -4
v -5 4 4
v -5 4 1
v -5 4 -1
v -5 4 -4
v -5 5 4
v -5 5 1
v -5 5 -1
v -5 5 -4
v -5 6 4
v -5 6 -4
v -5 7 4
v -5 7 -1
v -5 7 -2
v -5 7 -4
v -4 7 4
v -4 7 -1
v -4 7 -2
v -4 7 -4
v -4 8 4
v -4 8 -1
v -4 8 -2
v -4 8 -4
v -3 5 6
v -3 5 5
v -3 5 -5
v -3 5 -6
v -3 6 6
v -3 6 5
v -3 6 -5
v -3 6 -6
v -2 4 1
v -2 4 -1
v -2 5 -0
v -2 5 -1
v -2 6 1
v -2 6 -0
v 3 1 4
v 3 1 -4
v 3 3 4
v 3 3 -4
v 3 6 5
v 3 6 4
v 3 6 -4
v 3 6 -5
v 3 8 4
v 3 8 -4
v 3 9 5
v 3 9 -5
v 5 5 5
v 5 5 -5
v 5 6 5
v 5 6 -5
v 6 0 6
v 6 0 4
v 6 0 -4
v 6 0 -6
v 6 1 5
v 6 1 4
v 6 1 -4
v 6 1 -5
v 6 2 5
v 6 2 -5
v 6 3 6
v 6 3 5
v 6 3 -5
v 6 3 -6
v 6 4 5
v 6 4 -5
v 6 5 5
v 6 5 -5
v 7 3 5
v 7 3 4
v 7 3 -4
v 7 3 -5
v 7 4 5
v 7 4 -5
v 8 1 5
v 8 1 4
v 8 1 2
v 8 1 -5
v 8 2 5
v 8 2 4
v 8 2 -4
v 8 2 -5
v 8 3 5
v 8 3 4
v 8 3 -4
v 8 3 -5
v 9 0 4
v 9 0 2
v 9 1 4
v 9 1 2
v -11 0 6
v -11 3 6
v -10 1 6
v -10 2 6
v -9 1 6
v -9 2 6
v -8 0 6
v -8 3 6
v -4 5 6
v -4 6 6
v -3 5 6
v -3 6 6
v 3 0 6
v 3 3 6
v 4 1 6
v 4 2 6
v 5 1 6
v 5 2 6
v 6 0 6
v 6 3 6
v -13 1 5
v -13 2 5
v -12 2 5
v -12 4 5
v -12 5 5
v -11 1 5
v -11 2 5
v -11 3 5
v -11 4 5
v -11 5 5
v -8 1 5
v -8 2 5
v -8 3 5
v -8 4 5
v -7 5 5
v -7 6 5
v -6 6 5
v -6 7 5
v -5 2 5
v -5 6 5
v -5 7 5
v -5 9 5
v -4 2 5
v -4 5 5
v -4 6 5
v -4 8 5
v -3 5 5
v -3 6 5
v -1 4 5
v -1 5 5
v 1 4 5
v 1 5 5
v 1 6 5
v 1 8 5
v 3 1 5
v 3 2 5
v 3 3 5
v 3 4 5
v 3 6 5
v 3 9 5
v 5 5 5
v 5 6 5
v 6 1 5
v 6 2 5
v 6 3 5
v 6 4 5
v 6 5 5
v 7 2 5
v 7 3 5
v 7 4 5
v 8 1 5
v 8 2 5
v 8 3 5
v 7 0 4
v 7 1 4
v 8 1 4
v 9 0 4
v 9 1 4
v -5 4 1
v -5 5 1
v -3 5 1
v -3 6 1
v -2 4 1
v -2 6 1
v -11 0 -4
v -11 1 -4
v -11 2 -4
v -11 3 -4
v -10 1 -4
v -10 2 -4
v -8 0 -4
v -8 1 -4
v -8 3 -4
v -6 5 -4
v -6 6 -4
v -5 4 -4
v -5 5 -4
v -5 6 -4
v -5 7 -4
v -4 4 -4
v -4 6 -4
v -4 7 -4
v -4 8 -4
v -1 4 -4
v -1 5 -4
v 1 5 -4
v 1 6 -4
v 1 8 -4
v 2 6 -4
v 2 8 -4
v 3 0 -4
v 3 1 -4
v 3 3 -4
v 6 0 -4
v 6 1 -4
v 6 2 -4
v 6 3 -4
v -11 0 4
v -11 1 4
v -11 2 4
v -11 3 4
v -8 0 4
v -8 1 4
v -8 3 4
v -6 5 4
v -6 6 4
v -5 4 4
v -5 5 4
v -5 6 4
v -5 7 4
v -4 4 4
v -4 6 4
v -4 7 4
v -4 8 4
v -1 4 4
v -1 5 4
v 1 5 4
v 1 6 4
v 1 8 4
v 2 6 4
v 2 8 4
v 3 0 4
v 3 1 4
v 3 3 4
v 6 0 4
v 6 1 4
v 6 2 4
v 6 3 4
v 7 0 2
v 7 1 2
v 8 1 2
v 9 0 2
v 9 1 2
v -3 5 -0
v -3 6 -0
v -2 5 -0
v -2 6 -0
v -5 4 -1
v -5 5 -1
v -2 4 -1
v -2 5 -1
v -13 1 -5
v -13 2 -5
v -12 2 -5
v -12 4 -5
v -12 5 -5
v -11 1 -5
v -11 2 -5
v -11 3 -5
v -11 4 -5
v -11 5 -5
v -8 1 -5
v -8 2 -5
v -8 3 -5
v -8 4 -5
v -7 5 -5
v -7 6 -5
v -6 6 -5
v -6 7 -5
v -5 2 -5
v -5 6 -5
v -5 7 -5
v -5 9 -5
v -4 2 -5
v -4 5 -5
v -4 6 -5
v -4 8 -5
v -3 5 -5
v -3 6 -5
v -1 4 -5
v -1 5 -5
v 1 4 -5
v 1 5 -5
v 1 6 -5
v 1 8 -5
v 3 1 -5
v 3 2 -5
v 3 3 -5
v 3 4 -5
v 3 6 -5
v 3 9 -5
v 5 5 -5
v 5 6 -5
v 6 1 -5
v 6 2 -5
v 6 3 -5
v 6 4 -5
v 6 5 -5
v 7 2 -5
v 7 3 -5
v 7 4 -5
v 8 1 -5
v 8 2 -5
v 8 3 -5
v -11 0 -6
v -11 3 -6
v -10 1 -6
v -10 2 -6
v -9 1 -6
v -9 2 -6
v -8 0 -6
v -8 3 -6
v -4 5 -6
v -4 6 -6
v -3 5 -6
v -3 6 -6
v 3 0 -6
v 3 3 -6
v 4 1 -6
v 4 2 -6
v 5 1 -6
v 5 2 -6
v 6 0 -6
v 6 3 -6
v -11 0 6
v -8 0 6
v 3 0 6
v 6 0 6
v -11 0 4
v -8 0 4
v 3 0 4
v 6 0 4
v 7 0 4
v 9 0 4
v 7 0 2
v 9 0 2
v -11 0 -4
v -8 0 -4
v 3 0 -4
v 6 0 -4
v -11 0 -6
v -8 0 -6
v 3 0 -6
v 6 0 -6
v -13 1 5
v -11 1 5
v -8 1 5
v 3 1 5
v 6 1 5
v 8 1 5
v -11 1 4
v -8 1 4
v 3 1 4
v 6 1 4
v 7 1 4
v 8 1 4
v 7 1 2
v 8 1 2
v -11 1 -4
v -8 1 -4
v 3 1 -4
v 6 1 -4
v -13 1 -5
v -11 1 -5
v -8 1 -5
v 3 1 -5
v 6 1 -5
v 8 1 -5
v -11 3 4
v -8 3 4
v 3 3 4
v 6 3 4
v -11 3 3
v -11 3 2
v -11 3 -2
v -11 3 -3
v -11 3 -4
v -8 3 -4
v 3 3 -4
v 6 3 -4
v -4 5 6
v -3 5 6
v -4 5 5
v -3 5 5
v -4 5 -5
v -3 5 -5
v -4 5 -6
v -3 5 -6
v -6 6 4
v -5 6 4
v -6 6 2
v -6 6 1
v -6 6 -2
v -6 6 -3
v -6 6 -4
v -5 6 -4
v -5 7 4
v -4 7 4
v -5 7 -1
v -4 7 -1
v -5 7 -2
v -4 7 -2
v -5 7 -4
v -4 7 -4
v -4 8 4
v 1 8 4
v 2 8 4
v -4 8 -1
v -4 8 -2
v -4 8 -4
v 1 8 -4
v 2 8 -4
v 8 1 4
v 9 1 4
v 8 1 2
v 9 1 2
v -13 2 5
v -12 2 5
v -12 2 3
v -12 2 2
v -12 2 -2
v -12 2 -3
v -13 2 -5
v -12 2 -5
v -11 3 6
v -8 3 6
v 3 3 6
v 6 3 6
v -11 3 5
v -8 3 5
v 3 3 5
v 6 3 5
v 7 3 5
v 8 3 5
v 7 3 4
v 8 3 4
v 7 3 -4
v 8 3 -4
v -11 3 -5
v -8 3 -5
v 3 3 -5
v 6 3 -5
v 7 3 -5
v 8 3 -5
v -11 3 -6
v -8 3 -6
v 3 3 -6
v 6 3 -6
v 6 4 5
v 7 4 5
v -5 4 4
v -4 4 4
v -1 4 4
v -5 4 1
v -2 4 1
v -5 4 -1
v -2 4 -1
v -5 4 -4
v -4 4 -4
v -1 4 -4
v 6 4 -5
v 7 4 -5
v -12 5 5
v -11 5 5
v -7 5 5
v 5 5 5
v 6 5 5
v -7 5 4
v -6 5 4
v -5 5 4
v -1 5 4
v 1 5 4
v -12 5 3
v -11 5 3
v -7 5 2
v -6 5 2
v -7 5 1
v -6 5 1
v -5 5 1
v -3 5 1
v 1 5 1
v -3 5 -0
v -2 5 -0
v -5 5 -1
v -2 5 -1
v -7 5 -2
v -6 5 -2
v -12 5 -3
v -11 5 -3
v -7 5 -3
v -6 5 -3
v -7 5 -4
v -6 5 -4
v -5 5 -4
v -1 5 -4
v 1 5 -4
v -12 5 -5
v -11 5 -5
v -7 5 -5
v 5 5 -5
v 6 5 -5
v -4 6 6
v -3 6 6
v -7 6 5
v -6 6 5
v -4 6 5
v -3 6 5
v 3 6 5
v 5 6 5
v -7 6 4
v -6 6 4
v 1 6 4
v 2 6 4
v 3 6 4
v -7 6 2
v -6 6 2
v -7 6 1
v -6 6 1
v -3 6 1
v -2 6 1
v 1 6 1
v 2 6 1
v -3 6 -0
v -2 6 -0
v -7 6 -2
v -6 6 -2
v -7 6 -3
v -6 6 -3
v -7 6 -4
v -6 6 -4
v 1 6 -4
v 2 6 -4
v 3 6 -4
v -7 6 -5
v -6 6 -5
v -4 6 -5
v -3 6 -5
v 3 6 -5
v 5 6 -5
v -4 6 -6
v -3 6 -6
v -6 7 5
v -5 7 5
v -6 7 4
v -5 7 4
v -5 7 -1
v -5 7 -2
v -6 7 -4
v -5 7 -4
v -6 7 -5
v -5 7 -5
v -5 9 5
v 3 9 5
v -5 9 -5
v 3 9 -5

# faces
f 3/9/1 2/9/1 1/9/1
f 4/9/1 2/9/1 3/9/1
f 11/9/1 7/9/1 6/9/1
f 11/10/1 8/10/1 7/10/1
f 12/9/1 9/9/1 8/9/1
f 12/10/1 8/10/1 11/10/1
f 13/7/1 6/7/1 5/7/1
f 14/9/1 11/9/1 6/9/1
f 14/7/1 6/7/1 13/7/1
f 14/9/1 12/9/1 11/9/1
f 15/9/1 9/9/1 12/9/1
f 15/9/1 12/9/1 14/9/1
f 15/7/1 10/7/1 9/7/1
f 16/7/1 10/7/1 15/7/1
f 17/1/1 14/1/1 13/1/1
f 18/7/1 15/7/1 14/7/1
f 18/1/1 14/1/1 17/1/1
f 19/1/1 16/1/1 15/1/1
f 19/7/1 15/7/1 18/7/1
f 20/1/1 16/1/1 19/1/1
f 25/13/1 22/13/1 21/13/1
f 26/13/1 22/13/1 25/13/1
f 27/13/1 24/13/1 23/13/1
f 28/13/1 24/13/1 27/13/1
f 29/13/1 25/13/1 21/13/1
f 30/13/1 24/13/1 28/13/1
f 31/13/1 29/13/1 21/13/1
f 32/13/1 29/13/1 31/13/1
f 33/13/1 24/13/1 30/13/1
f 34/13/1 24/13/1 33/13/1
f 37/6/1 36/6/1 35/6/1
f 38/6/1 36/6/1 37/6/1
f 47/7/1 40/7/1 39/7/1
f 48/4/1 41/4/1 40/4/1
f 48/7/1 40/7/1 47/7/1
f 49/3/1 42/3/1 41/3/1
f 49/4/1 41/4/1 48/4/1
f 50/4/1 43/4/1 42/4/1
f 50/3/1 42/3/1 49/3/1
f 51/3/1 44/3/1 43/3/1
f 51/4/1 43/4/1 50/4/1
f 52/4/1 45/4/1 44/4/1
f 52/3/1 44/3/1 51/3/1
f 53/7/1 46/7/1 45/7/1
f 53/4/1 45/4/1 52/4/1
f 54/7/1 46/7/1 53/7/1
f 63/7/1 56/7/1 55/7/1
f 64/4/1 57/4/1 56/4/1
f 64/7/1 56/7/1 63/7/1
f 64/4/1 58/4/1 57/4/1
f 64/4/1 61/4/1 60/4/1
f 64/4/1 60/4/1 59/4/1
f 64/4/1 59/4/1 58/4/1
f 65/7/1 62/7/1 61/7/1
f 65/4/1 61/4/1 64/4/1
f 66/7/1 62/7/1 65/7/1
f 73/7/1 68/7/1 67/7/1
f 73/4/1 69/4/1 68/4/1
f 74/3/1 70/3/1 69/3/1
f 74/4/1 69/4/1 73/4/1
f 75/4/1 71/4/1 70/4/1
f 75/3/1 70/3/1 74/3/1
f 76/7/1 72/7/1 71/7/1
f 76/4/1 71/4/1 75/4/1
f 77/7/1 75/7/1 74/7/1
f 77/7/1 74/7/1 73/7/1
f 77/7/1 76/7/1 75/7/1
f 77/7/1 73/7/1 67/7/1
f 78/7/1 72/7/1 76/7/1
f 78/7/1 76/7/1 77/7/1
f 83/7/1 80/7/1 79/7/1
f 84/7/1 80/7/1 83/7/1
f 85/7/1 82/7/1 81/7/1
f 86/7/1 82/7/1 85/7/1
f 89/12/1 88/12/1 87/12/1
f 90/12/1 88/12/1 89/12/1
f 93/12/1 92/12/1 91/12/1
f 94/12/1 92/12/1 93/12/1
f 98/12/1 96/12/1 95/12/1
f 99/7/1 97/7/1 96/7/1
f 99/12/1 96/12/1 98/12/1
f 100/7/1 97/7/1 99/7/1
f 104/4/1 102/4/1 101/4/1
f 104/4/1 103/4/1 102/4/1
f 105/4/1 103/4/1 104/4/1
f 110/13/1 107/13/1 106/13/1
f 111/13/1 107/13/1 110/13/1
f 112/13/1 109/13/1 108/13/1
f 113/13/1 109/13/1 112/13/1
f 114/13/1 110/13/1 106/13/1
f 115/13/1 109/13/1 113/13/1
f 116/13/1 114/13/1 106/13/1
f 117/13/1 114/13/1 116/13/1
f 118/13/1 109/13/1 115/13/1
f 119/13/1 109/13/1 118/13/1
f 122/9/1 121/9/1 120/9/1
f 123/9/1 121/9/1 122/9/1
f 124/7/1 123/7/1 122/7/1
f 125/7/1 123/7/1 124/7/1
f 128/9/1 127/9/1 126/9/1
f 129/9/1 127/9/1 128/9/1
f 130/9/2 131/9/2 132/9/2
f 132/9/2 131/9/2 133/9/2
f 133/9/2 131/9/2 134/9/2
f 134/9/2 131/9/2 135/9/2
f 135/9/2 131/9/2 136/9/2
f 136/9/2 131/9/2 137/9/2
f 132/7/2 133/7/2 138/7/2
f 133/9/2 134/9/2 139/9/2
f 138/7/2 133/7/2 139/7/2
f 134/10/2 135/10/2 140/10/2
f 139/9/2 134/9/2 140/9/2
f 135/9/2 136/9/2 141/9/2
f 140/10/2 135/10/2 141/10/2
f 136/7/2 137/7/2 142/7/2
f 141/9/2 136/9/2 142/9/2
f 142/7/2 137/7/2 143/7/2
f 144/13/2 145/13/2 148/13/2
f 148/13/2 145/13/2 149/13/2
f 146/13/2 147/13/2 150/13/2
f 150/13/2 147/13/2 151/13/2
f 144/13/2 148/13/2 152/13/2
f 151/13/2 147/13/2 153/13/2
f 144/13/2 152/13/2 154/13/2
f 154/13/2 152/13/2 155/13/2
f 153/13/2 147/13/2 156/13/2
f 156/13/2 147/13/2 157/13/2
f 158/4/2 159/4/2 164/4/2
f 159/3/2 160/3/2 165/3/2
f 164/4/2 159/4/2 165/4/2
f 160/4/2 161/4/2 166/4/2
f 165/3/2 160/3/2 166/3/2
f 161/3/2 162/3/2 167/3/2
f 166/4/2 161/4/2 167/4/2
f 162/4/2 163/4/2 168/4/2
f 167/3/2 162/3/2 168/3/2
f 168/4/2 163/4/2 169/4/2
f 170/7/2 171/7/2 174/7/2
f 174/7/2 171/7/2 175/7/2
f 172/7/2 173/7/2 176/7/2
f 176/7/2 173/7/2 177/7/2
f 178/4/2 179/4/2 180/4/2
f 180/4/2 179/4/2 181/4/2
f 181/4/2 179/4/2 182/4/2
f 182/4/2 179/4/2 183/4/2
f 184/4/2 185/4/2 188/4/2
f 185/3/2 186/3/2 189/3/2
f 188/4/2 185/4/2 189/4/2
f 186/4/2 187/4/2 190/4/2
f 189/3/2 186/3/2 190/3/2
f 190/4/2 187/4/2 191/4/2
f 192/7/2 193/7/2 196/7/2
f 196/7/2 193/7/2 197/7/2
f 194/7/2 195/7/2 198/7/2
f 198/7/2 195/7/2 199/7/2
f 200/12/2 201/12/2 202/12/2
f 202/12/2 201/12/2 203/12/2
f 200/12/2 202/12/2 204/12/2
f 204/12/2 202/12/2 205/12/2
f 206/6/2 207/6/2 208/6/2
f 208/6/2 207/6/2 209/6/2
f 211/4/2 212/4/2 214/4/2
f 210/7/2 211/7/2 214/7/2
f 212/7/2 213/7/2 215/7/2
f 214/4/2 212/4/2 215/4/2
f 210/7/2 214/7/2 216/7/2
f 214/7/2 215/7/2 216/7/2
f 215/7/2 213/7/2 217/7/2
f 216/7/2 215/7/2 217/7/2
f 218/7/2 219/7/2 220/7/2
f 220/7/2 219/7/2 221/7/2
f 222/13/2 223/13/2 226/13/2
f 226/13/2 223/13/2 227/13/2
f 224/13/2 225/13/2 228/13/2
f 228/13/2 225/13/2 229/13/2
f 222/13/2 226/13/2 230/13/2
f 229/13/2 225/13/2 231/13/2
f 222/13/2 230/13/2 232/13/2
f 232/13/2 230/13/2 233/13/2
f 231/13/2 225/13/2 234/13/2
f 234/13/2 225/13/2 235/13/2
f 236/7/2 237/7/2 238/7/2
f 238/7/2 237/7/2 239/7/2
f 240/7/2 241/7/2 244/7/2
f 242/7/2 243/7/2 244/7/2
f 241/7/2 242/7/2 244/7/2
f 244/7/2 243/7/2 245/7/2
f 246/9/2 247/9/2 250/9/2
f 248/9/2 249/9/2 250/9/2
f 247/9/2 248/9/2 250/9/2
f 250/9/2 249/9/2 251/9/2
f 251/9/2 249/9/2 252/9/2
f 252/9/2 249/9/2 253/9/2
f 250/2/2 251/2/2 254/2/2
f 251/11/2 252/11/2 255/11/2
f 254/2/2 251/2/2 255/2/2
f 252/2/2 253/2/2 256/2/2
f 255/11/2 252/11/2 256/11/2
f 256/2/2 253/2/2 257/2/2
f 258/9/2 259/9/2 260/9/2
f 260/9/2 259/9/2 261/9/2
f 264/13/3 263/13/3 262/13/3
f 265/13/3 263/13/3 264/13/3
f 266/13/3 264/13/3 262/13/3
f 266/9/3 265/9/3 264/9/3
f 267/13/3 263/13/3 265/13/3
f 267/9/3 265/9/3 266/9/3
f 268/13/3 266/13/3 262/13/3
f 268/13/3 267/13/3 266/13/3
f 269/13/3 263/13/3 267/13/3
f 269/13/3 267/13/3 268/13/3
f 272/7/3 271/7/3 270/7/3
f 273/7/3 271/7/3 272/7/3
f 276/13/3 275/13/3 274/13/3
f 277/13/3 275/13/3 276/13/3
f 278/13/3 276/13/3 274/13/3
f 278/9/3 277/9/3 276/9/3
f 279/13/3 275/13/3 277/13/3
f 279/9/3 277/9/3 278/9/3
f 280/13/3 278/13/3 274/13/3
f 280/13/3 279/13/3 278/13/3
f 281/13/3 275/13/3 279/13/3
f 281/13/3 279/13/3 280/13/3
f 284/9/3 283/9/3 282/9/3
f 287/9/3 284/9/3 282/9/3
f 288/7/3 285/7/3 284/7/3
f 288/9/3 284/9/3 287/9/3
f 289/7/3 285/7/3 288/7/3
f 290/1/3 286/1/3 285/1/3
f 290/7/3 285/7/3 289/7/3
f 291/1/3 286/1/3 290/1/3
f 294/8/3 290/8/3 289/8/3
f 295/7/3 291/7/3 290/7/3
f 295/8/3 290/8/3 294/8/3
f 296/7/3 294/7/3 293/7/3
f 296/7/3 291/7/3 295/7/3
f 296/7/3 295/7/3 294/7/3
f 298/7/3 297/7/3 296/7/3
f 300/7/3 296/7/3 293/7/3
f 300/7/3 299/7/3 298/7/3
f 300/7/3 298/7/3 296/7/3
f 300/9/3 293/9/3 292/9/3
f 301/7/3 299/7/3 300/7/3
f 302/7/3 299/7/3 301/7/3
f 304/9/3 300/9/3 292/9/3
f 304/8/3 301/8/3 300/8/3
f 305/8/3 301/8/3 304/8/3
f 306/7/3 303/7/3 302/7/3
f 306/8/3 301/8/3 305/8/3
f 306/7/3 302/7/3 301/7/3
f 307/7/3 303/7/3 306/7/3
f 308/7/3 305/7/3 304/7/3
f 309/4/3 307/4/3 306/4/3
f 310/7/3 308/7/3 304/7/3
f 310/7/3 309/7/3 308/7/3
f 311/7/3 309/7/3 310/7/3
f 312/7/3 310/7/3 304/7/3
f 312/8/3 311/8/3 310/8/3
f 313/7/3 309/7/3 311/7/3
f 313/8/3 311/8/3 312/8/3
f 314/4/3 307/4/3 309/4/3
f 314/7/3 309/7/3 313/7/3
f 315/7/3 303/7/3 307/7/3
f 315/4/3 307/4/3 314/4/3
f 316/9/3 304/9/3 292/9/3
f 317/7/3 314/7/3 313/7/3
f 317/9/3 304/9/3 316/9/3
f 317/7/3 313/7/3 312/7/3
f 317/7/3 315/7/3 314/7/3
f 317/7/3 312/7/3 304/7/3
f 318/7/3 315/7/3 317/7/3
f 319/7/3 315/7/3 318/7/3
f 320/7/3 315/7/3 319/7/3
f 321/7/3 303/7/3 315/7/3
f 321/7/3 315/7/3 320/7/3
f 322/7/3 320/7/3 319/7/3
f 323/7/3 320/7/3 322/7/3
f 326/8/3 319/8/3 318/8/3
f 327/7/3 322/7/3 319/7/3
f 327/8/3 319/8/3 326/8/3
f 328/7/3 322/7/3 327/7/3
f 329/9/3 325/9/3 324/9/3
f 329/7/3 326/7/3 325/7/3
f 329/7/3 327/7/3 326/7/3
f 330/7/3 327/7/3 329/7/3
f 331/7/3 327/7/3 330/7/3
f 332/9/3 329/9/3 324/9/3
f 333/2/3 330/2/3 329/2/3
f 333/9/3 329/9/3 332/9/3
f 334/2/3 330/2/3 333/2/3
f 337/9/3 336/9/3 335/9/3
f 338/9/3 337/9/3 335/9/3
f 339/9/3 337/9/3 338/9/3
f 342/12/3 341/12/3 340/12/3
f 344/12/3 342/12/3 340/12/3
f 344/12/3 343/12/3 342/12/3
f 345/12/3 343/12/3 344/12/3
f 350/13/3 347/13/3 346/13/3
f 350/9/3 348/9/3 347/9/3
f 351/12/3 349/12/3 348/12/3
f 351/9/3 348/9/3 350/9/3
f 352/13/3 350/13/3 346/13/3
f 353/12/3 351/12/3 350/12/3
f 353/13/3 350/13/3 352/13/3
f 354/12/3 349/12/3 351/12/3
f 354/12/3 351/12/3 353/12/3
f 358/7/3 356/7/3 355/7/3
f 359/7/3 356/7/3 358/7/3
f 361/8/3 358/8/3 357/8/3
f 361/8/3 359/8/3 358/8/3
f 362/7/3 360/7/3 359/7/3
f 362/8/3 359/8/3 361/8/3
f 363/7/3 360/7/3 362/7/3
f 365/7/3 362/7/3 361/7/3
f 366/7/3 362/7/3 365/7/3
f 367/7/3 362/7/3 366/7/3
f 368/4/3 364/4/3 363/4/3
f 368/7/3 362/7/3 367/7/3
f 368/4/3 363/4/3 362/4/3
f 369/4/3 364/4/3 368/4/3
f 370/7/3 369/7/3 368/7/3
f 371/7/3 369/7/3 370/7/3
f 375/13/3 373/13/3 372/13/3
f 376/12/3 374/12/3 373/12/3
f 376/13/3 373/13/3 375/13/3
f 377/12/3 374/12/3 376/12/3
f 378/12/3 374/12/3 377/12/3
f 379/13/4 380/13/4 383/13/4
f 381/12/4 382/12/4 384/12/4
f 383/13/4 380/13/4 384/13/4
f 380/12/4 381/12/4 384/12/4
f 384/12/4 382/12/4 385/12/4
f 386/7/4 387/7/4 389/7/4
f 389/7/4 387/7/4 390/7/4
f 388/8/4 389/8/4 392/8/4
f 389/8/4 390/8/4 392/8/4
f 390/7/4 391/7/4 393/7/4
f 392/8/4 390/8/4 393/8/4
f 393/7/4 391/7/4 394/7/4
f 392/7/4 393/7/4 396/7/4
f 396/7/4 393/7/4 397/7/4
f 397/7/4 393/7/4 398/7/4
f 394/4/4 395/4/4 399/4/4
f 398/7/4 393/7/4 399/7/4
f 393/4/4 394/4/4 399/4/4
f 399/4/4 395/4/4 400/4/4
f 399/7/4 400/7/4 401/7/4
f 401/7/4 400/7/4 402/7/4
f 403/13/4 404/13/4 406/13/4
f 404/12/4 405/12/4 407/12/4
f 406/13/4 404/13/4 407/13/4
f 407/12/4 405/12/4 408/12/4
f 408/12/4 405/12/4 409/12/4
f 410/9/4 411/9/4 412/9/4
f 410/9/4 412/9/4 413/9/4
f 413/9/4 412/9/4 414/9/4
f 415/12/4 416/12/4 417/12/4
f 417/12/4 416/12/4 418/12/4
f 419/12/4 420/12/4 421/12/4
f 421/12/4 420/12/4 422/12/4
f 423/9/4 424/9/4 425/9/4
f 423/9/4 425/9/4 428/9/4
f 425/7/4 426/7/4 429/7/4
f 428/9/4 425/9/4 429/9/4
f 429/7/4 426/7/4 430/7/4
f 426/1/4 427/1/4 431/1/4
f 430/7/4 426/7/4 431/7/4
f 431/1/4 427/1/4 432/1/4
f 430/8/4 431/8/4 435/8/4
f 431/7/4 432/7/4 436/7/4
f 435/8/4 431/8/4 436/8/4
f 434/7/4 435/7/4 437/7/4
f 436/7/4 432/7/4 437/7/4
f 435/7/4 436/7/4 437/7/4
f 437/7/4 438/7/4 439/7/4
f 434/7/4 437/7/4 441/7/4
f 439/7/4 440/7/4 441/7/4
f 437/7/4 439/7/4 441/7/4
f 433/9/4 434/9/4 441/9/4
f 441/7/4 440/7/4 442/7/4
f 442/7/4 440/7/4 443/7/4
f 433/9/4 441/9/4 445/9/4
f 441/8/4 442/8/4 445/8/4
f 445/8/4 442/8/4 446/8/4
f 443/7/4 444/7/4 447/7/4
f 446/8/4 442/8/4 447/8/4
f 442/7/4 443/7/4 447/7/4
f 447/7/4 444/7/4 448/7/4
f 445/7/4 446/7/4 449/7/4
f 447/4/4 448/4/4 450/4/4
f 445/7/4 449/7/4 451/7/4
f 449/7/4 450/7/4 451/7/4
f 451/7/4 450/7/4 452/7/4
f 445/7/4 451/7/4 453/7/4
f 451/8/4 452/8/4 453/8/4
f 452/7/4 450/7/4 454/7/4
f 453/8/4 452/8/4 454/8/4
f 450/4/4 448/4/4 455/4/4
f 454/7/4 450/7/4 455/7/4
f 448/7/4 444/7/4 456/7/4
f 455/4/4 448/4/4 456/4/4
f 433/9/4 445/9/4 457/9/4
f 454/7/4 455/7/4 458/7/4
f 457/9/4 445/9/4 458/9/4
f 453/7/4 454/7/4 458/7/4
f 455/7/4 456/7/4 458/7/4
f 445/7/4 453/7/4 458/7/4
f 458/7/4 456/7/4 459/7/4
f 459/7/4 456/7/4 460/7/4
f 460/7/4 456/7/4 461/7/4
f 456/7/4 444/7/4 462/7/4
f 461/7/4 456/7/4 462/7/4
f 460/7/4 461/7/4 463/7/4
f 463/7/4 461/7/4 464/7/4
f 459/8/4 460/8/4 467/8/4
f 460/7/4 463/7/4 468/7/4
f 467/8/4 460/8/4 468/8/4
f 468/7/4 463/7/4 469/7/4
f 465/9/4 466/9/4 470/9/4
f 466/7/4 467/7/4 470/7/4
f 467/7/4 468/7/4 470/7/4
f 470/7/4 468/7/4 471/7/4
f 471/7/4 468/7/4 472/7/4
f 465/9/4 470/9/4 473/9/4
f 470/2/4 471/2/4 474/2/4
f 473/9/4 470/9/4 474/9/4
f 474/2/4 471/2/4 475/2/4
f 476/13/4 477/13/4 478/13/4
f 478/13/4 477/13/4 479/13/4
f 476/13/4 478/13/4 480/13/4
f 478/9/4 479/9/4 480/9/4
f 479/13/4 477/13/4 481/13/4
f 480/9/4 479/9/4 481/9/4
f 476/13/4 480/13/4 482/13/4
f 480/13/4 481/13/4 482/13/4
f 481/13/4 477/13/4 483/13/4
f 482/13/4 481/13/4 483/13/4
f 484/7/4 485/7/4 486/7/4
f 486/7/4 485/7/4 487/7/4
f 488/13/4 489/13/4 490/13/4
f 490/13/4 489/13/4 491/13/4
f 488/13/4 490/13/4 492/13/4
f 490/9/4 491/9/4 492/9/4
f 491/13/4 489/13/4 493/13/4
f 492/9/4 491/9/4 493/9/4
f 488/13/4 492/13/4 494/13/4
f 492/13/4 493/13/4 494/13/4
f 493/13/4 489/13/4 495/13/4
f 494/13/4 493/13/4 495/13/4
f 500/13/5 497/13/5 496/13/5
f 501/13/5 497/13/5 500/13/5
f 502/13/5 499/13/5 498/13/5
f 503/13/5 499/13/5 502/13/5
f 506/9/5 505/9/5 504/9/5
f 507/9/5 505/9/5 506/9/5
f 512/13/5 509/13/5 508/13/5
f 513/13/5 509/13/5 512/13/5
f 514/13/5 511/13/5 510/13/5
f 515/13/5 511/13/5 514/13/5
f 522/9/5 517/9/5 516/9/5
f 523/9/5 519/9/5 518/9/5
f 524/9/5 519/9/5 523/9/5
f 525/9/5 521/9/5 520/9/5
f 526/9/5 521/9/5 525/9/5
f 527/9/5 521/9/5 526/9/5
f 528/9/5 526/9/5 525/9/5
f 530/9/5 522/9/5 516/9/5
f 531/6/5 524/6/5 523/6/5
f 532/6/5 524/6/5 531/6/5
f 533/9/5 529/9/5 528/9/5
f 533/9/5 528/9/5 525/9/5
f 534/9/5 530/9/5 516/9/5
f 535/9/5 530/9/5 534/9/5
f 536/9/5 532/9/5 531/9/5
f 537/9/5 532/9/5 536/9/5
f 538/9/5 529/9/5 533/9/5
f 539/9/5 529/9/5 538/9/5
f 544/6/5 541/6/5 540/6/5
f 545/6/5 541/6/5 544/6/5
f 546/6/5 541/6/5 545/6/5
f 547/6/5 541/6/5 546/6/5
f 548/6/5 541/6/5 547/6/5
f 549/6/5 541/6/5 548/6/5
f 550/6/5 543/6/5 542/6/5
f 551/6/5 543/6/5 550/6/5
f 554/7/5 553/7/5 552/7/5
f 555/7/5 553/7/5 554/7/5
f 558/7/5 557/7/5 556/7/5
f 559/7/5 557/7/5 558/7/5
f 562/4/5 561/4/5 560/4/5
f 563/4/5 561/4/5 562/4/5
f 564/4/5 561/4/5 563/4/5
f 565/4/5 561/4/5 564/4/5
f 566/4/5 561/4/5 565/4/5
f 567/4/5 561/4/5 566/4/5
f 570/4/5 569/4/5 568/4/5
f 571/4/5 569/4/5 570/4/5
f 572/3/5 571/3/5 570/3/5
f 573/3/5 571/3/5 572/3/5
f 574/4/5 573/4/5 572/4/5
f 575/4/5 573/4/5 574/4/5
f 579/7/5 577/7/5 576/7/5
f 579/7/5 578/7/5 577/7/5
f 580/7/5 578/7/5 579/7/5
f 581/7/5 578/7/5 580/7/5
f 582/7/5 578/7/5 581/7/5
f 583/7/5 578/7/5 582/7/5
f 584/9/6 585/9/6 586/9/6
f 586/9/6 585/9/6 587/9/6
f 588/9/6 589/9/6 590/9/6
f 588/9/6 590/9/6 591/9/6
f 588/9/6 591/9/6 592/9/6
f 588/9/6 592/9/6 593/9/6
f 588/9/6 593/9/6 594/9/6
f 594/9/6 593/9/6 595/9/6
f 596/13/6 597/13/6 600/13/6
f 600/13/6 597/13/6 601/13/6
f 598/13/6 599/13/6 602/13/6
f 602/13/6 599/13/6 603/13/6
f 604/2/6 605/2/6 606/2/6
f 606/2/6 605/2/6 607/2/6
f 606/11/6 607/11/6 608/11/6
f 608/11/6 607/11/6 609/11/6
f 608/2/6 609/2/6 614/2/6
f 614/2/6 609/2/6 615/2/6
f 610/13/6 611/13/6 616/13/6
f 616/13/6 611/13/6 617/13/6
f 612/13/6 613/13/6 618/13/6
f 618/13/6 613/13/6 619/13/6
f 622/12/6 623/12/6 625/12/6
f 623/12/6 624/12/6 625/12/6
f 625/12/6 624/12/6 626/12/6
f 626/12/6 624/12/6 628/12/6
f 627/12/6 628/12/6 629/12/6
f 629/12/6 628/12/6 630/12/6
f 628/12/6 624/12/6 631/12/6
f 630/12/6 628/12/6 631/12/6
f 620/7/6 621/7/6 632/7/6
f 632/7/6 621/7/6 633/7/6
f 635/7/6 636/7/6 639/7/6
f 634/1/6 635/1/6 644/1/6
f 635/7/6 639/7/6 645/7/6
f 644/1/6 635/1/6 645/1/6
f 644/7/6 645/7/6 646/7/6
f 645/7/6 639/7/6 646/7/6
f 640/7/6 641/7/6 647/7/6
f 644/7/6 646/7/6 648/7/6
f 647/7/6 641/7/6 649/7/6
f 649/7/6 641/7/6 650/7/6
f 642/12/6 643/12/6 652/12/6
f 650/12/6 651/12/6 653/12/6
f 649/7/6 650/7/6 655/7/6
f 653/12/6 654/12/6 655/12/6
f 650/12/6 653/12/6 655/12/6
f 655/12/6 654/12/6 656/12/6
f 644/7/6 648/7/6 657/7/6
f 649/7/6 655/7/6 658/7/6
f 644/7/6 657/7/6 659/7/6
f 659/7/6 657/7/6 660/7/6
f 660/7/6 657/7/6 661/7/6
f 658/7/6 655/7/6 662/7/6
f 660/7/6 661/7/6 663/7/6
f 662/7/6 655/7/6 664/7/6
f 664/7/6 655/7/6 665/7/6
f 642/12/6 652/12/6 666/12/6
f 666/12/6 652/12/6 667/12/6
f 659/1/6 660/1/6 668/1/6
f 660/7/6 663/7/6 669/7/6
f 668/1/6 660/1/6 669/1/6
f 669/7/6 663/7/6 670/7/6
f 637/7/6 638/7/6 671/7/6
f 671/7/6 638/7/6 672/7/6
f 673/7/6 674/7/6 677/7/6
f 677/7/6 674/7/6 678/7/6
f 675/7/6 676/7/6 681/7/6
f 681/7/6 676/7/6 682/7/6
f 679/7/6 680/7/6 685/7/6
f 681/4/6 682/4/6 686/4/6
f 686/4/6 682/4/6 687/4/6
f 686/3/6 687/3/6 688/3/6
f 688/3/6 687/3/6 689/3/6
f 683/12/6 684/12/6 692/12/6
f 692/12/6 684/12/6 693/12/6
f 690/12/6 691/12/6 694/12/6
f 694/12/6 691/12/6 695/12/6
f 688/4/6 689/4/6 696/4/6
f 696/4/6 689/4/6 697/4/6
f 696/3/6 697/3/6 698/3/6
f 698/3/6 697/3/6 699/3/6
f 698/4/6 699/4/6 700/4/6
f 700/4/6 699/4/6 701/4/6
f 692/7/6 693/7/6 702/7/6
f 702/7/6 693/7/6 703/7/6
f 685/7/6 680/7/6 704/7/6
f 700/7/6 701/7/6 705/7/6
f 705/7/6 701/7/6 706/7/6
f 704/7/6 680/7/6 709/7/6
f 709/7/6 680/7/6 710/7/6
f 707/7/6 708/7/6 711/7/6
f 711/7/6 708/7/6 712/7/6
f 713/7/6 714/7/6 715/7/6
f 715/7/6 714/7/6 716/7/6
f 715/4/6 716/4/6 717/4/6
f 715/4/6 717/4/6 718/4/6
f 715/4/6 718/4/6 719/4/6
f 719/4/6 718/4/6 720/4/6
f 719/7/6 720/7/6 721/7/6
f 721/7/6 720/7/6 722/7/6
f 723/7/6 724/7/6 725/7/6
f 725/7/6 724/7/6 726/7/6
