# MagicaVoxel @ Ephtracy

# group
o 

# material
mtllib Feu_trico.mtl
usemtl palette

# normals
vn -1 0 0
vn 1 0 0
vn 0 0 1
vn 0 0 -1
vn 0 -1 0
vn 0 1 0

# texcoords
vt 0.0605469 0.5
vt 0.166016 0.5
vt 0.173828 0.5
vt 0.720703 0.5
vt 0.986328 0.5

# verts
v 3.1 7.8 -3.2
v 3.1 7.8 -3.9
v 3.1 7.9 -3.1
v 3.1 7.9 -3.2
v 3.1 8 -3
v 3.1 8 -3.1
v 3.1 8.6 -2.9
v 3.1 8.6 -3
v 3.1 8.7 -2.9
v 3.1 8.7 -3.1
v 3.1 8.8 -3
v 3.1 8.8 -3.1
v 3.1 9.4 -2.9
v 3.1 9.4 -3
v 3.1 9.5 -2.9
v 3.1 9.5 -3.1
v 3.1 9.6 -3
v 3.1 9.6 -3.1
v 3.1 10.2 -2.9
v 3.1 10.2 -3
v 3.1 10.3 -2.9
v 3.1 10.3 -3.1
v 3.1 10.4 -3.1
v 3.1 10.4 -3.9
v 3.2 3.5 -3.3
v 3.2 3.5 -3.7
v 3.2 7.7 -3.3
v 3.2 7.7 -3.7
v 3.2 7.8 -3.3
v 3.2 7.8 -3.7
v 3.2 8.2 -2.9
v 3.2 8.2 -3
v 3.2 8.4 -2.9
v 3.2 8.4 -3
v 3.2 9 -2.9
v 3.2 9 -3
v 3.2 9.2 -2.9
v 3.2 9.2 -3
v 3.2 9.8 -2.9
v 3.2 9.8 -3
v 3.2 10 -2.9
v 3.2 10 -3
v 3.3 8.1 -2.9
v 3.3 8.1 -3
v 3.3 8.2 -2.9
v 3.3 8.2 -3
v 3.3 8.4 -2.9
v 3.3 8.4 -3
v 3.3 8.5 -2.9
v 3.3 8.5 -3
v 3.3 8.9 -2.9
v 3.3 8.9 -3
v 3.3 9 -2.9
v 3.3 9 -3
v 3.3 9.2 -2.9
v 3.3 9.2 -3
v 3.3 9.3 -2.9
v 3.3 9.3 -3
v 3.3 9.7 -2.9
v 3.3 9.7 -3
v 3.3 9.8 -2.9
v 3.3 9.8 -3
v 3.3 10 -2.9
v 3.3 10 -3
v 3.3 10.1 -2.9
v 3.3 10.1 -3
v 3.4 8 -2.9
v 3.4 8 -3
v 3.4 8.1 -2.9
v 3.4 8.1 -3
v 3.4 8.5 -2.9
v 3.4 8.5 -3
v 3.4 8.6 -2.9
v 3.4 8.6 -3
v 3.4 8.8 -2.9
v 3.4 8.8 -3
v 3.4 8.9 -2.9
v 3.4 8.9 -3
v 3.4 9.3 -2.9
v 3.4 9.3 -3
v 3.4 9.4 -2.9
v 3.4 9.4 -3
v 3.4 9.6 -2.9
v 3.4 9.6 -3
v 3.4 9.7 -2.9
v 3.4 9.7 -3
v 3.4 10.1 -2.9
v 3.4 10.1 -3
v 3.4 10.2 -2.9
v 3.4 10.2 -3
v 3.6 8 -2.9
v 3.6 8 -3
v 3.6 8.1 -2.9
v 3.6 8.1 -3
v 3.6 8.5 -2.9
v 3.6 8.5 -3
v 3.6 8.6 -2.9
v 3.6 8.6 -3
v 3.6 8.8 -2.9
v 3.6 8.8 -3
v 3.6 8.9 -2.9
v 3.6 8.9 -3
v 3.6 9.3 -2.9
v 3.6 9.3 -3
v 3.6 9.4 -2.9
v 3.6 9.4 -3
v 3.6 9.6 -2.9
v 3.6 9.6 -3
v 3.6 9.7 -2.9
v 3.6 9.7 -3
v 3.6 10.1 -2.9
v 3.6 10.1 -3
v 3.6 10.2 -2.9
v 3.6 10.2 -3
v 3.7 8.1 -2.9
v 3.7 8.1 -3
v 3.7 8.2 -2.9
v 3.7 8.2 -3
v 3.7 8.4 -2.9
v 3.7 8.4 -3
v 3.7 8.5 -2.9
v 3.7 8.5 -3
v 3.7 8.9 -2.9
v 3.7 8.9 -3
v 3.7 9 -2.9
v 3.7 9 -3
v 3.7 9.2 -2.9
v 3.7 9.2 -3
v 3.7 9.3 -2.9
v 3.7 9.3 -3
v 3.7 9.7 -2.9
v 3.7 9.7 -3
v 3.7 9.8 -2.9
v 3.7 9.8 -3
v 3.7 10 -2.9
v 3.7 10 -3
v 3.7 10.1 -2.9
v 3.7 10.1 -3
v 3.8 3.5 -3.3
v 3.8 3.5 -3.7
v 3.8 7.7 -3.3
v 3.8 7.7 -3.7
v 3.8 7.8 -3.3
v 3.8 7.8 -3.7
v 3.8 8.2 -2.9
v 3.8 8.2 -3
v 3.8 8.4 -2.9
v 3.8 8.4 -3
v 3.8 9 -2.9
v 3.8 9 -3
v 3.8 9.2 -2.9
v 3.8 9.2 -3
v 3.8 9.8 -2.9
v 3.8 9.8 -3
v 3.8 10 -2.9
v 3.8 10 -3
v 3.9 7.8 -3.2
v 3.9 7.8 -3.9
v 3.9 7.9 -3.1
v 3.9 7.9 -3.2
v 3.9 8 -3
v 3.9 8 -3.1
v 3.9 8.6 -2.9
v 3.9 8.6 -3
v 3.9 8.7 -2.9
v 3.9 8.7 -3.1
v 3.9 8.8 -3
v 3.9 8.8 -3.1
v 3.9 9.4 -2.9
v 3.9 9.4 -3
v 3.9 9.5 -2.9
v 3.9 9.5 -3.1
v 3.9 9.6 -3
v 3.9 9.6 -3.1
v 3.9 10.2 -2.9
v 3.9 10.2 -3
v 3.9 10.3 -2.9
v 3.9 10.3 -3.1
v 3.9 10.4 -3.1
v 3.9 10.4 -3.9
v 3.1 8.6 -2.9
v 3.1 8.7 -2.9
v 3.1 9.4 -2.9
v 3.1 9.5 -2.9
v 3.1 10.2 -2.9
v 3.1 10.3 -2.9
v 3.2 8.2 -2.9
v 3.2 8.4 -2.9
v 3.2 9 -2.9
v 3.2 9.2 -2.9
v 3.2 9.8 -2.9
v 3.2 10 -2.9
v 3.3 8.1 -2.9
v 3.3 8.2 -2.9
v 3.3 8.4 -2.9
v 3.3 8.5 -2.9
v 3.3 8.9 -2.9
v 3.3 9 -2.9
v 3.3 9.2 -2.9
v 3.3 9.3 -2.9
v 3.3 9.7 -2.9
v 3.3 9.8 -2.9
v 3.3 10 -2.9
v 3.3 10.1 -2.9
v 3.4 8 -2.9
v 3.4 8.1 -2.9
v 3.4 8.5 -2.9
v 3.4 8.6 -2.9
v 3.4 8.8 -2.9
v 3.4 8.9 -2.9
v 3.4 9.3 -2.9
v 3.4 9.4 -2.9
v 3.4 9.6 -2.9
v 3.4 9.7 -2.9
v 3.4 10.1 -2.9
v 3.4 10.2 -2.9
v 3.6 8 -2.9
v 3.6 8.1 -2.9
v 3.6 8.5 -2.9
v 3.6 8.6 -2.9
v 3.6 8.8 -2.9
v 3.6 8.9 -2.9
v 3.6 9.3 -2.9
v 3.6 9.4 -2.9
v 3.6 9.6 -2.9
v 3.6 9.7 -2.9
v 3.6 10.1 -2.9
v 3.6 10.2 -2.9
v 3.7 8.1 -2.9
v 3.7 8.2 -2.9
v 3.7 8.4 -2.9
v 3.7 8.5 -2.9
v 3.7 8.9 -2.9
v 3.7 9 -2.9
v 3.7 9.2 -2.9
v 3.7 9.3 -2.9
v 3.7 9.7 -2.9
v 3.7 9.8 -2.9
v 3.7 10 -2.9
v 3.7 10.1 -2.9
v 3.8 8.2 -2.9
v 3.8 8.4 -2.9
v 3.8 9 -2.9
v 3.8 9.2 -2.9
v 3.8 9.8 -2.9
v 3.8 10 -2.9
v 3.9 8.6 -2.9
v 3.9 8.7 -2.9
v 3.9 9.4 -2.9
v 3.9 9.5 -2.9
v 3.9 10.2 -2.9
v 3.9 10.3 -2.9
v 3.1 8 -3
v 3.1 8.6 -3
v 3.1 8.8 -3
v 3.1 9.4 -3
v 3.1 9.6 -3
v 3.1 10.2 -3
v 3.2 8.2 -3
v 3.2 8.4 -3
v 3.2 9 -3
v 3.2 9.2 -3
v 3.2 9.8 -3
v 3.2 10 -3
v 3.3 8.1 -3
v 3.3 8.2 -3
v 3.3 8.4 -3
v 3.3 8.5 -3
v 3.3 8.9 -3
v 3.3 9 -3
v 3.3 9.2 -3
v 3.3 9.3 -3
v 3.3 9.7 -3
v 3.3 9.8 -3
v 3.3 10 -3
v 3.3 10.1 -3
v 3.4 8 -3
v 3.4 8.1 -3
v 3.4 8.5 -3
v 3.4 8.6 -3
v 3.4 8.8 -3
v 3.4 8.9 -3
v 3.4 9.3 -3
v 3.4 9.4 -3
v 3.4 9.6 -3
v 3.4 9.7 -3
v 3.4 10.1 -3
v 3.4 10.2 -3
v 3.6 8 -3
v 3.6 8.1 -3
v 3.6 8.5 -3
v 3.6 8.6 -3
v 3.6 8.8 -3
v 3.6 8.9 -3
v 3.6 9.3 -3
v 3.6 9.4 -3
v 3.6 9.6 -3
v 3.6 9.7 -3
v 3.6 10.1 -3
v 3.6 10.2 -3
v 3.7 8.1 -3
v 3.7 8.2 -3
v 3.7 8.4 -3
v 3.7 8.5 -3
v 3.7 8.9 -3
v 3.7 9 -3
v 3.7 9.2 -3
v 3.7 9.3 -3
v 3.7 9.7 -3
v 3.7 9.8 -3
v 3.7 10 -3
v 3.7 10.1 -3
v 3.8 8.2 -3
v 3.8 8.4 -3
v 3.8 9 -3
v 3.8 9.2 -3
v 3.8 9.8 -3
v 3.8 10 -3
v 3.9 8 -3
v 3.9 8.6 -3
v 3.9 8.8 -3
v 3.9 9.4 -3
v 3.9 9.6 -3
v 3.9 10.2 -3
v 3.1 7.9 -3.1
v 3.1 8 -3.1
v 3.1 8.7 -3.1
v 3.1 8.8 -3.1
v 3.1 9.5 -3.1
v 3.1 9.6 -3.1
v 3.1 10.3 -3.1
v 3.1 10.4 -3.1
v 3.9 7.9 -3.1
v 3.9 8 -3.1
v 3.9 8.7 -3.1
v 3.9 8.8 -3.1
v 3.9 9.5 -3.1
v 3.9 9.6 -3.1
v 3.9 10.3 -3.1
v 3.9 10.4 -3.1
v 3.1 7.8 -3.2
v 3.1 7.9 -3.2
v 3.9 7.8 -3.2
v 3.9 7.9 -3.2
v 3.2 3.5 -3.3
v 3.2 7.7 -3.3
v 3.2 7.8 -3.3
v 3.8 3.5 -3.3
v 3.8 7.7 -3.3
v 3.8 7.8 -3.3
v 3.2 3.5 -3.7
v 3.2 7.7 -3.7
v 3.2 7.8 -3.7
v 3.8 3.5 -3.7
v 3.8 7.7 -3.7
v 3.8 7.8 -3.7
v 3.1 7.8 -3.9
v 3.1 10.4 -3.9
v 3.9 7.8 -3.9
v 3.9 10.4 -3.9
v 3.2 3.5 -3.3
v 3.8 3.5 -3.3
v 3.2 3.5 -3.7
v 3.8 3.5 -3.7
v 3.1 7.8 -3.2
v 3.9 7.8 -3.2
v 3.2 7.8 -3.3
v 3.8 7.8 -3.3
v 3.2 7.8 -3.7
v 3.8 7.8 -3.7
v 3.1 7.8 -3.9
v 3.9 7.8 -3.9
v 3.1 7.9 -3.1
v 3.9 7.9 -3.1
v 3.1 7.9 -3.2
v 3.9 7.9 -3.2
v 3.4 8 -2.9
v 3.6 8 -2.9
v 3.1 8 -3
v 3.4 8 -3
v 3.6 8 -3
v 3.9 8 -3
v 3.1 8 -3.1
v 3.9 8 -3.1
v 3.3 8.1 -2.9
v 3.4 8.1 -2.9
v 3.6 8.1 -2.9
v 3.7 8.1 -2.9
v 3.3 8.1 -3
v 3.4 8.1 -3
v 3.6 8.1 -3
v 3.7 8.1 -3
v 3.2 8.2 -2.9
v 3.3 8.2 -2.9
v 3.7 8.2 -2.9
v 3.8 8.2 -2.9
v 3.2 8.2 -3
v 3.3 8.2 -3
v 3.7 8.2 -3
v 3.8 8.2 -3
v 3.1 8.6 -2.9
v 3.4 8.6 -2.9
v 3.6 8.6 -2.9
v 3.9 8.6 -2.9
v 3.1 8.6 -3
v 3.4 8.6 -3
v 3.6 8.6 -3
v 3.9 8.6 -3
v 3.4 8.8 -2.9
v 3.6 8.8 -2.9
v 3.1 8.8 -3
v 3.4 8.8 -3
v 3.6 8.8 -3
v 3.9 8.8 -3
v 3.1 8.8 -3.1
v 3.9 8.8 -3.1
v 3.3 8.9 -2.9
v 3.4 8.9 -2.9
v 3.6 8.9 -2.9
v 3.7 8.9 -2.9
v 3.3 8.9 -3
v 3.4 8.9 -3
v 3.6 8.9 -3
v 3.7 8.9 -3
v 3.2 9 -2.9
v 3.3 9 -2.9
v 3.7 9 -2.9
v 3.8 9 -2.9
v 3.2 9 -3
v 3.3 9 -3
v 3.7 9 -3
v 3.8 9 -3
v 3.1 9.4 -2.9
v 3.4 9.4 -2.9
v 3.6 9.4 -2.9
v 3.9 9.4 -2.9
v 3.1 9.4 -3
v 3.4 9.4 -3
v 3.6 9.4 -3
v 3.9 9.4 -3
v 3.4 9.6 -2.9
v 3.6 9.6 -2.9
v 3.1 9.6 -3
v 3.4 9.6 -3
v 3.6 9.6 -3
v 3.9 9.6 -3
v 3.1 9.6 -3.1
v 3.9 9.6 -3.1
v 3.3 9.7 -2.9
v 3.4 9.7 -2.9
v 3.6 9.7 -2.9
v 3.7 9.7 -2.9
v 3.3 9.7 -3
v 3.4 9.7 -3
v 3.6 9.7 -3
v 3.7 9.7 -3
v 3.2 9.8 -2.9
v 3.3 9.8 -2.9
v 3.7 9.8 -2.9
v 3.8 9.8 -2.9
v 3.2 9.8 -3
v 3.3 9.8 -3
v 3.7 9.8 -3
v 3.8 9.8 -3
v 3.1 10.2 -2.9
v 3.4 10.2 -2.9
v 3.6 10.2 -2.9
v 3.9 10.2 -2.9
v 3.1 10.2 -3
v 3.4 10.2 -3
v 3.6 10.2 -3
v 3.9 10.2 -3
v 3.2 8.4 -2.9
v 3.3 8.4 -2.9
v 3.7 8.4 -2.9
v 3.8 8.4 -2.9
v 3.2 8.4 -3
v 3.3 8.4 -3
v 3.7 8.4 -3
v 3.8 8.4 -3
v 3.3 8.5 -2.9
v 3.4 8.5 -2.9
v 3.6 8.5 -2.9
v 3.7 8.5 -2.9
v 3.3 8.5 -3
v 3.4 8.5 -3
v 3.6 8.5 -3
v 3.7 8.5 -3
v 3.1 8.7 -2.9
v 3.9 8.7 -2.9
v 3.1 8.7 -3.1
v 3.9 8.7 -3.1
v 3.2 9.2 -2.9
v 3.3 9.2 -2.9
v 3.7 9.2 -2.9
v 3.8 9.2 -2.9
v 3.2 9.2 -3
v 3.3 9.2 -3
v 3.7 9.2 -3
v 3.8 9.2 -3
v 3.3 9.3 -2.9
v 3.4 9.3 -2.9
v 3.6 9.3 -2.9
v 3.7 9.3 -2.9
v 3.3 9.3 -3
v 3.4 9.3 -3
v 3.6 9.3 -3
v 3.7 9.3 -3
v 3.1 9.5 -2.9
v 3.9 9.5 -2.9
v 3.1 9.5 -3.1
v 3.9 9.5 -3.1
v 3.2 10 -2.9
v 3.3 10 -2.9
v 3.7 10 -2.9
v 3.8 10 -2.9
v 3.2 10 -3
v 3.3 10 -3
v 3.7 10 -3
v 3.8 10 -3
v 3.3 10.1 -2.9
v 3.4 10.1 -2.9
v 3.6 10.1 -2.9
v 3.7 10.1 -2.9
v 3.3 10.1 -3
v 3.4 10.1 -3
v 3.6 10.1 -3
v 3.7 10.1 -3
v 3.1 10.3 -2.9
v 3.9 10.3 -2.9
v 3.1 10.3 -3.1
v 3.9 10.3 -3.1
v 3.1 10.4 -3.1
v 3.9 10.4 -3.1
v 3.1 10.4 -3.9
v 3.9 10.4 -3.9

# faces
f 4/2/1 2/2/1 1/2/1
f 6/2/1 4/2/1 3/2/1
f 8/2/1 6/2/1 5/2/1
f 9/2/1 8/2/1 7/2/1
f 10/2/1 4/2/1 6/2/1
f 10/2/1 8/2/1 9/2/1
f 10/2/1 6/2/1 8/2/1
f 12/2/1 4/2/1 10/2/1
f 14/2/1 12/2/1 11/2/1
f 15/2/1 14/2/1 13/2/1
f 16/2/1 4/2/1 12/2/1
f 16/2/1 14/2/1 15/2/1
f 16/2/1 12/2/1 14/2/1
f 18/2/1 4/2/1 16/2/1
f 20/2/1 18/2/1 17/2/1
f 21/2/1 20/2/1 19/2/1
f 22/2/1 4/2/1 18/2/1
f 22/2/1 20/2/1 21/2/1
f 22/2/1 18/2/1 20/2/1
f 23/2/1 4/2/1 22/2/1
f 24/2/1 2/2/1 4/2/1
f 24/2/1 4/2/1 23/2/1
f 27/3/1 26/3/1 25/3/1
f 28/3/1 26/3/1 27/3/1
f 29/2/1 28/2/1 27/2/1
f 30/2/1 28/2/1 29/2/1
f 33/5/1 32/5/1 31/5/1
f 34/5/1 32/5/1 33/5/1
f 37/4/1 36/4/1 35/4/1
f 38/4/1 36/4/1 37/4/1
f 41/1/1 40/1/1 39/1/1
f 42/1/1 40/1/1 41/1/1
f 45/5/1 44/5/1 43/5/1
f 46/5/1 44/5/1 45/5/1
f 49/5/1 48/5/1 47/5/1
f 50/5/1 48/5/1 49/5/1
f 53/4/1 52/4/1 51/4/1
f 54/4/1 52/4/1 53/4/1
f 57/4/1 56/4/1 55/4/1
f 58/4/1 56/4/1 57/4/1
f 61/1/1 60/1/1 59/1/1
f 62/1/1 60/1/1 61/1/1
f 65/1/1 64/1/1 63/1/1
f 66/1/1 64/1/1 65/1/1
f 69/5/1 68/5/1 67/5/1
f 70/5/1 68/5/1 69/5/1
f 73/5/1 72/5/1 71/5/1
f 74/5/1 72/5/1 73/5/1
f 77/4/1 76/4/1 75/4/1
f 78/4/1 76/4/1 77/4/1
f 81/4/1 80/4/1 79/4/1
f 82/4/1 80/4/1 81/4/1
f 85/1/1 84/1/1 83/1/1
f 86/1/1 84/1/1 85/1/1
f 89/1/1 88/1/1 87/1/1
f 90/1/1 88/1/1 89/1/1
f 91/5/2 92/5/2 93/5/2
f 93/5/2 92/5/2 94/5/2
f 95/5/2 96/5/2 97/5/2
f 97/5/2 96/5/2 98/5/2
f 99/4/2 100/4/2 101/4/2
f 101/4/2 100/4/2 102/4/2
f 103/4/2 104/4/2 105/4/2
f 105/4/2 104/4/2 106/4/2
f 107/1/2 108/1/2 109/1/2
f 109/1/2 108/1/2 110/1/2
f 111/1/2 112/1/2 113/1/2
f 113/1/2 112/1/2 114/1/2
f 115/5/2 116/5/2 117/5/2
f 117/5/2 116/5/2 118/5/2
f 119/5/2 120/5/2 121/5/2
f 121/5/2 120/5/2 122/5/2
f 123/4/2 124/4/2 125/4/2
f 125/4/2 124/4/2 126/4/2
f 127/4/2 128/4/2 129/4/2
f 129/4/2 128/4/2 130/4/2
f 131/1/2 132/1/2 133/1/2
f 133/1/2 132/1/2 134/1/2
f 135/1/2 136/1/2 137/1/2
f 137/1/2 136/1/2 138/1/2
f 139/3/2 140/3/2 141/3/2
f 141/3/2 140/3/2 142/3/2
f 141/2/2 142/2/2 143/2/2
f 143/2/2 142/2/2 144/2/2
f 145/5/2 146/5/2 147/5/2
f 147/5/2 146/5/2 148/5/2
f 149/4/2 150/4/2 151/4/2
f 151/4/2 150/4/2 152/4/2
f 153/1/2 154/1/2 155/1/2
f 155/1/2 154/1/2 156/1/2
f 157/2/2 158/2/2 160/2/2
f 159/2/2 160/2/2 162/2/2
f 161/2/2 162/2/2 164/2/2
f 163/2/2 164/2/2 165/2/2
f 162/2/2 160/2/2 166/2/2
f 165/2/2 164/2/2 166/2/2
f 164/2/2 162/2/2 166/2/2
f 166/2/2 160/2/2 168/2/2
f 167/2/2 168/2/2 170/2/2
f 169/2/2 170/2/2 171/2/2
f 168/2/2 160/2/2 172/2/2
f 171/2/2 170/2/2 172/2/2
f 170/2/2 168/2/2 172/2/2
f 172/2/2 160/2/2 174/2/2
f 173/2/2 174/2/2 176/2/2
f 175/2/2 176/2/2 177/2/2
f 174/2/2 160/2/2 178/2/2
f 177/2/2 176/2/2 178/2/2
f 176/2/2 174/2/2 178/2/2
f 178/2/2 160/2/2 179/2/2
f 160/2/2 158/2/2 180/2/2
f 179/2/2 160/2/2 180/2/2
f 194/5/3 188/5/3 187/5/3
f 195/5/3 188/5/3 194/5/3
f 198/4/3 190/4/3 189/4/3
f 199/4/3 190/4/3 198/4/3
f 202/1/3 192/1/3 191/1/3
f 203/1/3 192/1/3 202/1/3
f 206/5/3 196/5/3 195/5/3
f 206/5/3 194/5/3 193/5/3
f 206/5/3 195/5/3 194/5/3
f 207/5/3 196/5/3 206/5/3
f 208/2/3 182/2/3 181/2/3
f 210/4/3 200/4/3 199/4/3
f 210/4/3 198/4/3 197/4/3
f 210/4/3 199/4/3 198/4/3
f 211/4/3 200/4/3 210/4/3
f 212/2/3 184/2/3 183/2/3
f 214/1/3 204/1/3 203/1/3
f 214/1/3 203/1/3 202/1/3
f 214/1/3 202/1/3 201/1/3
f 215/1/3 204/1/3 214/1/3
f 216/2/3 186/2/3 185/2/3
f 217/5/3 207/5/3 206/5/3
f 217/5/3 208/5/3 207/5/3
f 217/5/3 206/5/3 205/5/3
f 218/5/3 208/5/3 217/5/3
f 219/5/3 208/5/3 218/5/3
f 220/2/3 182/2/3 208/2/3
f 220/5/3 208/5/3 219/5/3
f 221/4/3 211/4/3 210/4/3
f 221/4/3 212/4/3 211/4/3
f 221/4/3 210/4/3 209/4/3
f 222/4/3 212/4/3 221/4/3
f 223/4/3 212/4/3 222/4/3
f 224/2/3 184/2/3 212/2/3
f 224/4/3 212/4/3 223/4/3
f 225/1/3 216/1/3 215/1/3
f 225/1/3 215/1/3 214/1/3
f 225/1/3 214/1/3 213/1/3
f 226/1/3 216/1/3 225/1/3
f 227/1/3 216/1/3 226/1/3
f 228/2/3 186/2/3 216/2/3
f 228/1/3 216/1/3 227/1/3
f 229/5/3 219/5/3 218/5/3
f 230/5/3 219/5/3 229/5/3
f 231/5/3 219/5/3 230/5/3
f 232/5/3 219/5/3 231/5/3
f 233/4/3 223/4/3 222/4/3
f 234/4/3 223/4/3 233/4/3
f 235/4/3 223/4/3 234/4/3
f 236/4/3 223/4/3 235/4/3
f 237/1/3 227/1/3 226/1/3
f 238/1/3 227/1/3 237/1/3
f 239/1/3 227/1/3 238/1/3
f 240/1/3 227/1/3 239/1/3
f 241/5/3 231/5/3 230/5/3
f 242/5/3 231/5/3 241/5/3
f 243/4/3 235/4/3 234/4/3
f 244/4/3 235/4/3 243/4/3
f 245/1/3 239/1/3 238/1/3
f 246/1/3 239/1/3 245/1/3
f 247/2/3 182/2/3 220/2/3
f 248/2/3 182/2/3 247/2/3
f 249/2/3 184/2/3 224/2/3
f 250/2/3 184/2/3 249/2/3
f 251/2/3 186/2/3 228/2/3
f 252/2/3 186/2/3 251/2/3
f 259/2/3 254/2/3 253/2/3
f 260/2/3 254/2/3 259/2/3
f 261/2/3 256/2/3 255/2/3
f 262/2/3 256/2/3 261/2/3
f 263/2/3 258/2/3 257/2/3
f 264/2/3 258/2/3 263/2/3
f 265/2/3 259/2/3 253/2/3
f 266/2/3 259/2/3 265/2/3
f 267/2/3 254/2/3 260/2/3
f 268/2/3 254/2/3 267/2/3
f 269/2/3 261/2/3 255/2/3
f 270/2/3 261/2/3 269/2/3
f 271/2/3 256/2/3 262/2/3
f 272/2/3 256/2/3 271/2/3
f 273/2/3 263/2/3 257/2/3
f 274/2/3 263/2/3 273/2/3
f 275/2/3 258/2/3 264/2/3
f 276/2/3 258/2/3 275/2/3
f 277/2/3 265/2/3 253/2/3
f 278/2/3 265/2/3 277/2/3
f 279/2/3 254/2/3 268/2/3
f 280/2/3 254/2/3 279/2/3
f 281/2/3 269/2/3 255/2/3
f 282/2/3 269/2/3 281/2/3
f 283/2/3 256/2/3 272/2/3
f 284/2/3 256/2/3 283/2/3
f 285/2/3 273/2/3 257/2/3
f 286/2/3 273/2/3 285/2/3
f 287/2/3 258/2/3 276/2/3
f 288/2/3 258/2/3 287/2/3
f 301/2/3 290/2/3 289/2/3
f 304/2/3 292/2/3 291/2/3
f 305/2/3 294/2/3 293/2/3
f 308/2/3 296/2/3 295/2/3
f 309/2/3 298/2/3 297/2/3
f 312/2/3 300/2/3 299/2/3
f 313/2/3 302/2/3 301/2/3
f 314/2/3 304/2/3 303/2/3
f 315/2/3 306/2/3 305/2/3
f 316/2/3 308/2/3 307/2/3
f 317/2/3 310/2/3 309/2/3
f 318/2/3 312/2/3 311/2/3
f 319/2/3 313/2/3 301/2/3
f 319/2/3 314/2/3 313/2/3
f 319/2/3 301/2/3 289/2/3
f 320/2/3 292/2/3 304/2/3
f 320/2/3 314/2/3 319/2/3
f 320/2/3 304/2/3 314/2/3
f 321/2/3 316/2/3 315/2/3
f 321/2/3 315/2/3 305/2/3
f 321/2/3 305/2/3 293/2/3
f 322/2/3 308/2/3 316/2/3
f 322/2/3 316/2/3 321/2/3
f 322/2/3 296/2/3 308/2/3
f 323/2/3 317/2/3 309/2/3
f 323/2/3 318/2/3 317/2/3
f 323/2/3 309/2/3 297/2/3
f 324/2/3 300/2/3 312/2/3
f 324/2/3 318/2/3 323/2/3
f 324/2/3 312/2/3 318/2/3
f 333/2/3 326/2/3 325/2/3
f 334/2/3 326/2/3 333/2/3
f 335/2/3 328/2/3 327/2/3
f 336/2/3 328/2/3 335/2/3
f 337/2/3 330/2/3 329/2/3
f 338/2/3 330/2/3 337/2/3
f 339/2/3 332/2/3 331/2/3
f 340/2/3 332/2/3 339/2/3
f 343/2/3 342/2/3 341/2/3
f 344/2/3 342/2/3 343/2/3
f 348/3/3 346/3/3 345/3/3
f 349/2/3 347/2/3 346/2/3
f 349/3/3 346/3/3 348/3/3
f 350/2/3 347/2/3 349/2/3
f 351/3/4 352/3/4 354/3/4
f 352/2/4 353/2/4 355/2/4
f 354/3/4 352/3/4 355/3/4
f 355/2/4 353/2/4 356/2/4
f 357/2/4 358/2/4 359/2/4
f 359/2/4 358/2/4 360/2/4
f 363/3/5 362/3/5 361/3/5
f 364/3/5 362/3/5 363/3/5
f 367/2/5 366/2/5 365/2/5
f 368/2/5 366/2/5 367/2/5
f 369/2/5 367/2/5 365/2/5
f 370/2/5 366/2/5 368/2/5
f 371/2/5 369/2/5 365/2/5
f 371/2/5 370/2/5 369/2/5
f 372/2/5 366/2/5 370/2/5
f 372/2/5 370/2/5 371/2/5
f 375/2/5 374/2/5 373/2/5
f 376/2/5 374/2/5 375/2/5
f 380/5/5 378/5/5 377/5/5
f 381/5/5 378/5/5 380/5/5
f 383/2/5 380/2/5 379/2/5
f 383/2/5 382/2/5 381/2/5
f 383/2/5 381/2/5 380/2/5
f 384/2/5 382/2/5 383/2/5
f 389/5/5 386/5/5 385/5/5
f 390/5/5 386/5/5 389/5/5
f 391/5/5 388/5/5 387/5/5
f 392/5/5 388/5/5 391/5/5
f 397/5/5 394/5/5 393/5/5
f 398/5/5 394/5/5 397/5/5
f 399/5/5 396/5/5 395/5/5
f 400/5/5 396/5/5 399/5/5
f 405/2/5 402/2/5 401/2/5
f 406/2/5 402/2/5 405/2/5
f 407/2/5 404/2/5 403/2/5
f 408/2/5 404/2/5 407/2/5
f 412/4/5 410/4/5 409/4/5
f 413/4/5 410/4/5 412/4/5
f 415/2/5 412/2/5 411/2/5
f 415/2/5 414/2/5 413/2/5
f 415/2/5 413/2/5 412/2/5
f 416/2/5 414/2/5 415/2/5
f 421/4/5 418/4/5 417/4/5
f 422/4/5 418/4/5 421/4/5
f 423/4/5 420/4/5 419/4/5
f 424/4/5 420/4/5 423/4/5
f 429/4/5 426/4/5 425/4/5
f 430/4/5 426/4/5 429/4/5
f 431/4/5 428/4/5 427/4/5
f 432/4/5 428/4/5 431/4/5
f 437/2/5 434/2/5 433/2/5
f 438/2/5 434/2/5 437/2/5
f 439/2/5 436/2/5 435/2/5
f 440/2/5 436/2/5 439/2/5
f 444/1/5 442/1/5 441/1/5
f 445/1/5 442/1/5 444/1/5
f 447/2/5 444/2/5 443/2/5
f 447/2/5 446/2/5 445/2/5
f 447/2/5 445/2/5 444/2/5
f 448/2/5 446/2/5 447/2/5
f 453/1/5 450/1/5 449/1/5
f 454/1/5 450/1/5 453/1/5
f 455/1/5 452/1/5 451/1/5
f 456/1/5 452/1/5 455/1/5
f 461/1/5 458/1/5 457/1/5
f 462/1/5 458/1/5 461/1/5
f 463/1/5 460/1/5 459/1/5
f 464/1/5 460/1/5 463/1/5
f 469/2/5 466/2/5 465/2/5
f 470/2/5 466/2/5 469/2/5
f 471/2/5 468/2/5 467/2/5
f 472/2/5 468/2/5 471/2/5
f 473/5/6 474/5/6 477/5/6
f 477/5/6 474/5/6 478/5/6
f 475/5/6 476/5/6 479/5/6
f 479/5/6 476/5/6 480/5/6
f 481/5/6 482/5/6 485/5/6
f 485/5/6 482/5/6 486/5/6
f 483/5/6 484/5/6 487/5/6
f 487/5/6 484/5/6 488/5/6
f 489/2/6 490/2/6 491/2/6
f 491/2/6 490/2/6 492/2/6
f 493/4/6 494/4/6 497/4/6
f 497/4/6 494/4/6 498/4/6
f 495/4/6 496/4/6 499/4/6
f 499/4/6 496/4/6 500/4/6
f 501/4/6 502/4/6 505/4/6
f 505/4/6 502/4/6 506/4/6
f 503/4/6 504/4/6 507/4/6
f 507/4/6 504/4/6 508/4/6
f 509/2/6 510/2/6 511/2/6
f 511/2/6 510/2/6 512/2/6
f 513/1/6 514/1/6 517/1/6
f 517/1/6 514/1/6 518/1/6
f 515/1/6 516/1/6 519/1/6
f 519/1/6 516/1/6 520/1/6
f 521/1/6 522/1/6 525/1/6
f 525/1/6 522/1/6 526/1/6
f 523/1/6 524/1/6 527/1/6
f 527/1/6 524/1/6 528/1/6
f 529/2/6 530/2/6 531/2/6
f 531/2/6 530/2/6 532/2/6
f 533/2/6 534/2/6 535/2/6
f 535/2/6 534/2/6 536/2/6
