# MagicaVoxel @ Ephtracy

# group
o 

# material
mtllib lampadaire.mtl
usemtl palette

# normals
vn -1 0 0
vn 1 0 0
vn 0 0 1
vn 0 0 -1
vn 0 -1 0
vn 0 1 0

# texcoords
vt 0.181641 0.5
vt 0.751953 0.5

# verts
v 4.5 11 -4.4
v 4.5 11 -5.4
v 4.5 11.1 -5.4
v 4.5 11.1 -5.5
v 4.5 11.2 -5.4
v 4.5 11.2 -5.5
v 4.5 11.3 -4.4
v 4.5 11.3 -5.4
v 4.6 5 -7.4
v 4.6 5 -7.7
v 4.6 9.6 -7.4
v 4.6 9.6 -7.7
v 4.6 10.8 -4.5
v 4.6 10.8 -5.2
v 4.6 10.8 -7.4
v 4.6 10.8 -7.7
v 4.6 11 -4.5
v 4.6 11 -5.2
v 4.6 11.1 -7.4
v 4.6 11.1 -7.7
v 4.7 5 -7.3
v 4.7 5 -7.4
v 4.7 5 -7.7
v 4.7 5 -7.8
v 4.7 9.6 -7.3
v 4.7 9.6 -7.4
v 4.7 9.6 -7.7
v 4.7 9.6 -7.8
v 4.7 10.8 -7.4
v 4.7 10.8 -7.7
v 4.7 10.8 -7.8
v 4.7 10.9 -6.9
v 4.7 10.9 -7.4
v 4.7 11 -6.3
v 4.7 11 -6.9
v 4.7 11.1 -5.5
v 4.7 11.1 -6.3
v 4.7 11.1 -7.4
v 4.7 11.1 -7.5
v 4.7 11.1 -7.7
v 4.7 11.1 -7.8
v 4.7 11.2 -5.5
v 4.7 11.2 -7.5
v 4.7 11.3 -5.2
v 4.7 11.3 -5.4
v 4.7 11.4 -5.2
v 4.7 11.4 -5.4
v 5 5 -7.3
v 5 5 -7.4
v 5 5 -7.7
v 5 5 -7.8
v 5 9.6 -7.3
v 5 9.6 -7.4
v 5 9.6 -7.7
v 5 9.6 -7.8
v 5 10.8 -7.4
v 5 10.8 -7.7
v 5 10.8 -7.8
v 5 10.9 -6.9
v 5 10.9 -7.4
v 5 11 -6.3
v 5 11 -6.9
v 5 11.1 -5.5
v 5 11.1 -6.3
v 5 11.1 -7.4
v 5 11.1 -7.5
v 5 11.1 -7.7
v 5 11.1 -7.8
v 5 11.2 -5.5
v 5 11.2 -7.5
v 5 11.3 -5.2
v 5 11.3 -5.4
v 5 11.4 -5.2
v 5 11.4 -5.4
v 5.1 5 -7.4
v 5.1 5 -7.7
v 5.1 9.6 -7.4
v 5.1 9.6 -7.7
v 5.1 10.8 -4.5
v 5.1 10.8 -5.2
v 5.1 10.8 -7.4
v 5.1 10.8 -7.7
v 5.1 11 -4.5
v 5.1 11 -5.2
v 5.1 11.1 -7.4
v 5.1 11.1 -7.7
v 5.2 11 -4.4
v 5.2 11 -5.4
v 5.2 11.1 -5.4
v 5.2 11.1 -5.5
v 5.2 11.2 -5.4
v 5.2 11.2 -5.5
v 5.2 11.3 -4.4
v 5.2 11.3 -5.4
v 4.5 11 -4.4
v 4.5 11.3 -4.4
v 5.2 11 -4.4
v 5.2 11.3 -4.4
v 4.6 10.8 -4.5
v 4.6 11 -4.5
v 5.1 10.8 -4.5
v 5.1 11 -4.5
v 4.7 11.3 -5.2
v 4.7 11.4 -5.2
v 5 11.3 -5.2
v 5 11.4 -5.2
v 4.7 11 -6.3
v 4.7 11.1 -6.3
v 5 11 -6.3
v 5 11.1 -6.3
v 4.7 10.9 -6.9
v 4.7 11 -6.9
v 5 10.9 -6.9
v 5 11 -6.9
v 4.7 5 -7.3
v 4.7 9.6 -7.3
v 5 5 -7.3
v 5 9.6 -7.3
v 4.6 5 -7.4
v 4.6 9.6 -7.4
v 4.6 10.8 -7.4
v 4.6 11.1 -7.4
v 4.7 5 -7.4
v 4.7 9.6 -7.4
v 4.7 10.8 -7.4
v 4.7 10.9 -7.4
v 4.7 11.1 -7.4
v 5 5 -7.4
v 5 9.6 -7.4
v 5 10.8 -7.4
v 5 10.9 -7.4
v 5 11.1 -7.4
v 5.1 5 -7.4
v 5.1 9.6 -7.4
v 5.1 10.8 -7.4
v 5.1 11.1 -7.4
v 4.6 10.8 -5.2
v 4.6 11 -5.2
v 5.1 10.8 -5.2
v 5.1 11 -5.2
v 4.5 11 -5.4
v 4.5 11.1 -5.4
v 4.5 11.2 -5.4
v 4.5 11.3 -5.4
v 4.7 11.3 -5.4
v 4.7 11.4 -5.4
v 5 11.3 -5.4
v 5 11.4 -5.4
v 5.2 11 -5.4
v 5.2 11.1 -5.4
v 5.2 11.2 -5.4
v 5.2 11.3 -5.4
v 4.5 11.1 -5.5
v 4.5 11.2 -5.5
v 4.7 11.1 -5.5
v 4.7 11.2 -5.5
v 5 11.1 -5.5
v 5 11.2 -5.5
v 5.2 11.1 -5.5
v 5.2 11.2 -5.5
v 4.7 11.1 -7.5
v 4.7 11.2 -7.5
v 5 11.1 -7.5
v 5 11.2 -7.5
v 4.6 5 -7.7
v 4.6 9.6 -7.7
v 4.6 10.8 -7.7
v 4.6 11.1 -7.7
v 4.7 5 -7.7
v 4.7 9.6 -7.7
v 4.7 10.8 -7.7
v 4.7 11.1 -7.7
v 5 5 -7.7
v 5 9.6 -7.7
v 5 10.8 -7.7
v 5 11.1 -7.7
v 5.1 5 -7.7
v 5.1 9.6 -7.7
v 5.1 10.8 -7.7
v 5.1 11.1 -7.7
v 4.7 5 -7.8
v 4.7 9.6 -7.8
v 4.7 10.8 -7.8
v 4.7 11.1 -7.8
v 5 5 -7.8
v 5 9.6 -7.8
v 5 10.8 -7.8
v 5 11.1 -7.8
v 4.7 5 -7.3
v 5 5 -7.3
v 4.6 5 -7.4
v 4.7 5 -7.4
v 5 5 -7.4
v 5.1 5 -7.4
v 4.6 5 -7.7
v 4.7 5 -7.7
v 5 5 -7.7
v 5.1 5 -7.7
v 4.7 5 -7.8
v 5 5 -7.8
v 4.6 10.8 -4.5
v 5.1 10.8 -4.5
v 4.6 10.8 -5.2
v 5.1 10.8 -5.2
v 4.6 10.8 -7.4
v 4.7 10.8 -7.4
v 5 10.8 -7.4
v 5.1 10.8 -7.4
v 4.6 10.8 -7.7
v 4.7 10.8 -7.7
v 5 10.8 -7.7
v 5.1 10.8 -7.7
v 4.7 10.8 -7.8
v 5 10.8 -7.8
v 4.7 10.9 -6.9
v 5 10.9 -6.9
v 4.7 10.9 -7.4
v 5 10.9 -7.4
v 4.5 11 -4.4
v 5.2 11 -4.4
v 4.6 11 -4.5
v 5.1 11 -4.5
v 4.6 11 -5.2
v 5.1 11 -5.2
v 4.5 11 -5.4
v 5.2 11 -5.4
v 4.7 11 -6.3
v 5 11 -6.3
v 4.7 11 -6.9
v 5 11 -6.9
v 4.5 11.1 -5.4
v 5.2 11.1 -5.4
v 4.5 11.1 -5.5
v 4.7 11.1 -5.5
v 5 11.1 -5.5
v 5.2 11.1 -5.5
v 4.7 11.1 -6.3
v 5 11.1 -6.3
v 4.7 9.6 -7.3
v 5 9.6 -7.3
v 4.6 9.6 -7.4
v 4.7 9.6 -7.4
v 5 9.6 -7.4
v 5.1 9.6 -7.4
v 4.6 9.6 -7.7
v 4.7 9.6 -7.7
v 5 9.6 -7.7
v 5.1 9.6 -7.7
v 4.7 9.6 -7.8
v 5 9.6 -7.8
v 4.6 11.1 -7.4
v 4.7 11.1 -7.4
v 5 11.1 -7.4
v 5.1 11.1 -7.4
v 4.7 11.1 -7.5
v 5 11.1 -7.5
v 4.6 11.1 -7.7
v 4.7 11.1 -7.7
v 5 11.1 -7.7
v 5.1 11.1 -7.7
v 4.7 11.1 -7.8
v 5 11.1 -7.8
v 4.5 11.2 -5.4
v 5.2 11.2 -5.4
v 4.5 11.2 -5.5
v 4.7 11.2 -5.5
v 5 11.2 -5.5
v 5.2 11.2 -5.5
v 4.7 11.2 -7.5
v 5 11.2 -7.5
v 4.5 11.3 -4.4
v 5.2 11.3 -4.4
v 4.7 11.3 -5.2
v 5 11.3 -5.2
v 4.5 11.3 -5.4
v 4.7 11.3 -5.4
v 5 11.3 -5.4
v 5.2 11.3 -5.4
v 4.7 11.4 -5.2
v 5 11.4 -5.2
v 4.7 11.4 -5.4
v 5 11.4 -5.4

# faces
f 3/1/1 2/1/1 1/1/1
f 5/1/1 3/1/1 1/1/1
f 5/1/1 4/1/1 3/1/1
f 6/1/1 4/1/1 5/1/1
f 7/1/1 5/1/1 1/1/1
f 8/1/1 5/1/1 7/1/1
f 11/1/1 10/1/1 9/1/1
f 12/1/1 10/1/1 11/1/1
f 17/2/1 14/2/1 13/2/1
f 18/2/1 14/2/1 17/2/1
f 19/1/1 16/1/1 15/1/1
f 20/1/1 16/1/1 19/1/1
f 25/1/1 22/1/1 21/1/1
f 26/1/1 22/1/1 25/1/1
f 27/1/1 24/1/1 23/1/1
f 28/1/1 24/1/1 27/1/1
f 29/1/1 27/1/1 26/1/1
f 30/1/1 27/1/1 29/1/1
f 35/1/1 33/1/1 32/1/1
f 37/1/1 35/1/1 34/1/1
f 38/1/1 33/1/1 35/1/1
f 38/1/1 35/1/1 37/1/1
f 40/1/1 31/1/1 30/1/1
f 41/1/1 31/1/1 40/1/1
f 42/1/1 39/1/1 38/1/1
f 42/1/1 37/1/1 36/1/1
f 42/1/1 38/1/1 37/1/1
f 43/1/1 39/1/1 42/1/1
f 46/1/1 45/1/1 44/1/1
f 47/1/1 45/1/1 46/1/1
f 48/1/2 49/1/2 52/1/2
f 52/1/2 49/1/2 53/1/2
f 50/1/2 51/1/2 54/1/2
f 54/1/2 51/1/2 55/1/2
f 53/1/2 54/1/2 56/1/2
f 56/1/2 54/1/2 57/1/2
f 59/1/2 60/1/2 62/1/2
f 61/1/2 62/1/2 64/1/2
f 62/1/2 60/1/2 65/1/2
f 64/1/2 62/1/2 65/1/2
f 57/1/2 58/1/2 67/1/2
f 67/1/2 58/1/2 68/1/2
f 65/1/2 66/1/2 69/1/2
f 63/1/2 64/1/2 69/1/2
f 64/1/2 65/1/2 69/1/2
f 69/1/2 66/1/2 70/1/2
f 71/1/2 72/1/2 73/1/2
f 73/1/2 72/1/2 74/1/2
f 75/1/2 76/1/2 77/1/2
f 77/1/2 76/1/2 78/1/2
f 79/2/2 80/2/2 83/2/2
f 83/2/2 80/2/2 84/2/2
f 81/1/2 82/1/2 85/1/2
f 85/1/2 82/1/2 86/1/2
f 87/1/2 88/1/2 89/1/2
f 87/1/2 89/1/2 91/1/2
f 89/1/2 90/1/2 91/1/2
f 91/1/2 90/1/2 92/1/2
f 87/1/2 91/1/2 93/1/2
f 93/1/2 91/1/2 94/1/2
f 97/1/3 96/1/3 95/1/3
f 98/1/3 96/1/3 97/1/3
f 101/2/3 100/2/3 99/2/3
f 102/2/3 100/2/3 101/2/3
f 105/1/3 104/1/3 103/1/3
f 106/1/3 104/1/3 105/1/3
f 109/1/3 108/1/3 107/1/3
f 110/1/3 108/1/3 109/1/3
f 113/1/3 112/1/3 111/1/3
f 114/1/3 112/1/3 113/1/3
f 117/1/3 116/1/3 115/1/3
f 118/1/3 116/1/3 117/1/3
f 123/1/3 120/1/3 119/1/3
f 124/1/3 120/1/3 123/1/3
f 125/1/3 122/1/3 121/1/3
f 126/1/3 122/1/3 125/1/3
f 127/1/3 122/1/3 126/1/3
f 129/1/3 125/1/3 124/1/3
f 129/1/3 126/1/3 125/1/3
f 130/1/3 126/1/3 129/1/3
f 131/1/3 126/1/3 130/1/3
f 133/1/3 129/1/3 128/1/3
f 134/1/3 129/1/3 133/1/3
f 135/1/3 132/1/3 131/1/3
f 135/1/3 131/1/3 130/1/3
f 136/1/3 132/1/3 135/1/3
f 137/2/4 138/2/4 139/2/4
f 139/2/4 138/2/4 140/2/4
f 143/1/4 144/1/4 145/1/4
f 143/1/4 145/1/4 147/1/4
f 145/1/4 146/1/4 147/1/4
f 147/1/4 146/1/4 148/1/4
f 141/1/4 142/1/4 149/1/4
f 149/1/4 142/1/4 150/1/4
f 143/1/4 147/1/4 151/1/4
f 151/1/4 147/1/4 152/1/4
f 153/1/4 154/1/4 155/1/4
f 155/1/4 154/1/4 156/1/4
f 157/1/4 158/1/4 159/1/4
f 159/1/4 158/1/4 160/1/4
f 161/1/4 162/1/4 163/1/4
f 163/1/4 162/1/4 164/1/4
f 165/1/4 166/1/4 169/1/4
f 169/1/4 166/1/4 170/1/4
f 167/1/4 168/1/4 171/1/4
f 171/1/4 168/1/4 172/1/4
f 170/1/4 171/1/4 174/1/4
f 174/1/4 171/1/4 175/1/4
f 173/1/4 174/1/4 177/1/4
f 177/1/4 174/1/4 178/1/4
f 175/1/4 176/1/4 179/1/4
f 179/1/4 176/1/4 180/1/4
f 181/1/4 182/1/4 185/1/4
f 185/1/4 182/1/4 186/1/4
f 183/1/4 184/1/4 187/1/4
f 187/1/4 184/1/4 188/1/4
f 192/1/5 190/1/5 189/1/5
f 193/1/5 190/1/5 192/1/5
f 195/1/5 192/1/5 191/1/5
f 195/1/5 194/1/5 193/1/5
f 195/1/5 193/1/5 192/1/5
f 196/1/5 194/1/5 195/1/5
f 197/1/5 194/1/5 196/1/5
f 198/1/5 194/1/5 197/1/5
f 199/1/5 197/1/5 196/1/5
f 200/1/5 197/1/5 199/1/5
f 203/2/5 202/2/5 201/2/5
f 204/2/5 202/2/5 203/2/5
f 209/1/5 206/1/5 205/1/5
f 210/1/5 206/1/5 209/1/5
f 211/1/5 208/1/5 207/1/5
f 212/1/5 208/1/5 211/1/5
f 213/1/5 211/1/5 210/1/5
f 214/1/5 211/1/5 213/1/5
f 217/1/5 216/1/5 215/1/5
f 218/1/5 216/1/5 217/1/5
f 221/1/5 220/1/5 219/1/5
f 222/1/5 220/1/5 221/1/5
f 223/1/5 221/1/5 219/1/5
f 224/1/5 220/1/5 222/1/5
f 225/1/5 223/1/5 219/1/5
f 225/1/5 224/1/5 223/1/5
f 226/1/5 220/1/5 224/1/5
f 226/1/5 224/1/5 225/1/5
f 229/1/5 228/1/5 227/1/5
f 230/1/5 228/1/5 229/1/5
f 233/1/5 232/1/5 231/1/5
f 234/1/5 232/1/5 233/1/5
f 235/1/5 232/1/5 234/1/5
f 236/1/5 232/1/5 235/1/5
f 237/1/5 235/1/5 234/1/5
f 238/1/5 235/1/5 237/1/5
f 239/1/6 240/1/6 242/1/6
f 242/1/6 240/1/6 243/1/6
f 241/1/6 242/1/6 245/1/6
f 245/1/6 242/1/6 246/1/6
f 243/1/6 244/1/6 247/1/6
f 247/1/6 244/1/6 248/1/6
f 246/1/6 247/1/6 249/1/6
f 249/1/6 247/1/6 250/1/6
f 251/1/6 252/1/6 255/1/6
f 253/1/6 254/1/6 256/1/6
f 251/1/6 255/1/6 257/1/6
f 255/1/6 256/1/6 257/1/6
f 257/1/6 256/1/6 258/1/6
f 256/1/6 254/1/6 259/1/6
f 258/1/6 256/1/6 259/1/6
f 259/1/6 254/1/6 260/1/6
f 258/1/6 259/1/6 261/1/6
f 261/1/6 259/1/6 262/1/6
f 263/1/6 264/1/6 265/1/6
f 265/1/6 264/1/6 266/1/6
f 266/1/6 264/1/6 267/1/6
f 267/1/6 264/1/6 268/1/6
f 266/1/6 267/1/6 269/1/6
f 269/1/6 267/1/6 270/1/6
f 271/1/6 272/1/6 273/1/6
f 273/1/6 272/1/6 274/1/6
f 271/1/6 273/1/6 275/1/6
f 275/1/6 273/1/6 276/1/6
f 274/1/6 272/1/6 277/1/6
f 277/1/6 272/1/6 278/1/6
f 279/1/6 280/1/6 281/1/6
f 281/1/6 280/1/6 282/1/6
