# MagicaVoxel @ Ephtracy

# group
o 

# material
mtllib Parking.mtl
usemtl palette

# normals
vn -1 0 0
vn 1 0 0
vn 0 0 1
vn 0 0 -1
vn 0 -1 0
vn 0 1 0

# texcoords
vt 0.845703 0.5
vt 0.853516 0.5
vt 0.939453 0.5
vt 0.943359 0.5
vt 0.994141 0.5

# verts
v 0.3 5 -1.4
v 0.3 5 -6.9
v 0.3 5 -9.4
v 0.3 5.1 -1.4
v 0.3 5.1 -6.9
v 0.3 5.1 -9.4
v 0.5 5.1 -1.7
v 0.5 5.1 -2.1
v 0.5 5.2 -1.7
v 0.5 5.2 -2.1
v 0.6 5.2 -1.8
v 0.6 5.2 -2
v 0.6 6.2 -1.8
v 0.6 6.2 -2
v 2.8 7.4 -1.8
v 2.8 7.4 -2
v 2.8 7.9 -1.8
v 2.8 7.9 -2
v 2.9 5.1 -1.7
v 2.9 5.1 -2.1
v 2.9 5.7 -1.7
v 2.9 5.7 -2.1
v 2.9 7.3 -1.8
v 2.9 7.3 -2
v 2.9 7.4 -1.8
v 2.9 7.4 -2
v 2.9 7.9 -1.8
v 2.9 7.9 -2
v 2.9 8 -1.8
v 2.9 8 -2
v 3 5.7 -1.8
v 3 5.7 -2
v 3 5.8 -1.8
v 3 5.8 -2
v 3 7.2 -1.8
v 3 7.2 -2
v 3 7.3 -1.8
v 3 7.3 -2
v 3.1 5.8 -1.8
v 3.1 5.8 -2
v 3.1 7.2 -1.8
v 3.1 7.2 -2
v 0.8 5.2 -1.8
v 0.8 5.2 -2
v 0.8 5.9 -1.8
v 0.8 5.9 -2
v 0.8 6.1 -1.8
v 0.8 6.1 -2
v 0.8 6.2 -1.8
v 0.8 6.2 -2
v 0.9 5.1 -1.7
v 0.9 5.1 -2.1
v 0.9 5.2 -1.7
v 0.9 5.2 -2.1
v 2.8 5.9 -1.8
v 2.8 5.9 -2
v 2.8 6.1 -1.8
v 2.8 6.1 -2
v 3.2 5.8 -1.8
v 3.2 5.8 -2
v 3.2 7.2 -1.8
v 3.2 7.2 -2
v 3.3 5.7 -1.8
v 3.3 5.7 -2
v 3.3 5.8 -1.8
v 3.3 5.8 -2
v 3.3 7.2 -1.8
v 3.3 7.2 -2
v 3.3 7.3 -1.8
v 3.3 7.3 -2
v 3.4 5.1 -1.7
v 3.4 5.1 -2.1
v 3.4 5.7 -1.7
v 3.4 5.7 -2.1
v 3.4 7.3 -1.8
v 3.4 7.3 -2
v 3.4 7.4 -1.8
v 3.4 7.4 -2
v 3.4 7.9 -1.8
v 3.4 7.9 -2
v 3.4 8 -1.8
v 3.4 8 -2
v 3.5 7.4 -1.8
v 3.5 7.4 -2
v 3.5 7.9 -1.8
v 3.5 7.9 -2
v 9.8 5 -1.4
v 9.8 5 -9.4
v 9.8 5.1 -1.4
v 9.8 5.1 -9.4
v 0.3 5 -1.4
v 0.3 5.1 -1.4
v 4.5 5 -1.4
v 4.5 5.1 -1.4
v 4.6 5 -1.4
v 4.6 5.1 -1.4
v 6.5 5 -1.4
v 6.5 5.1 -1.4
v 6.6 5 -1.4
v 6.6 5.1 -1.4
v 8.5 5 -1.4
v 8.5 5.1 -1.4
v 8.6 5 -1.4
v 8.6 5.1 -1.4
v 8.7 5 -1.4
v 8.7 5.1 -1.4
v 8.8 5 -1.4
v 8.8 5.1 -1.4
v 9.8 5 -1.4
v 9.8 5.1 -1.4
v 0.5 5.1 -1.7
v 0.5 5.2 -1.7
v 0.9 5.1 -1.7
v 0.9 5.2 -1.7
v 2.9 5.1 -1.7
v 2.9 5.7 -1.7
v 3.4 5.1 -1.7
v 3.4 5.7 -1.7
v 0.6 5.2 -1.8
v 0.6 6.2 -1.8
v 0.8 5.2 -1.8
v 0.8 5.9 -1.8
v 0.8 6.1 -1.8
v 0.8 6.2 -1.8
v 1 5.9 -1.8
v 1 6.1 -1.8
v 1.1 5.9 -1.8
v 1.1 6.1 -1.8
v 1.3 5.9 -1.8
v 1.3 6.1 -1.8
v 1.4 5.9 -1.8
v 1.4 6.1 -1.8
v 1.6 5.9 -1.8
v 1.6 6.1 -1.8
v 1.7 5.9 -1.8
v 1.7 6.1 -1.8
v 1.9 5.9 -1.8
v 1.9 6.1 -1.8
v 2 5.9 -1.8
v 2 6.1 -1.8
v 2.2 5.9 -1.8
v 2.2 6.1 -1.8
v 2.3 5.9 -1.8
v 2.3 6.1 -1.8
v 2.5 5.9 -1.8
v 2.5 6.1 -1.8
v 2.6 5.9 -1.8
v 2.6 6.1 -1.8
v 2.8 5.9 -1.8
v 2.8 6.1 -1.8
v 2.8 7.4 -1.8
v 2.8 7.9 -1.8
v 2.9 7.3 -1.8
v 2.9 7.4 -1.8
v 2.9 7.9 -1.8
v 2.9 8 -1.8
v 3 5.7 -1.8
v 3 5.8 -1.8
v 3 7.2 -1.8
v 3 7.3 -1.8
v 3 7.9 -1.8
v 3.1 5.8 -1.8
v 3.1 7.2 -1.8
v 3.1 7.3 -1.8
v 3.1 7.5 -1.8
v 3.1 7.6 -1.8
v 3.1 7.8 -1.8
v 3.2 5.8 -1.8
v 3.2 7.2 -1.8
v 3.3 5.7 -1.8
v 3.3 5.8 -1.8
v 3.3 7.2 -1.8
v 3.3 7.3 -1.8
v 3.3 7.5 -1.8
v 3.3 7.6 -1.8
v 3.3 7.8 -1.8
v 3.3 7.9 -1.8
v 3.4 7.3 -1.8
v 3.4 7.4 -1.8
v 3.4 7.6 -1.8
v 3.4 7.8 -1.8
v 3.4 7.9 -1.8
v 3.4 8 -1.8
v 3.5 7.4 -1.8
v 3.5 7.9 -1.8
v 0.6 5.2 -2
v 0.6 6.2 -2
v 0.8 5.2 -2
v 0.8 5.9 -2
v 0.8 6.1 -2
v 0.8 6.2 -2
v 1 5.9 -2
v 1 6.1 -2
v 1.1 5.9 -2
v 1.1 6.1 -2
v 1.3 5.9 -2
v 1.3 6.1 -2
v 1.4 5.9 -2
v 1.4 6.1 -2
v 1.6 5.9 -2
v 1.6 6.1 -2
v 1.7 5.9 -2
v 1.7 6.1 -2
v 1.9 5.9 -2
v 1.9 6.1 -2
v 2 5.9 -2
v 2 6.1 -2
v 2.2 5.9 -2
v 2.2 6.1 -2
v 2.3 5.9 -2
v 2.3 6.1 -2
v 2.5 5.9 -2
v 2.5 6.1 -2
v 2.6 5.9 -2
v 2.6 6.1 -2
v 2.8 5.9 -2
v 2.8 6.1 -2
v 2.8 7.4 -2
v 2.8 7.9 -2
v 2.9 7.3 -2
v 2.9 7.4 -2
v 2.9 7.6 -2
v 2.9 7.8 -2
v 2.9 7.9 -2
v 2.9 8 -2
v 3 5.7 -2
v 3 5.8 -2
v 3 7.2 -2
v 3 7.3 -2
v 3 7.5 -2
v 3 7.6 -2
v 3 7.8 -2
v 3 7.9 -2
v 3.1 5.8 -2
v 3.1 7.2 -2
v 3.2 5.8 -2
v 3.2 7.2 -2
v 3.2 7.3 -2
v 3.2 7.5 -2
v 3.2 7.6 -2
v 3.2 7.8 -2
v 3.3 5.7 -2
v 3.3 5.8 -2
v 3.3 7.2 -2
v 3.3 7.3 -2
v 3.3 7.9 -2
v 3.4 7.3 -2
v 3.4 7.4 -2
v 3.4 7.9 -2
v 3.4 8 -2
v 3.5 7.4 -2
v 3.5 7.9 -2
v 0.5 5.1 -2.1
v 0.5 5.2 -2.1
v 0.9 5.1 -2.1
v 0.9 5.2 -2.1
v 2.9 5.1 -2.1
v 2.9 5.7 -2.1
v 3.4 5.1 -2.1
v 3.4 5.7 -2.1
v 0.3 5 -9.4
v 0.3 5.1 -9.4
v 0.4 5 -9.4
v 0.4 5.1 -9.4
v 0.5 5 -9.4
v 0.5 5.1 -9.4
v 0.6 5 -9.4
v 0.6 5.1 -9.4
v 2.5 5 -9.4
v 2.5 5.1 -9.4
v 2.6 5 -9.4
v 2.6 5.1 -9.4
v 4.5 5 -9.4
v 4.5 5.1 -9.4
v 4.6 5 -9.4
v 4.6 5.1 -9.4
v 6.5 5 -9.4
v 6.5 5.1 -9.4
v 6.6 5 -9.4
v 6.6 5.1 -9.4
v 8.5 5 -9.4
v 8.5 5.1 -9.4
v 8.6 5 -9.4
v 8.6 5.1 -9.4
v 8.7 5 -9.4
v 8.7 5.1 -9.4
v 8.8 5 -9.4
v 8.8 5.1 -9.4
v 9.8 5 -9.4
v 9.8 5.1 -9.4
v 0.3 5 -1.4
v 4.5 5 -1.4
v 4.6 5 -1.4
v 6.5 5 -1.4
v 6.6 5 -1.4
v 8.5 5 -1.4
v 8.6 5 -1.4
v 8.7 5 -1.4
v 8.8 5 -1.4
v 9.8 5 -1.4
v 4.5 5 -3.9
v 4.6 5 -3.9
v 6.5 5 -3.9
v 6.6 5 -3.9
v 8.5 5 -3.9
v 8.6 5 -3.9
v 8.7 5 -3.9
v 8.8 5 -3.9
v 8.6 5 -4
v 8.7 5 -4
v 0.4 5 -6.8
v 0.5 5 -6.8
v 8.6 5 -6.8
v 8.7 5 -6.8
v 0.3 5 -6.9
v 0.4 5 -6.9
v 0.5 5 -6.9
v 0.6 5 -6.9
v 2.5 5 -6.9
v 2.6 5 -6.9
v 4.5 5 -6.9
v 4.6 5 -6.9
v 6.5 5 -6.9
v 6.6 5 -6.9
v 8.5 5 -6.9
v 8.6 5 -6.9
v 8.7 5 -6.9
v 8.8 5 -6.9
v 0.3 5 -9.4
v 0.4 5 -9.4
v 0.5 5 -9.4
v 0.6 5 -9.4
v 2.5 5 -9.4
v 2.6 5 -9.4
v 4.5 5 -9.4
v 4.6 5 -9.4
v 6.5 5 -9.4
v 6.6 5 -9.4
v 8.5 5 -9.4
v 8.6 5 -9.4
v 8.7 5 -9.4
v 8.8 5 -9.4
v 9.8 5 -9.4
v 0.8 5.9 -1.8
v 1 5.9 -1.8
v 1.1 5.9 -1.8
v 1.3 5.9 -1.8
v 1.4 5.9 -1.8
v 1.6 5.9 -1.8
v 1.7 5.9 -1.8
v 1.9 5.9 -1.8
v 2 5.9 -1.8
v 2.2 5.9 -1.8
v 2.3 5.9 -1.8
v 2.5 5.9 -1.8
v 2.6 5.9 -1.8
v 2.8 5.9 -1.8
v 0.8 5.9 -2
v 1 5.9 -2
v 1.1 5.9 -2
v 1.3 5.9 -2
v 1.4 5.9 -2
v 1.6 5.9 -2
v 1.7 5.9 -2
v 1.9 5.9 -2
v 2 5.9 -2
v 2.2 5.9 -2
v 2.3 5.9 -2
v 2.5 5.9 -2
v 2.6 5.9 -2
v 2.8 5.9 -2
v 3 7.2 -1.8
v 3.1 7.2 -1.8
v 3.2 7.2 -1.8
v 3.3 7.2 -1.8
v 3 7.2 -2
v 3.1 7.2 -2
v 3.2 7.2 -2
v 3.3 7.2 -2
v 2.9 7.3 -1.8
v 3 7.3 -1.8
v 3.3 7.3 -1.8
v 3.4 7.3 -1.8
v 2.9 7.3 -2
v 3 7.3 -2
v 3.3 7.3 -2
v 3.4 7.3 -2
v 2.8 7.4 -1.8
v 2.9 7.4 -1.8
v 3.4 7.4 -1.8
v 3.5 7.4 -1.8
v 2.8 7.4 -2
v 2.9 7.4 -2
v 3.4 7.4 -2
v 3.5 7.4 -2
v 0.3 5.1 -1.4
v 4.5 5.1 -1.4
v 4.6 5.1 -1.4
v 6.5 5.1 -1.4
v 6.6 5.1 -1.4
v 8.5 5.1 -1.4
v 8.6 5.1 -1.4
v 8.7 5.1 -1.4
v 8.8 5.1 -1.4
v 9.8 5.1 -1.4
v 0.5 5.1 -1.7
v 0.9 5.1 -1.7
v 2.9 5.1 -1.7
v 3.4 5.1 -1.7
v 0.5 5.1 -2.1
v 0.9 5.1 -2.1
v 2.9 5.1 -2.1
v 3.4 5.1 -2.1
v 4.5 5.1 -3.9
v 4.6 5.1 -3.9
v 6.5 5.1 -3.9
v 6.6 5.1 -3.9
v 8.5 5.1 -3.9
v 8.6 5.1 -3.9
v 8.7 5.1 -3.9
v 8.8 5.1 -3.9
v 8.6 5.1 -4
v 8.7 5.1 -4
v 0.4 5.1 -6.8
v 0.5 5.1 -6.8
v 8.6 5.1 -6.8
v 8.7 5.1 -6.8
v 0.3 5.1 -6.9
v 0.4 5.1 -6.9
v 0.5 5.1 -6.9
v 0.6 5.1 -6.9
v 2.5 5.1 -6.9
v 2.6 5.1 -6.9
v 4.5 5.1 -6.9
v 4.6 5.1 -6.9
v 6.5 5.1 -6.9
v 6.6 5.1 -6.9
v 8.5 5.1 -6.9
v 8.6 5.1 -6.9
v 8.7 5.1 -6.9
v 8.8 5.1 -6.9
v 0.3 5.1 -9.4
v 0.4 5.1 -9.4
v 0.5 5.1 -9.4
v 0.6 5.1 -9.4
v 2.5 5.1 -9.4
v 2.6 5.1 -9.4
v 4.5 5.1 -9.4
v 4.6 5.1 -9.4
v 6.5 5.1 -9.4
v 6.6 5.1 -9.4
v 8.5 5.1 -9.4
v 8.6 5.1 -9.4
v 8.7 5.1 -9.4
v 8.8 5.1 -9.4
v 9.8 5.1 -9.4
v 0.5 5.2 -1.7
v 0.9 5.2 -1.7
v 0.6 5.2 -1.8
v 0.8 5.2 -1.8
v 0.6 5.2 -2
v 0.8 5.2 -2
v 0.5 5.2 -2.1
v 0.9 5.2 -2.1
v 2.9 5.7 -1.7
v 3.4 5.7 -1.7
v 3 5.7 -1.8
v 3.3 5.7 -1.8
v 3 5.7 -2
v 3.3 5.7 -2
v 2.9 5.7 -2.1
v 3.4 5.7 -2.1
v 3 5.8 -1.8
v 3.1 5.8 -1.8
v 3.2 5.8 -1.8
v 3.3 5.8 -1.8
v 3 5.8 -2
v 3.1 5.8 -2
v 3.2 5.8 -2
v 3.3 5.8 -2
v 0.8 6.1 -1.8
v 1 6.1 -1.8
v 1.1 6.1 -1.8
v 1.3 6.1 -1.8
v 1.4 6.1 -1.8
v 1.6 6.1 -1.8
v 1.7 6.1 -1.8
v 1.9 6.1 -1.8
v 2 6.1 -1.8
v 2.2 6.1 -1.8
v 2.3 6.1 -1.8
v 2.5 6.1 -1.8
v 2.6 6.1 -1.8
v 2.8 6.1 -1.8
v 0.8 6.1 -2
v 1 6.1 -2
v 1.1 6.1 -2
v 1.3 6.1 -2
v 1.4 6.1 -2
v 1.6 6.1 -2
v 1.7 6.1 -2
v 1.9 6.1 -2
v 2 6.1 -2
v 2.2 6.1 -2
v 2.3 6.1 -2
v 2.5 6.1 -2
v 2.6 6.1 -2
v 2.8 6.1 -2
v 0.6 6.2 -1.8
v 0.8 6.2 -1.8
v 0.6 6.2 -2
v 0.8 6.2 -2
v 2.8 7.9 -1.8
v 2.9 7.9 -1.8
v 3.4 7.9 -1.8
v 3.5 7.9 -1.8
v 2.8 7.9 -2
v 2.9 7.9 -2
v 3.4 7.9 -2
v 3.5 7.9 -2
v 2.9 8 -1.8
v 3.4 8 -1.8
v 2.9 8 -2
v 3.4 8 -2

# faces
f 4/3/1 2/3/1 1/3/1
f 5/4/1 3/4/1 2/4/1
f 5/3/1 2/3/1 4/3/1
f 6/4/1 3/4/1 5/4/1
f 9/5/1 8/5/1 7/5/1
f 10/5/1 8/5/1 9/5/1
f 13/5/1 12/5/1 11/5/1
f 14/5/1 12/5/1 13/5/1
f 17/2/1 16/2/1 15/2/1
f 18/2/1 16/2/1 17/2/1
f 21/3/1 20/3/1 19/3/1
f 22/3/1 20/3/1 21/3/1
f 25/2/1 24/2/1 23/2/1
f 26/2/1 24/2/1 25/2/1
f 29/2/1 28/2/1 27/2/1
f 30/2/1 28/2/1 29/2/1
f 33/3/1 32/3/1 31/3/1
f 34/3/1 32/3/1 33/3/1
f 37/3/1 36/3/1 35/3/1
f 38/3/1 36/3/1 37/3/1
f 41/3/1 40/3/1 39/3/1
f 42/3/1 40/3/1 41/3/1
f 43/5/2 44/5/2 45/5/2
f 45/5/2 44/5/2 46/5/2
f 47/5/2 48/5/2 49/5/2
f 49/5/2 48/5/2 50/5/2
f 51/5/2 52/5/2 53/5/2
f 53/5/2 52/5/2 54/5/2
f 55/4/2 56/4/2 57/4/2
f 57/4/2 56/4/2 58/4/2
f 59/3/2 60/3/2 61/3/2
f 61/3/2 60/3/2 62/3/2
f 63/3/2 64/3/2 65/3/2
f 65/3/2 64/3/2 66/3/2
f 67/3/2 68/3/2 69/3/2
f 69/3/2 68/3/2 70/3/2
f 71/3/2 72/3/2 73/3/2
f 73/3/2 72/3/2 74/3/2
f 75/2/2 76/2/2 77/2/2
f 77/2/2 76/2/2 78/2/2
f 79/2/2 80/2/2 81/2/2
f 81/2/2 80/2/2 82/2/2
f 83/2/2 84/2/2 85/2/2
f 85/2/2 84/2/2 86/2/2
f 87/3/2 88/3/2 89/3/2
f 89/3/2 88/3/2 90/3/2
f 93/3/3 92/3/3 91/3/3
f 94/3/3 92/3/3 93/3/3
f 95/4/3 94/4/3 93/4/3
f 96/4/3 94/4/3 95/4/3
f 97/3/3 96/3/3 95/3/3
f 98/3/3 96/3/3 97/3/3
f 99/4/3 98/4/3 97/4/3
f 100/4/3 98/4/3 99/4/3
f 101/3/3 100/3/3 99/3/3
f 102/3/3 100/3/3 101/3/3
f 103/4/3 102/4/3 101/4/3
f 104/4/3 102/4/3 103/4/3
f 105/3/3 104/3/3 103/3/3
f 106/3/3 104/3/3 105/3/3
f 107/4/3 106/4/3 105/4/3
f 108/4/3 106/4/3 107/4/3
f 109/3/3 108/3/3 107/3/3
f 110/3/3 108/3/3 109/3/3
f 113/5/3 112/5/3 111/5/3
f 114/5/3 112/5/3 113/5/3
f 117/3/3 116/3/3 115/3/3
f 118/3/3 116/3/3 117/3/3
f 121/5/3 120/5/3 119/5/3
f 122/5/3 120/5/3 121/5/3
f 123/5/3 120/5/3 122/5/3
f 124/5/3 120/5/3 123/5/3
f 125/4/3 123/4/3 122/4/3
f 126/4/3 123/4/3 125/4/3
f 127/1/3 126/1/3 125/1/3
f 128/1/3 126/1/3 127/1/3
f 129/4/3 128/4/3 127/4/3
f 130/4/3 128/4/3 129/4/3
f 131/1/3 130/1/3 129/1/3
f 132/1/3 130/1/3 131/1/3
f 133/4/3 132/4/3 131/4/3
f 134/4/3 132/4/3 133/4/3
f 135/1/3 134/1/3 133/1/3
f 136/1/3 134/1/3 135/1/3
f 137/4/3 136/4/3 135/4/3
f 138/4/3 136/4/3 137/4/3
f 139/1/3 138/1/3 137/1/3
f 140/1/3 138/1/3 139/1/3
f 141/4/3 140/4/3 139/4/3
f 142/4/3 140/4/3 141/4/3
f 143/1/3 142/1/3 141/1/3
f 144/1/3 142/1/3 143/1/3
f 145/4/3 144/4/3 143/4/3
f 146/4/3 144/4/3 145/4/3
f 147/1/3 146/1/3 145/1/3
f 148/1/3 146/1/3 147/1/3
f 149/4/3 148/4/3 147/4/3
f 150/4/3 148/4/3 149/4/3
f 154/2/3 152/2/3 151/2/3
f 155/2/3 152/2/3 154/2/3
f 160/2/3 154/2/3 153/2/3
f 160/2/3 155/2/3 154/2/3
f 160/2/3 156/2/3 155/2/3
f 161/2/3 156/2/3 160/2/3
f 162/3/3 158/3/3 157/3/3
f 163/3/3 160/3/3 159/3/3
f 164/4/3 161/4/3 160/4/3
f 164/3/3 160/3/3 163/3/3
f 165/4/3 161/4/3 164/4/3
f 166/4/3 161/4/3 165/4/3
f 167/4/3 161/4/3 166/4/3
f 168/3/3 162/3/3 157/3/3
f 168/3/3 163/3/3 162/3/3
f 168/3/3 164/3/3 163/3/3
f 169/3/3 164/3/3 168/3/3
f 170/3/3 168/3/3 157/3/3
f 171/3/3 168/3/3 170/3/3
f 172/3/3 164/3/3 169/3/3
f 173/2/3 165/2/3 164/2/3
f 173/3/3 164/3/3 172/3/3
f 174/4/3 166/4/3 165/4/3
f 174/2/3 165/2/3 173/2/3
f 175/2/3 167/2/3 166/2/3
f 175/4/3 166/4/3 174/4/3
f 176/4/3 161/4/3 167/4/3
f 176/2/3 167/2/3 175/2/3
f 177/2/3 156/2/3 161/2/3
f 177/4/3 161/4/3 176/4/3
f 178/2/3 175/2/3 174/2/3
f 178/2/3 174/2/3 173/2/3
f 179/2/3 175/2/3 178/2/3
f 180/4/3 176/4/3 175/4/3
f 180/2/3 175/2/3 179/2/3
f 181/2/3 177/2/3 176/2/3
f 181/4/3 176/4/3 180/4/3
f 182/2/3 156/2/3 177/2/3
f 182/2/3 177/2/3 181/2/3
f 183/2/3 156/2/3 182/2/3
f 184/2/3 181/2/3 180/2/3
f 184/2/3 182/2/3 181/2/3
f 184/2/3 180/2/3 179/2/3
f 185/2/3 182/2/3 184/2/3
f 186/5/4 187/5/4 188/5/4
f 188/5/4 187/5/4 189/5/4
f 189/5/4 187/5/4 190/5/4
f 190/5/4 187/5/4 191/5/4
f 189/4/4 190/4/4 192/4/4
f 192/4/4 190/4/4 193/4/4
f 192/1/4 193/1/4 194/1/4
f 194/1/4 193/1/4 195/1/4
f 194/4/4 195/4/4 196/4/4
f 196/4/4 195/4/4 197/4/4
f 196/1/4 197/1/4 198/1/4
f 198/1/4 197/1/4 199/1/4
f 198/4/4 199/4/4 200/4/4
f 200/4/4 199/4/4 201/4/4
f 200/1/4 201/1/4 202/1/4
f 202/1/4 201/1/4 203/1/4
f 202/4/4 203/4/4 204/4/4
f 204/4/4 203/4/4 205/4/4
f 204/1/4 205/1/4 206/1/4
f 206/1/4 205/1/4 207/1/4
f 206/4/4 207/4/4 208/4/4
f 208/4/4 207/4/4 209/4/4
f 208/1/4 209/1/4 210/1/4
f 210/1/4 209/1/4 211/1/4
f 210/4/4 211/4/4 212/4/4
f 212/4/4 211/4/4 213/4/4
f 212/1/4 213/1/4 214/1/4
f 214/1/4 213/1/4 215/1/4
f 214/4/4 215/4/4 216/4/4
f 216/4/4 215/4/4 217/4/4
f 218/2/4 219/2/4 221/2/4
f 221/2/4 219/2/4 222/2/4
f 222/2/4 219/2/4 223/2/4
f 223/2/4 219/2/4 224/2/4
f 220/2/4 221/2/4 229/2/4
f 221/2/4 222/2/4 229/2/4
f 229/2/4 222/2/4 230/2/4
f 222/4/4 223/4/4 231/4/4
f 230/2/4 222/2/4 231/2/4
f 224/2/4 225/2/4 232/2/4
f 231/4/4 223/4/4 232/4/4
f 223/2/4 224/2/4 232/2/4
f 232/2/4 225/2/4 233/2/4
f 226/3/4 227/3/4 234/3/4
f 228/3/4 229/3/4 235/3/4
f 226/3/4 234/3/4 236/3/4
f 234/3/4 235/3/4 236/3/4
f 235/3/4 229/3/4 237/3/4
f 236/3/4 235/3/4 237/3/4
f 229/2/4 230/2/4 238/2/4
f 237/3/4 229/3/4 238/3/4
f 230/4/4 231/4/4 239/4/4
f 238/2/4 230/2/4 239/2/4
f 231/2/4 232/2/4 240/2/4
f 239/4/4 231/4/4 240/4/4
f 232/4/4 233/4/4 241/4/4
f 240/2/4 232/2/4 241/2/4
f 226/3/4 236/3/4 242/3/4
f 242/3/4 236/3/4 243/3/4
f 237/3/4 238/3/4 244/3/4
f 240/4/4 241/4/4 245/4/4
f 244/3/4 238/3/4 245/3/4
f 238/4/4 239/4/4 245/4/4
f 239/4/4 240/4/4 245/4/4
f 233/2/4 225/2/4 246/2/4
f 245/4/4 241/4/4 246/4/4
f 241/4/4 233/4/4 246/4/4
f 245/2/4 246/2/4 247/2/4
f 247/2/4 246/2/4 248/2/4
f 246/2/4 225/2/4 249/2/4
f 248/2/4 246/2/4 249/2/4
f 249/2/4 225/2/4 250/2/4
f 248/2/4 249/2/4 251/2/4
f 251/2/4 249/2/4 252/2/4
f 253/5/4 254/5/4 255/5/4
f 255/5/4 254/5/4 256/5/4
f 257/3/4 258/3/4 259/3/4
f 259/3/4 258/3/4 260/3/4
f 261/4/4 262/4/4 263/4/4
f 263/4/4 262/4/4 264/4/4
f 263/3/4 264/3/4 265/3/4
f 265/3/4 264/3/4 266/3/4
f 265/4/4 266/4/4 267/4/4
f 267/4/4 266/4/4 268/4/4
f 267/3/4 268/3/4 269/3/4
f 269/3/4 268/3/4 270/3/4
f 269/4/4 270/4/4 271/4/4
f 271/4/4 270/4/4 272/4/4
f 271/3/4 272/3/4 273/3/4
f 273/3/4 272/3/4 274/3/4
f 273/4/4 274/4/4 275/4/4
f 275/4/4 274/4/4 276/4/4
f 275/3/4 276/3/4 277/3/4
f 277/3/4 276/3/4 278/3/4
f 277/4/4 278/4/4 279/4/4
f 279/4/4 278/4/4 280/4/4
f 279/3/4 280/3/4 281/3/4
f 281/3/4 280/3/4 282/3/4
f 281/4/4 282/4/4 283/4/4
f 283/4/4 282/4/4 284/4/4
f 283/3/4 284/3/4 285/3/4
f 285/3/4 284/3/4 286/3/4
f 285/4/4 286/4/4 287/4/4
f 287/4/4 286/4/4 288/4/4
f 287/3/4 288/3/4 289/3/4
f 289/3/4 288/3/4 290/3/4
f 301/3/5 292/3/5 291/3/5
f 301/4/5 293/4/5 292/4/5
f 302/3/5 294/3/5 293/3/5
f 302/4/5 293/4/5 301/4/5
f 303/4/5 295/4/5 294/4/5
f 303/3/5 294/3/5 302/3/5
f 304/3/5 296/3/5 295/3/5
f 304/4/5 295/4/5 303/4/5
f 305/4/5 297/4/5 296/4/5
f 305/3/5 296/3/5 304/3/5
f 306/3/5 298/3/5 297/3/5
f 306/4/5 297/4/5 305/4/5
f 307/4/5 299/4/5 298/4/5
f 307/3/5 298/3/5 306/3/5
f 308/3/5 300/3/5 299/3/5
f 308/4/5 299/4/5 307/4/5
f 309/4/5 307/4/5 306/4/5
f 309/3/5 306/3/5 305/3/5
f 309/3/5 302/3/5 301/3/5
f 309/3/5 305/3/5 304/3/5
f 309/3/5 304/3/5 303/3/5
f 309/3/5 303/3/5 302/3/5
f 310/3/5 308/3/5 307/3/5
f 310/4/5 307/4/5 309/4/5
f 311/3/5 309/3/5 301/3/5
f 311/3/5 301/3/5 291/3/5
f 311/3/5 310/3/5 309/3/5
f 312/3/5 310/3/5 311/3/5
f 313/3/5 310/3/5 312/3/5
f 314/3/5 308/3/5 310/3/5
f 314/3/5 310/3/5 313/3/5
f 315/3/5 311/3/5 291/3/5
f 316/4/5 312/4/5 311/4/5
f 316/3/5 311/3/5 315/3/5
f 317/3/5 313/3/5 312/3/5
f 317/4/5 312/4/5 316/4/5
f 318/3/5 313/3/5 317/3/5
f 319/3/5 313/3/5 318/3/5
f 320/3/5 313/3/5 319/3/5
f 321/3/5 313/3/5 320/3/5
f 322/3/5 313/3/5 321/3/5
f 323/3/5 313/3/5 322/3/5
f 324/3/5 313/3/5 323/3/5
f 325/3/5 313/3/5 324/3/5
f 326/4/5 314/4/5 313/4/5
f 326/3/5 313/3/5 325/3/5
f 327/3/5 308/3/5 314/3/5
f 327/4/5 314/4/5 326/4/5
f 328/3/5 300/3/5 308/3/5
f 328/3/5 308/3/5 327/3/5
f 329/4/5 316/4/5 315/4/5
f 330/3/5 317/3/5 316/3/5
f 330/4/5 316/4/5 329/4/5
f 331/4/5 318/4/5 317/4/5
f 331/3/5 317/3/5 330/3/5
f 332/3/5 319/3/5 318/3/5
f 332/4/5 318/4/5 331/4/5
f 333/4/5 320/4/5 319/4/5
f 333/3/5 319/3/5 332/3/5
f 334/3/5 321/3/5 320/3/5
f 334/4/5 320/4/5 333/4/5
f 335/4/5 322/4/5 321/4/5
f 335/3/5 321/3/5 334/3/5
f 336/3/5 323/3/5 322/3/5
f 336/4/5 322/4/5 335/4/5
f 337/4/5 324/4/5 323/4/5
f 337/3/5 323/3/5 336/3/5
f 338/3/5 325/3/5 324/3/5
f 338/4/5 324/4/5 337/4/5
f 339/4/5 326/4/5 325/4/5
f 339/3/5 325/3/5 338/3/5
f 340/3/5 327/3/5 326/3/5
f 340/4/5 326/4/5 339/4/5
f 341/4/5 328/4/5 327/4/5
f 341/3/5 327/3/5 340/3/5
f 342/3/5 300/3/5 328/3/5
f 342/4/5 328/4/5 341/4/5
f 343/3/5 300/3/5 342/3/5
f 358/4/5 345/4/5 344/4/5
f 359/1/5 346/1/5 345/1/5
f 359/4/5 345/4/5 358/4/5
f 360/4/5 347/4/5 346/4/5
f 360/1/5 346/1/5 359/1/5
f 361/1/5 348/1/5 347/1/5
f 361/4/5 347/4/5 360/4/5
f 362/4/5 349/4/5 348/4/5
f 362/1/5 348/1/5 361/1/5
f 363/1/5 350/1/5 349/1/5
f 363/4/5 349/4/5 362/4/5
f 364/4/5 351/4/5 350/4/5
f 364/1/5 350/1/5 363/1/5
f 365/1/5 352/1/5 351/1/5
f 365/4/5 351/4/5 364/4/5
f 366/4/5 353/4/5 352/4/5
f 366/1/5 352/1/5 365/1/5
f 367/1/5 354/1/5 353/1/5
f 367/4/5 353/4/5 366/4/5
f 368/4/5 355/4/5 354/4/5
f 368/1/5 354/1/5 367/1/5
f 369/1/5 356/1/5 355/1/5
f 369/4/5 355/4/5 368/4/5
f 370/4/5 357/4/5 356/4/5
f 370/1/5 356/1/5 369/1/5
f 371/4/5 357/4/5 370/4/5
f 376/3/5 373/3/5 372/3/5
f 377/3/5 373/3/5 376/3/5
f 378/3/5 375/3/5 374/3/5
f 379/3/5 375/3/5 378/3/5
f 384/2/5 381/2/5 380/2/5
f 385/2/5 381/2/5 384/2/5
f 386/2/5 383/2/5 382/2/5
f 387/2/5 383/2/5 386/2/5
f 392/2/5 389/2/5 388/2/5
f 393/2/5 389/2/5 392/2/5
f 394/2/5 391/2/5 390/2/5
f 395/2/5 391/2/5 394/2/5
f 396/3/6 397/3/6 406/3/6
f 406/3/6 397/3/6 407/3/6
f 407/3/6 397/3/6 408/3/6
f 408/3/6 397/3/6 409/3/6
f 396/3/6 406/3/6 410/3/6
f 407/3/6 408/3/6 411/3/6
f 411/3/6 408/3/6 412/3/6
f 409/3/6 397/3/6 413/3/6
f 397/4/6 398/4/6 414/4/6
f 412/3/6 413/3/6 414/3/6
f 413/3/6 397/3/6 414/3/6
f 411/3/6 412/3/6 414/3/6
f 410/3/6 411/3/6 414/3/6
f 398/3/6 399/3/6 415/3/6
f 414/4/6 398/4/6 415/4/6
f 399/4/6 400/4/6 416/4/6
f 415/3/6 399/3/6 416/3/6
f 400/3/6 401/3/6 417/3/6
f 416/4/6 400/4/6 417/4/6
f 401/4/6 402/4/6 418/4/6
f 417/3/6 401/3/6 418/3/6
f 402/3/6 403/3/6 419/3/6
f 418/4/6 402/4/6 419/4/6
f 403/4/6 404/4/6 420/4/6
f 419/3/6 403/3/6 420/3/6
f 404/3/6 405/3/6 421/3/6
f 420/4/6 404/4/6 421/4/6
f 419/4/6 420/4/6 422/4/6
f 414/3/6 415/3/6 422/3/6
f 415/3/6 416/3/6 422/3/6
f 416/3/6 417/3/6 422/3/6
f 417/3/6 418/3/6 422/3/6
f 418/3/6 419/3/6 422/3/6
f 420/3/6 421/3/6 423/3/6
f 422/4/6 420/4/6 423/4/6
f 410/3/6 414/3/6 424/3/6
f 414/3/6 422/3/6 424/3/6
f 422/3/6 423/3/6 424/3/6
f 396/3/6 410/3/6 424/3/6
f 424/3/6 423/3/6 425/3/6
f 425/3/6 423/3/6 426/3/6
f 423/3/6 421/3/6 427/3/6
f 426/3/6 423/3/6 427/3/6
f 396/3/6 424/3/6 428/3/6
f 424/4/6 425/4/6 429/4/6
f 428/3/6 424/3/6 429/3/6
f 425/3/6 426/3/6 430/3/6
f 429/4/6 425/4/6 430/4/6
f 430/3/6 426/3/6 431/3/6
f 431/3/6 426/3/6 432/3/6
f 432/3/6 426/3/6 433/3/6
f 433/3/6 426/3/6 434/3/6
f 434/3/6 426/3/6 435/3/6
f 435/3/6 426/3/6 436/3/6
f 436/3/6 426/3/6 437/3/6
f 437/3/6 426/3/6 438/3/6
f 426/4/6 427/4/6 439/4/6
f 438/3/6 426/3/6 439/3/6
f 427/3/6 421/3/6 440/3/6
f 439/4/6 427/4/6 440/4/6
f 421/3/6 405/3/6 441/3/6
f 440/3/6 421/3/6 441/3/6
f 428/4/6 429/4/6 442/4/6
f 429/3/6 430/3/6 443/3/6
f 442/4/6 429/4/6 443/4/6
f 430/4/6 431/4/6 444/4/6
f 443/3/6 430/3/6 444/3/6
f 431/3/6 432/3/6 445/3/6
f 444/4/6 431/4/6 445/4/6
f 432/4/6 433/4/6 446/4/6
f 445/3/6 432/3/6 446/3/6
f 433/3/6 434/3/6 447/3/6
f 446/4/6 433/4/6 447/4/6
f 434/4/6 435/4/6 448/4/6
f 447/3/6 434/3/6 448/3/6
f 435/3/6 436/3/6 449/3/6
f 448/4/6 435/4/6 449/4/6
f 436/4/6 437/4/6 450/4/6
f 449/3/6 436/3/6 450/3/6
f 437/3/6 438/3/6 451/3/6
f 450/4/6 437/4/6 451/4/6
f 438/4/6 439/4/6 452/4/6
f 451/3/6 438/3/6 452/3/6
f 439/3/6 440/3/6 453/3/6
f 452/4/6 439/4/6 453/4/6
f 440/4/6 441/4/6 454/4/6
f 453/3/6 440/3/6 454/3/6
f 441/3/6 405/3/6 455/3/6
f 454/4/6 441/4/6 455/4/6
f 455/3/6 405/3/6 456/3/6
f 457/5/6 458/5/6 459/5/6
f 459/5/6 458/5/6 460/5/6
f 457/5/6 459/5/6 461/5/6
f 460/5/6 458/5/6 462/5/6
f 457/5/6 461/5/6 463/5/6
f 461/5/6 462/5/6 463/5/6
f 462/5/6 458/5/6 464/5/6
f 463/5/6 462/5/6 464/5/6
f 465/3/6 466/3/6 467/3/6
f 467/3/6 466/3/6 468/3/6
f 465/3/6 467/3/6 469/3/6
f 468/3/6 466/3/6 470/3/6
f 465/3/6 469/3/6 471/3/6
f 469/3/6 470/3/6 471/3/6
f 470/3/6 466/3/6 472/3/6
f 471/3/6 470/3/6 472/3/6
f 473/3/6 474/3/6 477/3/6
f 477/3/6 474/3/6 478/3/6
f 475/3/6 476/3/6 479/3/6
f 479/3/6 476/3/6 480/3/6
f 481/4/6 482/4/6 495/4/6
f 482/1/6 483/1/6 496/1/6
f 495/4/6 482/4/6 496/4/6
f 483/4/6 484/4/6 497/4/6
f 496/1/6 483/1/6 497/1/6
f 484/1/6 485/1/6 498/1/6
f 497/4/6 484/4/6 498/4/6
f 485/4/6 486/4/6 499/4/6
f 498/1/6 485/1/6 499/1/6
f 486/1/6 487/1/6 500/1/6
f 499/4/6 486/4/6 500/4/6
f 487/4/6 488/4/6 501/4/6
f 500/1/6 487/1/6 501/1/6
f 488/1/6 489/1/6 502/1/6
f 501/4/6 488/4/6 502/4/6
f 489/4/6 490/4/6 503/4/6
f 502/1/6 489/1/6 503/1/6
f 490/1/6 491/1/6 504/1/6
f 503/4/6 490/4/6 504/4/6
f 491/4/6 492/4/6 505/4/6
f 504/1/6 491/1/6 505/1/6
f 492/1/6 493/1/6 506/1/6
f 505/4/6 492/4/6 506/4/6
f 493/4/6 494/4/6 507/4/6
f 506/1/6 493/1/6 507/1/6
f 507/4/6 494/4/6 508/4/6
f 509/5/6 510/5/6 511/5/6
f 511/5/6 510/5/6 512/5/6
f 513/2/6 514/2/6 517/2/6
f 517/2/6 514/2/6 518/2/6
f 515/2/6 516/2/6 519/2/6
f 519/2/6 516/2/6 520/2/6
f 521/2/6 522/2/6 523/2/6
f 523/2/6 522/2/6 524/2/6
